<svg width="310" height="275" viewBox="0 0 310 275" fill="none" xmlns="http://www.w3.org/2000/svg">
<path d="M140.058 184.799L0 104.774V0L140.058 80.0907V184.799Z" transform="translate(113.787 12.2388)" fill="url(#paint0_linear)"/>
<path d="M0 0V6.30222L3.41926 9.12508L1.3151 0H0Z" transform="translate(0.0305176 181.938)" fill="#4A64AD"/>
<path d="M0 2.10074L6.11522 0L11.3099 3.4137L0 4.52972V2.10074Z" transform="translate(108.921 0.09375)" fill="url(#paint1_linear)"/>
<path d="M7.62759 6.36787V0L0 4.13582L6.24673 9.65028L7.62759 6.36787Z" transform="translate(246.349 209.445)" fill="#557FBF"/>
<path d="M144.429 143.998L2.79231 63.1197C-1.35026 60.7563 -0.824216 56.6205 3.9759 53.8633L93.5343 2.2639C98.2686 -0.493319 105.502 -0.755912 109.578 1.60742L251.215 82.5515C255.357 84.9148 254.831 89.0507 250.031 91.8079L160.473 143.407C155.739 146.099 148.571 146.361 144.429 143.998Z" transform="translate(0 129.388)" fill="url(#paint2_linear)"/>
<path d="M0 10.0441L6.50975 7.87777L5.12891 0L0 10.0441Z" transform="translate(257.791 197.301)" fill="url(#paint3_linear)"/>
<path d="M148.475 204.522L7.43032 123.971C3.28775 121.608 0 115.24 0 109.726V6.527C0 1.0782 3.35351 -1.48207 7.43032 0.881261L148.475 81.4315C152.617 83.7948 155.905 90.1627 155.905 95.6771V198.942C155.905 204.39 152.552 206.885 148.475 204.522Z" transform="translate(111.486)" fill="url(#paint4_linear)"/>
<path d="M148.409 204.522L7.43032 123.971C3.28775 121.608 0 115.24 0 109.726V6.527C0 1.0782 3.35351 -1.48207 7.43032 0.881261L148.475 81.4315C152.617 83.7948 155.905 90.1627 155.905 95.6771V198.942C155.905 204.39 152.552 206.885 148.409 204.522Z" transform="translate(105.896 1.96973)" fill="url(#paint5_linear)"/>
<path d="M144.429 144.064L2.79231 63.1197C-1.35026 60.7563 -0.824216 56.6205 3.9759 53.8633L93.5343 2.2639C98.2686 -0.493319 105.502 -0.755912 109.578 1.60742L251.215 82.5515C255.357 84.9148 254.831 89.0507 250.031 91.8079L160.473 143.407C155.739 146.099 148.571 146.427 144.429 144.064Z" transform="translate(0 122.298)" fill="url(#paint6_linear)"/>
<path d="M140.058 184.799L0 104.774V0L140.058 80.0907V184.799Z" transform="translate(113.787 12.2388)" fill="#171B46"/>
<path d="M6.04947 6.89305L0 3.4137L5.98371 0L12.0332 3.47935L6.04947 6.89305Z" transform="translate(103.266 136.707)" fill="#64C4B9"/>
<path d="M12.0332 0.393892V0.0656521L6.04947 3.47935L0 0V0.32824L6.04947 3.80759L12.0332 0.393892Z" transform="translate(103.266 140.121)" fill="#BED97B"/>
<path d="M6.04946 6.9587L0 3.47935L5.9837 0L12.0332 3.47935L6.04946 6.9587Z" transform="translate(110.631 140.974)" fill="#64C4B9"/>
<path d="M12.0332 0.32824V0L6.04946 3.47935L0 0V0.262588L6.04946 3.74194L12.0332 0.32824Z" transform="translate(110.63 144.454)" fill="#BED97B"/>
<path d="M5.98371 6.89305L0 3.4137L5.98371 0L11.9674 3.47934L5.98371 6.89305Z" transform="translate(118.061 145.175)" fill="#64C4B9"/>
<path d="M11.9674 0.32824V0.0656421L5.98371 3.47935L0 0V0.32824L5.98371 3.80759L11.9674 0.32824Z" transform="translate(118.061 148.589)" fill="#BED97B"/>
<path d="M6.04945 6.9587L0 3.47935L5.98371 0L12.0332 3.47935L6.04945 6.9587Z" transform="translate(125.426 149.312)" fill="#64C4B9"/>
<path d="M12.0332 0.32824V0L6.04945 3.47935L0 0V0.32824L6.04945 3.80759L12.0332 0.32824Z" transform="translate(125.426 152.791)" fill="#BED97B"/>
<path d="M6.04947 6.89304L0 3.4137L5.98371 0L12.0332 3.47935L6.04947 6.89304Z" transform="translate(132.79 153.513)" fill="#64C4B9"/>
<path d="M12.0332 0.393892V0.0656521L6.04947 3.47934L0 0V0.32824L6.04947 3.80758L12.0332 0.393892Z" transform="translate(132.79 156.927)" fill="#BED97B"/>
<path d="M6.04947 6.9587L0 3.47934L6.04947 0L12.0332 3.47934L6.04947 6.9587Z" transform="translate(140.155 157.649)" fill="#64C4B9"/>
<path d="M12.0332 0.32824V0L6.04947 3.47936L0 0V0.32824L6.04947 3.8076L12.0332 0.32824Z" transform="translate(140.155 161.128)" fill="#BED97B"/>
<path d="M5.98371 6.9587L0 3.47934L5.98371 0L11.9674 3.47934L5.98371 6.9587Z" transform="translate(147.585 161.85)" fill="#64C4B9"/>
<path d="M11.9674 0.32824V0L5.98371 3.47936L0 0V0.262608L5.98371 3.74195L11.9674 0.32824Z" transform="translate(147.585 165.33)" fill="#BED97B"/>
<path d="M6.04947 6.89305L0 3.41371L5.98371 0L12.0332 3.47936L6.04947 6.89305Z" transform="translate(154.95 166.052)" fill="#64C4B9"/>
<path d="M12.0332 0.32824V0.0656521L6.04947 3.47934L0 0V0.32824L6.04947 3.80758L12.0332 0.32824Z" transform="translate(154.95 169.466)" fill="#BED97B"/>
<path d="M6.04945 6.95868L0 3.47934L5.98369 0L12.0332 3.47934L6.04945 6.95868Z" transform="translate(162.314 170.188)" fill="#64C4B9"/>
<path d="M12.0332 0.32824V0L6.04945 3.47934L0 0V0.32824L6.04945 3.80758L12.0332 0.32824Z" transform="translate(162.314 173.667)" fill="#BED97B"/>
<path d="M5.98371 6.89305L0 3.41369L5.98371 0L11.9674 3.47934L5.98371 6.89305Z" transform="translate(169.744 174.389)" fill="#64C4B9"/>
<path d="M11.9674 0.393892V0.0656521L5.98371 3.47936L0 0V0.32824L5.98371 3.8076L11.9674 0.393892Z" transform="translate(169.744 177.803)" fill="#BED97B"/>
<path d="M6.04945 6.9587L0 3.47936L5.98369 0L12.0332 3.47936L6.04945 6.9587Z" transform="translate(177.109 178.525)" fill="#64C4B9"/>
<path d="M12.0332 0.32824V0L6.04945 3.47934L0 0V0.32824L6.04945 3.80758L12.0332 0.32824Z" transform="translate(177.109 182.004)" fill="#BED97B"/>
<path d="M6.04947 6.9587L0 3.47936L5.98371 0L12.0332 3.47936L6.04947 6.9587Z" transform="translate(184.473 182.727)" fill="#64C4B9"/>
<path d="M12.0332 0.32824V0L6.04947 3.47934L0 0V0.262588L6.04947 3.74193L12.0332 0.32824Z" transform="translate(184.473 186.206)" fill="#BED97B"/>
<path d="M6.04945 6.89305L0 3.41369L6.04945 0L12.0332 3.47934L6.04945 6.89305Z" transform="translate(191.838 186.928)" fill="#64C4B9"/>
<path d="M12.0332 0.32824V0.0656521L6.04945 3.47936L0 0V0.32824L6.04945 3.8076L12.0332 0.32824Z" transform="translate(191.838 190.342)" fill="#BED97B"/>
<path d="M5.98371 6.9587L0 3.47934L5.98371 0L11.9674 3.47934L5.98371 6.9587Z" transform="translate(199.269 191.064)" fill="#64C4B9"/>
<path d="M11.9674 0.32824V0L5.98371 3.47936L0 0V0.32824L5.98371 3.8076L11.9674 0.32824Z" transform="translate(199.269 194.543)" fill="#BED97B"/>
<path d="M6.04945 6.89305L0 3.41371L5.98371 0L12.0332 3.47936L6.04945 6.89305Z" transform="translate(206.633 195.265)" fill="#64C4B9"/>
<path d="M12.0332 0.393892V0.0656521L6.04945 3.47934L0 0V0.32824L6.04945 3.80758L12.0332 0.393892Z" transform="translate(206.633 198.679)" fill="#BED97B"/>
<path d="M6.04947 6.89305L0 3.41371L5.98371 0L12.0332 3.41371L6.04947 6.89305Z" transform="translate(213.998 199.466)" fill="#64C4B9"/>
<path d="M12.0332 0.32824V0L6.04947 3.47934L0 0V0.32824L6.04947 3.80758L12.0332 0.32824Z" transform="translate(213.998 202.88)" fill="#BED97B"/>
<path d="M5.98371 6.9587L0 3.47935L5.98371 0L11.9674 3.47935L5.98371 6.9587Z" transform="translate(90.8384 144.716)" fill="#64C4B9"/>
<path d="M11.9674 0.32824V0L5.98371 3.47935L0 0V0.32824L5.98371 3.80759L11.9674 0.32824Z" transform="translate(90.8381 148.195)" fill="#BED97B"/>
<path d="M6.04946 6.9587L0 3.47935L5.98371 0L12.0332 3.47935L6.04946 6.9587Z" transform="translate(98.2031 148.983)" fill="#64C4B9"/>
<path d="M12.0332 0.32824V0L6.04946 3.47935L0 0V0.32824L6.04946 3.80759L12.0332 0.32824Z" transform="translate(98.2029 152.463)" fill="#BED97B"/>
<path d="M6.04947 6.95869L0 3.47935L5.98371 0L12.0332 3.47935L6.04947 6.95869Z" transform="translate(105.567 153.185)" fill="#64C4B9"/>
<path d="M12.0332 0.32824V0L6.04947 3.47934L0 0V0.262588L6.04947 3.74193L12.0332 0.32824Z" transform="translate(105.567 156.664)" fill="#BED97B"/>
<path d="M5.98371 6.89306L0 3.4137L5.98371 0L11.9674 3.47935L5.98371 6.89306Z" transform="translate(112.998 157.386)" fill="#64C4B9"/>
<path d="M11.9674 0.32824V0.0656521L5.98371 3.47936L0 0V0.32824L5.98371 3.8076L11.9674 0.32824Z" transform="translate(112.998 160.8)" fill="#BED97B"/>
<path d="M5.98371 6.9587L0 3.47934L5.98371 0L12.0332 3.47934L5.98371 6.9587Z" transform="translate(120.362 161.522)" fill="#64C4B9"/>
<path d="M12.0332 0.32824V0L5.98371 3.47936L0 0V0.32824L5.98371 3.8076L12.0332 0.32824Z" transform="translate(120.362 165.002)" fill="#BED97B"/>
<path d="M6.04945 6.89305L0 3.41371L5.98371 0L12.0332 3.47936L6.04945 6.89305Z" transform="translate(127.727 165.724)" fill="#64C4B9"/>
<path d="M12.0332 0.393892V0.0656521L6.04945 3.47934L0 0V0.32824L6.04945 3.80758L12.0332 0.393892Z" transform="translate(127.727 169.138)" fill="#BED97B"/>
<path d="M6.04947 6.89305L0 3.41371L5.98371 0L12.0332 3.41371L6.04947 6.89305Z" transform="translate(135.092 169.925)" fill="#64C4B9"/>
<path d="M12.0332 0.32824V0L6.04947 3.47934L0 0V0.32824L6.04947 3.80758L12.0332 0.32824Z" transform="translate(135.092 173.339)" fill="#BED97B"/>
<path d="M5.98371 6.9587L0 3.47934L5.98371 0L11.9674 3.47934L5.98371 6.9587Z" transform="translate(142.522 174.061)" fill="#64C4B9"/>
<path d="M11.9674 0.32824V0L5.98371 3.47936L0 0V0.32824L5.98371 3.74195L11.9674 0.32824Z" transform="translate(142.522 177.54)" fill="#BED97B"/>
<path d="M6.04947 6.89305L0 3.41371L5.98371 0L12.0332 3.47934L6.04947 6.89305Z" transform="translate(149.886 178.262)" fill="#64C4B9"/>
<path d="M12.0332 0.32824V0.0656321L6.04947 3.47934L0 0V0.32824L6.04947 3.80758L12.0332 0.32824Z" transform="translate(149.886 181.676)" fill="#BED97B"/>
<path d="M6.04947 6.9587L0 3.47936L5.98371 0L12.0332 3.47936L6.04947 6.9587Z" transform="translate(157.251 182.398)" fill="#64C4B9"/>
<path d="M12.0332 0.32824V0L6.04947 3.47934L0 0V0.32824L6.04947 3.80758L12.0332 0.32824Z" transform="translate(157.251 185.877)" fill="#BED97B"/>
<path d="M5.98371 6.89305L0 3.47934L5.98371 0L11.9674 3.47934L5.98371 6.89305Z" transform="translate(164.681 186.599)" fill="#64C4B9"/>
<path d="M11.9674 0.32824V0L5.98371 3.41371L0 0V0.262588L5.98371 3.74195L11.9674 0.32824Z" transform="translate(164.681 190.079)" fill="#BED97B"/>
<path d="M5.98371 6.89305L0 3.41369L5.98371 0L12.0332 3.41369L5.98371 6.89305Z" transform="translate(172.046 190.801)" fill="#64C4B9"/>
<path d="M12.0332 0.32824V0L5.98371 3.47936L0 0V0.32824L5.98371 3.8076L12.0332 0.32824Z" transform="translate(172.046 194.215)" fill="#BED97B"/>
<path d="M6.04945 6.9587L0 3.47936L5.98369 0L12.0332 3.47936L6.04945 6.9587Z" transform="translate(179.41 194.937)" fill="#64C4B9"/>
<path d="M12.0332 0.32824V0L6.04945 3.47934L0 0V0.32824L6.04945 3.74193L12.0332 0.32824Z" transform="translate(179.41 198.416)" fill="#BED97B"/>
<path d="M6.04947 6.89305L0 3.41371L5.98371 0L12.0332 3.47936L6.04947 6.89305Z" transform="translate(186.775 199.138)" fill="#64C4B9"/>
<path d="M12.0332 0.32824V0.0656521L6.04947 3.47934L0 0V0.32824L6.04947 3.80758L12.0332 0.32824Z" transform="translate(186.775 202.552)" fill="#BED97B"/>
<path d="M5.98369 6.9587L0 3.47934L5.98369 0L11.9674 3.47934L5.98369 6.9587Z" transform="translate(194.205 203.274)" fill="#64C4B9"/>
<path d="M11.9674 0.32824V0L5.98369 3.47936L0 0V0.32824L5.98369 3.8076L11.9674 0.32824Z" transform="translate(194.205 206.754)" fill="#BED97B"/>
<path d="M6.04947 6.9587L0 3.47934L5.98371 0L12.0332 3.47934L6.04947 6.9587Z" transform="translate(201.57 207.476)" fill="#64C4B9"/>
<path d="M12.0332 0.32824V0L6.04947 3.47936L0 0V0.262608L6.04947 3.74195L12.0332 0.32824Z" transform="translate(201.57 210.955)" fill="#BED97B"/>
<path d="M6.04946 6.89305L0 3.47935L5.98371 0L12.0332 3.47935L6.04946 6.89305Z" transform="translate(83.4077 148.917)" fill="#64C4B9"/>
<path d="M12.0332 0.32824V0L6.04946 3.4137L0 0V0.262588L6.04946 3.74194L12.0332 0.32824Z" transform="translate(83.4077 152.396)" fill="#BED97B"/>
<path d="M5.98371 6.95869L0 3.47935L5.98371 0L11.9674 3.47935L5.98371 6.95869Z" transform="translate(90.8384 153.185)" fill="#64C4B9"/>
<path d="M11.9674 0.32824V0L5.98371 3.47934L0 0V0.262588L5.98371 3.74193L11.9674 0.32824Z" transform="translate(90.8381 156.664)" fill="#BED97B"/>
<path d="M6.04946 6.89306L0 3.4137L5.98371 0L12.0332 3.47935L6.04946 6.89306Z" transform="translate(98.2031 157.386)" fill="#64C4B9"/>
<path d="M12.0332 0.32824V0.0656521L6.04946 3.47936L0 0V0.32824L6.04946 3.8076L12.0332 0.32824Z" transform="translate(98.2029 160.8)" fill="#BED97B"/>
<path d="M6.04947 6.9587L0 3.47934L5.98371 0L12.0332 3.47934L6.04947 6.9587Z" transform="translate(105.567 161.522)" fill="#64C4B9"/>
<path d="M12.0332 0.32824V0L6.04947 3.47936L0 0V0.32824L6.04947 3.8076L12.0332 0.32824Z" transform="translate(105.567 165.002)" fill="#BED97B"/>
<path d="M5.98371 6.89305L0 3.41371L5.98371 0L11.9674 3.47936L5.98371 6.89305Z" transform="translate(112.998 165.724)" fill="#64C4B9"/>
<path d="M11.9674 0.393892V0.0656521L5.98371 3.47934L0 0V0.32824L5.98371 3.80758L11.9674 0.393892Z" transform="translate(112.998 169.138)" fill="#BED97B"/>
<path d="M5.98371 6.89305L0 3.41371L5.98371 0L12.0332 3.41371L5.98371 6.89305Z" transform="translate(120.362 169.925)" fill="#64C4B9"/>
<path d="M12.0332 0.32824V0L5.98371 3.47934L0 0V0.32824L5.98371 3.80758L12.0332 0.32824Z" transform="translate(120.362 173.339)" fill="#BED97B"/>
<path d="M6.04945 6.9587L0 3.47934L5.98371 0L12.0332 3.47934L6.04945 6.9587Z" transform="translate(127.727 174.061)" fill="#64C4B9"/>
<path d="M12.0332 0.32824V0L6.04945 3.47936L0 0V0.32824L6.04945 3.74195L12.0332 0.32824Z" transform="translate(127.727 177.54)" fill="#BED97B"/>
<path d="M6.04947 6.89305L0 3.41371L5.98371 0L12.0332 3.47934L6.04947 6.89305Z" transform="translate(135.092 178.262)" fill="#64C4B9"/>
<path d="M12.0332 0.32824V0.0656321L6.04947 3.47934L0 0V0.32824L6.04947 3.80758L12.0332 0.32824Z" transform="translate(135.092 181.676)" fill="#BED97B"/>
<path d="M5.98371 6.9587L0 3.47936L5.98371 0L11.9674 3.47936L5.98371 6.9587Z" transform="translate(142.522 182.398)" fill="#64C4B9"/>
<path d="M11.9674 0.32824V0L5.98371 3.47934L0 0V0.32824L5.98371 3.80758L11.9674 0.32824Z" transform="translate(142.522 185.877)" fill="#BED97B"/>
<path d="M6.04947 6.89305L0 3.47934L5.98371 0L12.0332 3.47934L6.04947 6.89305Z" transform="translate(149.886 186.599)" fill="#64C4B9"/>
<path d="M12.0332 0.32824V0L6.04947 3.41371L0 0V0.262588L6.04947 3.74195L12.0332 0.32824Z" transform="translate(149.886 190.079)" fill="#BED97B"/>
<path d="M6.04947 6.89305L0 3.41369L5.98371 0L12.0332 3.41369L6.04947 6.89305Z" transform="translate(157.251 190.801)" fill="#64C4B9"/>
<path d="M12.0332 0.32824V0L6.04947 3.47936L0 0V0.32824L6.04947 3.8076L12.0332 0.32824Z" transform="translate(157.251 194.215)" fill="#BED97B"/>
<path d="M5.98371 6.9587L0 3.47936L5.98371 0L11.9674 3.47936L5.98371 6.9587Z" transform="translate(164.681 194.937)" fill="#64C4B9"/>
<path d="M11.9674 0.32824V0L5.98371 3.47934L0 0V0.32824L5.98371 3.74193L11.9674 0.32824Z" transform="translate(164.681 198.416)" fill="#BED97B"/>
<path d="M5.98371 6.89305L0 3.41371L5.98371 0L12.0332 3.47936L5.98371 6.89305Z" transform="translate(172.046 199.138)" fill="#64C4B9"/>
<path d="M12.0332 0.32824V0.0656521L5.98371 3.47934L0 0V0.32824L5.98371 3.80758L12.0332 0.32824Z" transform="translate(172.046 202.552)" fill="#BED97B"/>
<path d="M6.04945 6.9587L0 3.47934L5.98369 0L12.0332 3.47934L6.04945 6.9587Z" transform="translate(179.41 203.274)" fill="#64C4B9"/>
<path d="M12.0332 0.32824V0L6.04945 3.47936L0 0V0.32824L6.04945 3.8076L12.0332 0.32824Z" transform="translate(179.41 206.753)" fill="#BED97B"/>
<path d="M6.04947 6.9587L0 3.47934L5.98371 0L12.0332 3.47934L6.04947 6.9587Z" transform="translate(186.775 207.476)" fill="#64C4B9"/>
<path d="M12.0332 0.32824V0L6.04947 3.47936L0 0V0.262608L6.04947 3.74195L12.0332 0.32824Z" transform="translate(186.775 210.955)" fill="#BED97B"/>
<path d="M5.98369 6.89305L0 3.41371L5.98369 0L11.9674 3.47936L5.98369 6.89305Z" transform="translate(194.205 211.677)" fill="#64C4B9"/>
<path d="M11.9674 0.32824V0.0656521L5.98369 3.47934L0 0V0.32824L5.98369 3.80758L11.9674 0.32824Z" transform="translate(194.205 215.091)" fill="#BED97B"/>
<path d="M6.04946 6.89306L0 3.4137L5.98371 0L12.0332 3.4137L6.04946 6.89306Z" transform="translate(76.0437 153.119)" fill="#64C4B9"/>
<path d="M12.0332 0.32824V0L6.04946 3.47936L0 0V0.32824L6.04946 3.8076L12.0332 0.32824Z" transform="translate(76.0435 156.533)" fill="#BED97B"/>
<path d="M6.04946 6.89306L0 3.4137L5.98371 0L12.0332 3.47935L6.04946 6.89306Z" transform="translate(83.4077 157.386)" fill="#64C4B9"/>
<path d="M12.0332 0.32824V0.0656521L6.04946 3.47936L0 0V0.32824L6.04946 3.8076L12.0332 0.32824Z" transform="translate(83.4077 160.8)" fill="#BED97B"/>
<path d="M5.98371 6.9587L0 3.47934L5.98371 0L11.9674 3.47934L5.98371 6.9587Z" transform="translate(90.8384 161.521)" fill="#64C4B9"/>
<path d="M11.9674 0.32824V0L5.98371 3.47936L0 0V0.32824L5.98371 3.8076L11.9674 0.32824Z" transform="translate(90.8381 165.001)" fill="#BED97B"/>
<path d="M6.04946 6.89305L0 3.41371L5.98371 0L12.0332 3.47936L6.04946 6.89305Z" transform="translate(98.2031 165.724)" fill="#64C4B9"/>
<path d="M12.0332 0.393892V0.0656521L6.04946 3.47934L0 0V0.32824L6.04946 3.80758L12.0332 0.393892Z" transform="translate(98.2029 169.138)" fill="#BED97B"/>
<path d="M6.04947 6.89305L0 3.41371L5.98371 0L12.0332 3.41371L6.04947 6.89305Z" transform="translate(105.567 169.925)" fill="#64C4B9"/>
<path d="M12.0332 0.32824V0L6.04947 3.47934L0 0V0.32824L6.04947 3.80758L12.0332 0.32824Z" transform="translate(105.567 173.339)" fill="#BED97B"/>
<path d="M5.98371 6.9587L0 3.47934L5.98371 0L11.9674 3.47934L5.98371 6.9587Z" transform="translate(112.998 174.061)" fill="#64C4B9"/>
<path d="M11.9674 0.32824V0L5.98371 3.47936L0 0V0.32824L5.98371 3.74195L11.9674 0.32824Z" transform="translate(112.998 177.54)" fill="#BED97B"/>
<path d="M5.98371 6.89305L0 3.41371L5.98371 0L12.0332 3.47934L5.98371 6.89305Z" transform="translate(120.362 178.262)" fill="#64C4B9"/>
<path d="M12.0332 0.32824V0.0656321L5.98371 3.47934L0 0V0.32824L5.98371 3.80758L12.0332 0.32824Z" transform="translate(120.362 181.676)" fill="#BED97B"/>
<path d="M6.04945 6.9587L0 3.47936L5.98371 0L12.0332 3.47936L6.04945 6.9587Z" transform="translate(127.727 182.398)" fill="#64C4B9"/>
<path d="M12.0332 0.32824V0L6.04945 3.47934L0 0V0.32824L6.04945 3.80758L12.0332 0.32824Z" transform="translate(127.727 185.877)" fill="#BED97B"/>
<path d="M6.04947 6.89305L0 3.47934L5.98371 0L12.0332 3.47934L6.04947 6.89305Z" transform="translate(135.092 186.599)" fill="#64C4B9"/>
<path d="M12.0332 0.32824V0L6.04947 3.41371L0 0V0.262588L6.04947 3.74195L12.0332 0.32824Z" transform="translate(135.092 190.079)" fill="#BED97B"/>
<path d="M5.98371 6.89305L0 3.41369L5.98371 0L11.9674 3.41369L5.98371 6.89305Z" transform="translate(142.522 190.801)" fill="#64C4B9"/>
<path d="M11.9674 0.32824V0L5.98371 3.47936L0 0V0.32824L5.98371 3.8076L11.9674 0.32824Z" transform="translate(142.522 194.215)" fill="#BED97B"/>
<path d="M6.04947 6.9587L0 3.47936L5.98371 0L12.0332 3.47936L6.04947 6.9587Z" transform="translate(149.886 194.937)" fill="#64C4B9"/>
<path d="M12.0332 0.32824V0L6.04947 3.47934L0 0V0.32824L6.04947 3.74193L12.0332 0.32824Z" transform="translate(149.886 198.416)" fill="#BED97B"/>
<path d="M6.04947 6.89305L0 3.41371L5.98371 0L12.0332 3.47936L6.04947 6.89305Z" transform="translate(157.251 199.138)" fill="#64C4B9"/>
<path d="M12.0332 0.32824V0.0656521L6.04947 3.47934L0 0V0.32824L6.04947 3.80758L12.0332 0.32824Z" transform="translate(157.251 202.552)" fill="#BED97B"/>
<path d="M5.98371 6.9587L0 3.47934L5.98371 0L11.9674 3.47934L5.98371 6.9587Z" transform="translate(164.681 203.274)" fill="#64C4B9"/>
<path d="M11.9674 0.32824V0L5.98371 3.47936L0 0V0.32824L5.98371 3.8076L11.9674 0.32824Z" transform="translate(164.681 206.753)" fill="#BED97B"/>
<path d="M5.98371 6.9587L0 3.47934L5.98371 0L12.0332 3.47934L5.98371 6.9587Z" transform="translate(172.046 207.475)" fill="#64C4B9"/>
<path d="M12.0332 0.32824V0L5.98371 3.47936L0 0V0.262608L5.98371 3.74195L12.0332 0.32824Z" transform="translate(172.046 210.955)" fill="#BED97B"/>
<path d="M6.04945 6.89305L0 3.41371L5.98369 0L12.0332 3.47936L6.04945 6.89305Z" transform="translate(179.41 211.677)" fill="#64C4B9"/>
<path d="M12.0332 0.32824V0.0656521L6.04945 3.47934L0 0V0.32824L6.04945 3.80758L12.0332 0.32824Z" transform="translate(179.41 215.091)" fill="#BED97B"/>
<path d="M6.04947 6.95868L0 3.47934L5.98371 0L12.0332 3.47934L6.04947 6.95868Z" transform="translate(186.775 215.813)" fill="#64C4B9"/>
<path d="M12.0332 0.32824V0L6.04947 3.47934L0 0V0.32824L6.04947 3.80758L12.0332 0.32824Z" transform="translate(186.775 219.292)" fill="#BED97B"/>
<path d="M5.9837 6.9587L0 3.47934L5.9837 0L12.0332 3.47934L5.9837 6.9587Z" transform="translate(68.6787 157.255)" fill="#64C4B9"/>
<path d="M12.0332 0.32824V0L5.9837 3.47936L0 0V0.32824L5.9837 3.74195L12.0332 0.32824Z" transform="translate(68.6787 160.734)" fill="#BED97B"/>
<path d="M6.04946 6.9587L0 3.47934L5.98371 0L12.0332 3.47934L6.04946 6.9587Z" transform="translate(76.0437 161.522)" fill="#64C4B9"/>
<path d="M12.0332 0.32824V0L6.04946 3.47936L0 0V0.32824L6.04946 3.8076L12.0332 0.32824Z" transform="translate(76.0435 165.002)" fill="#BED97B"/>
<path d="M6.04946 6.89305L0 3.41371L5.98371 0L12.0332 3.47936L6.04946 6.89305Z" transform="translate(83.4077 165.724)" fill="#64C4B9"/>
<path d="M12.0332 0.393892V0.0656521L6.04946 3.47934L0 0V0.32824L6.04946 3.80758L12.0332 0.393892Z" transform="translate(83.4077 169.138)" fill="#BED97B"/>
<path d="M5.98371 6.89305L0 3.41371L5.98371 0L11.9674 3.41371L5.98371 6.89305Z" transform="translate(90.8384 169.925)" fill="#64C4B9"/>
<path d="M11.9674 0.32824V0L5.98371 3.47934L0 0V0.32824L5.98371 3.80758L11.9674 0.32824Z" transform="translate(90.8381 173.339)" fill="#BED97B"/>
<path d="M6.04946 6.9587L0 3.47934L5.98371 0L12.0332 3.47934L6.04946 6.9587Z" transform="translate(98.2031 174.061)" fill="#64C4B9"/>
<path d="M12.0332 0.32824V0L6.04946 3.47936L0 0V0.32824L6.04946 3.74195L12.0332 0.32824Z" transform="translate(98.2029 177.54)" fill="#BED97B"/>
<path d="M6.04947 6.89305L0 3.41371L5.98371 0L12.0332 3.47934L6.04947 6.89305Z" transform="translate(105.567 178.262)" fill="#64C4B9"/>
<path d="M12.0332 0.32824V0.0656321L6.04947 3.47934L0 0V0.32824L6.04947 3.80758L12.0332 0.32824Z" transform="translate(105.567 181.676)" fill="#BED97B"/>
<path d="M5.98371 6.9587L0 3.47936L5.98371 0L11.9674 3.47936L5.98371 6.9587Z" transform="translate(112.998 182.398)" fill="#64C4B9"/>
<path d="M11.9674 0.32824V0L5.98371 3.47934L0 0V0.32824L5.98371 3.80758L11.9674 0.32824Z" transform="translate(112.998 185.877)" fill="#BED97B"/>
<path d="M5.98371 6.89305L0 3.47934L5.98371 0L12.0332 3.47934L5.98371 6.89305Z" transform="translate(120.363 186.6)" fill="#64C4B9"/>
<path d="M12.0332 0.32824V0L5.98371 3.41371L0 0V0.262588L5.98371 3.74195L12.0332 0.32824Z" transform="translate(120.363 190.079)" fill="#BED97B"/>
<path d="M6.04945 6.89305L0 3.41369L5.98371 0L12.0332 3.41369L6.04945 6.89305Z" transform="translate(127.727 190.801)" fill="#64C4B9"/>
<path d="M12.0332 0.32824V0L6.04945 3.47936L0 0V0.32824L6.04945 3.8076L12.0332 0.32824Z" transform="translate(127.727 194.215)" fill="#BED97B"/>
<path d="M6.04947 6.9587L0 3.47936L5.98371 0L12.0332 3.47936L6.04947 6.9587Z" transform="translate(135.092 194.937)" fill="#64C4B9"/>
<path d="M12.0332 0.32824V0L6.04947 3.47934L0 0V0.32824L6.04947 3.74193L12.0332 0.32824Z" transform="translate(135.092 198.416)" fill="#BED97B"/>
<path d="M5.98371 6.89305L0 3.41371L5.98371 0L11.9674 3.47936L5.98371 6.89305Z" transform="translate(142.522 199.138)" fill="#64C4B9"/>
<path d="M11.9674 0.32824V0.0656521L5.98371 3.47934L0 0V0.32824L5.98371 3.80758L11.9674 0.32824Z" transform="translate(142.522 202.552)" fill="#BED97B"/>
<path d="M6.04947 6.9587L0 3.47934L5.98371 0L12.0332 3.47934L6.04947 6.9587Z" transform="translate(149.886 203.274)" fill="#64C4B9"/>
<path d="M12.0332 0.32824V0L6.04947 3.47936L0 0V0.32824L6.04947 3.8076L12.0332 0.32824Z" transform="translate(149.886 206.754)" fill="#BED97B"/>
<path d="M6.04947 6.9587L0 3.47934L5.98371 0L12.0332 3.47934L6.04947 6.9587Z" transform="translate(157.251 207.476)" fill="#64C4B9"/>
<path d="M12.0332 0.32824V0L6.04947 3.47936L0 0V0.262608L6.04947 3.74195L12.0332 0.32824Z" transform="translate(157.251 210.955)" fill="#BED97B"/>
<path d="M5.98371 6.89305L0 3.41371L5.98371 0L11.9674 3.47936L5.98371 6.89305Z" transform="translate(164.681 211.677)" fill="#64C4B9"/>
<path d="M11.9674 0.32824V0.0656521L5.98371 3.47934L0 0V0.32824L5.98371 3.80758L11.9674 0.32824Z" transform="translate(164.681 215.091)" fill="#BED97B"/>
<path d="M5.98371 6.95868L0 3.47934L5.98371 0L12.0332 3.47934L5.98371 6.95868Z" transform="translate(172.046 215.813)" fill="#64C4B9"/>
<path d="M12.0332 0.32824V0L5.98371 3.47934L0 0V0.32824L5.98371 3.80758L12.0332 0.32824Z" transform="translate(172.046 219.292)" fill="#BED97B"/>
<path d="M6.04945 6.89305L0 3.41369L5.98369 0L12.0332 3.47934L6.04945 6.89305Z" transform="translate(179.41 220.015)" fill="#64C4B9"/>
<path d="M12.0332 0.393892V0.0656521L6.04945 3.47936L0 0V0.32824L6.04945 3.8076L12.0332 0.393892Z" transform="translate(179.41 223.429)" fill="#BED97B"/>
<path d="M5.9837 6.89305L0 3.41371L5.9837 0L11.9674 3.47936L5.9837 6.89305Z" transform="translate(61.3142 161.457)" fill="#64C4B9"/>
<path d="M11.9674 0.32824V0.0656521L5.9837 3.47934L0 0V0.32824L5.9837 3.80758L11.9674 0.32824Z" transform="translate(61.3142 164.87)" fill="#BED97B"/>
<path d="M5.9837 6.89305L0 3.41371L5.9837 0L12.0332 3.47936L5.9837 6.89305Z" transform="translate(68.6787 165.724)" fill="#64C4B9"/>
<path d="M12.0332 0.393892V0.0656521L5.9837 3.47934L0 0V0.32824L5.9837 3.80758L12.0332 0.393892Z" transform="translate(68.6787 169.138)" fill="#BED97B"/>
<path d="M6.04946 6.89305L0 3.41371L5.98371 0L12.0332 3.41371L6.04946 6.89305Z" transform="translate(76.0437 169.925)" fill="#64C4B9"/>
<path d="M12.0332 0.32824V0L6.04946 3.47934L0 0V0.32824L6.04946 3.80758L12.0332 0.32824Z" transform="translate(76.0435 173.339)" fill="#BED97B"/>
<path d="M6.04946 6.9587L0 3.47934L5.98371 0L12.0332 3.47934L6.04946 6.9587Z" transform="translate(83.4077 174.061)" fill="#64C4B9"/>
<path d="M12.0332 0.32824V0L6.04946 3.47936L0 0V0.32824L6.04946 3.74195L12.0332 0.32824Z" transform="translate(83.4077 177.54)" fill="#BED97B"/>
<path d="M5.98371 6.89305L0 3.41371L5.98371 0L11.9674 3.47934L5.98371 6.89305Z" transform="translate(90.8384 178.262)" fill="#64C4B9"/>
<path d="M11.9674 0.32824V0.0656321L5.98371 3.47934L0 0V0.32824L5.98371 3.80758L11.9674 0.32824Z" transform="translate(90.8381 181.676)" fill="#BED97B"/>
<path d="M6.04946 6.9587L0 3.47936L5.98371 0L12.0332 3.47936L6.04946 6.9587Z" transform="translate(98.2031 182.398)" fill="#64C4B9"/>
<path d="M12.0332 0.32824V0L6.04946 3.47934L0 0V0.32824L6.04946 3.80758L12.0332 0.32824Z" transform="translate(98.2029 185.877)" fill="#BED97B"/>
<path d="M6.04947 6.89305L0 3.47934L5.98371 0L12.0332 3.47934L6.04947 6.89305Z" transform="translate(105.567 186.599)" fill="#64C4B9"/>
<path d="M12.0332 0.32824V0L6.04947 3.41371L0 0V0.262588L6.04947 3.74195L12.0332 0.32824Z" transform="translate(105.567 190.079)" fill="#BED97B"/>
<path d="M5.98371 6.89305L0 3.41369L5.98371 0L11.9674 3.41369L5.98371 6.89305Z" transform="translate(112.998 190.801)" fill="#64C4B9"/>
<path d="M11.9674 0.32824V0L5.98371 3.47936L0 0V0.32824L5.98371 3.8076L11.9674 0.32824Z" transform="translate(112.998 194.215)" fill="#BED97B"/>
<path d="M5.98371 6.9587L0 3.47936L5.98371 0L12.0332 3.47936L5.98371 6.9587Z" transform="translate(120.363 194.937)" fill="#64C4B9"/>
<path d="M12.0332 0.32824V0L5.98371 3.47934L0 0V0.32824L5.98371 3.74193L12.0332 0.32824Z" transform="translate(120.363 198.416)" fill="#BED97B"/>
<path d="M6.04945 6.89305L0 3.41371L5.98371 0L12.0332 3.47936L6.04945 6.89305Z" transform="translate(127.727 199.138)" fill="#64C4B9"/>
<path d="M12.0332 0.32824V0.0656521L6.04945 3.47934L0 0V0.32824L6.04945 3.80758L12.0332 0.32824Z" transform="translate(127.727 202.552)" fill="#BED97B"/>
<path d="M6.04947 6.9587L0 3.47934L5.98371 0L12.0332 3.47934L6.04947 6.9587Z" transform="translate(135.092 203.274)" fill="#64C4B9"/>
<path d="M12.0332 0.32824V0L6.04947 3.47936L0 0V0.32824L6.04947 3.8076L12.0332 0.32824Z" transform="translate(135.092 206.754)" fill="#BED97B"/>
<path d="M5.98371 6.9587L0 3.47934L5.98371 0L11.9674 3.47934L5.98371 6.9587Z" transform="translate(142.522 207.476)" fill="#64C4B9"/>
<path d="M11.9674 0.32824V0L5.98371 3.47936L0 0V0.262608L5.98371 3.74195L11.9674 0.32824Z" transform="translate(142.522 210.955)" fill="#BED97B"/>
<path d="M6.04947 6.89305L0 3.41371L5.98371 0L12.0332 3.47936L6.04947 6.89305Z" transform="translate(149.886 211.677)" fill="#64C4B9"/>
<path d="M12.0332 0.32824V0.0656521L6.04947 3.47934L0 0V0.32824L6.04947 3.80758L12.0332 0.32824Z" transform="translate(149.886 215.091)" fill="#BED97B"/>
<path d="M6.04947 6.95868L0 3.47934L5.98371 0L12.0332 3.47934L6.04947 6.95868Z" transform="translate(157.251 215.813)" fill="#64C4B9"/>
<path d="M12.0332 0.32824V0L6.04947 3.47934L0 0V0.32824L6.04947 3.80758L12.0332 0.32824Z" transform="translate(157.251 219.292)" fill="#BED97B"/>
<path d="M5.98371 6.89305L0 3.41369L5.98371 0L11.9674 3.47934L5.98371 6.89305Z" transform="translate(164.681 220.015)" fill="#64C4B9"/>
<path d="M11.9674 0.393892V0.0656521L5.98371 3.47936L0 0V0.32824L5.98371 3.8076L11.9674 0.393892Z" transform="translate(164.681 223.429)" fill="#BED97B"/>
<path d="M5.98371 6.9587L0 3.47936L5.98371 0L12.0332 3.47936L5.98371 6.9587Z" transform="translate(172.046 224.151)" fill="#64C4B9"/>
<path d="M12.0332 0.32824V0L5.98371 3.47934L0 0V0.32824L5.98371 3.80758L12.0332 0.32824Z" transform="translate(172.046 227.629)" fill="#BED97B"/>
<path d="M6.04946 6.95868L0 3.47934L5.9837 0L12.0332 3.47934L6.04946 6.95868Z" transform="translate(53.884 165.592)" fill="#64C4B9"/>
<path d="M12.0332 0.32824V0L6.04946 3.47934L0 0V0.32824L6.04946 3.80758L12.0332 0.32824Z" transform="translate(53.884 169.071)" fill="#BED97B"/>
<path d="M5.9837 6.89305L0 3.41371L5.9837 0L11.9674 3.41371L5.9837 6.89305Z" transform="translate(61.3142 169.925)" fill="#64C4B9"/>
<path d="M11.9674 0.32824V0L5.9837 3.47934L0 0V0.32824L5.9837 3.80758L11.9674 0.32824Z" transform="translate(61.3142 173.339)" fill="#BED97B"/>
<path d="M5.9837 6.9587L0 3.47934L5.9837 0L12.0332 3.47934L5.9837 6.9587Z" transform="translate(68.6787 174.061)" fill="#64C4B9"/>
<path d="M12.0332 0.32824V0L5.9837 3.47936L0 0V0.32824L5.9837 3.74195L12.0332 0.32824Z" transform="translate(68.6787 177.54)" fill="#BED97B"/>
<path d="M6.04946 6.89305L0 3.41371L5.98371 0L12.0332 3.47934L6.04946 6.89305Z" transform="translate(76.0437 178.262)" fill="#64C4B9"/>
<path d="M12.0332 0.32824V0.0656321L6.04946 3.47934L0 0V0.32824L6.04946 3.80758L12.0332 0.32824Z" transform="translate(76.0435 181.676)" fill="#BED97B"/>
<path d="M12.0332 0.32824V0L6.04946 3.41369L0 0V0.32824L6.04946 3.80758L12.0332 0.32824Z" transform="translate(83.4077 185.878)" fill="#BED97B"/>
<path d="M50.3026 25.0776L5.98371 0L0 3.47936L44.3189 28.5569L50.3684 32.0363L56.3521 28.5569L50.3026 25.0776Z" transform="translate(83.4077 182.398)" fill="#64C4B9"/>
<path d="M50.3026 21.9921V21.6639L44.3189 25.1432L0 0V0.393892L44.3189 25.4058L50.3026 21.9921Z" transform="translate(89.4575 189.292)" fill="#BED97B"/>
<path d="M6.04947 6.89305L0 3.41371L5.98371 0L12.0332 3.47936L6.04947 6.89305Z" transform="translate(135.092 211.677)" fill="#64C4B9"/>
<path d="M12.0332 0.32824V0.0656521L6.04947 3.47934L0 0V0.32824L6.04947 3.80758L12.0332 0.32824Z" transform="translate(135.092 215.091)" fill="#BED97B"/>
<path d="M5.98371 6.95868L0 3.47934L5.98371 0L11.9674 3.47934L5.98371 6.95868Z" transform="translate(142.522 215.813)" fill="#64C4B9"/>
<path d="M11.9674 0.32824V0L5.98371 3.47934L0 0V0.32824L5.98371 3.80758L11.9674 0.32824Z" transform="translate(142.522 219.292)" fill="#BED97B"/>
<path d="M6.04947 6.89305L0 3.41369L5.98371 0L12.0332 3.47934L6.04947 6.89305Z" transform="translate(149.886 220.015)" fill="#64C4B9"/>
<path d="M12.0332 0.393892V0.0656521L6.04947 3.47936L0 0V0.32824L6.04947 3.8076L12.0332 0.393892Z" transform="translate(149.886 223.429)" fill="#BED97B"/>
<path d="M6.04947 6.9587L0 3.47936L5.98371 0L12.0332 3.47936L6.04947 6.9587Z" transform="translate(157.251 224.151)" fill="#64C4B9"/>
<path d="M12.0332 0.32824V0L6.04947 3.47934L0 0V0.32824L6.04947 3.80758L12.0332 0.32824Z" transform="translate(157.251 227.629)" fill="#BED97B"/>
<path d="M5.98371 6.9587L0 3.47936L5.98371 0L11.9674 3.47936L5.98371 6.9587Z" transform="translate(164.681 228.352)" fill="#64C4B9"/>
<path d="M11.9674 0.32824V0L5.98371 3.47934L0 0V0.262588L5.98371 3.74193L11.9674 0.32824Z" transform="translate(164.681 231.831)" fill="#BED97B"/>
<path d="M44.5162 41.2926L0 15.6242L27.0253 0L71.5415 25.6684L44.5162 41.2926Z" transform="translate(55.0676 192.179)" fill="#F5E4EF"/>
<path opacity="0.28" d="M2.16992 68.7408L83.0486 115.351C84.2322 116.073 85.2185 115.285 85.2185 113.71V51.0158C85.2185 49.4403 84.2322 47.5365 83.0486 46.88L2.16992 0.269858C0.986328 -0.452271 0 0.335506 0 1.91106V64.605C0 66.1805 0.986328 68.0187 2.16992 68.7408Z" transform="translate(68.0215 31.7939)" fill="#79BBE7"/>
<path d="M85.2843 54.1345V50.9178C85.2843 49.5392 84.561 48.0293 83.7062 47.5041L1.57812 0.17182C0.723301 -0.353365 0 0.368763 0 1.74737V4.96413" transform="translate(68.0217 31.2354)" fill="url(#paint7_linear)"/>
<path d="M0.657278 2.23296C1.02028 2.23296 1.31456 1.73309 1.31456 1.11648C1.31456 0.499863 1.02028 0 0.657278 0C0.294273 0 0 0.499863 0 1.11648C0 1.73309 0.294273 2.23296 0.657278 2.23296Z" transform="matrix(0.863658 -0.504088 0.505312 0.862942 148.03 79.4922)" fill="#A4D5A9"/>
<path d="M0.657278 2.23296C1.02028 2.23296 1.31456 1.73309 1.31456 1.11648C1.31456 0.499863 1.02028 0 0.657278 0C0.294273 0 0 0.499863 0 1.11648C0 1.73309 0.294273 2.23296 0.657278 2.23296Z" transform="matrix(0.863658 -0.504088 0.505312 0.862942 144.997 77.7002)" fill="#A4D5A9"/>
<path d="M0.657278 2.23297C1.02028 2.23297 1.31456 1.7331 1.31456 1.11649C1.31456 0.499873 1.02028 0 0.657278 0C0.294273 0 0 0.499873 0 1.11649C0 1.7331 0.294273 2.23297 0.657278 2.23297Z" transform="matrix(0.863658 -0.504088 0.505312 0.862942 141.907 75.9409)" fill="#A4D5A9"/>
<path d="M31.2994 19.6288L0 1.6412V0L31.2994 17.9876V19.6288Z" transform="translate(122.861 27.3374)" fill="#9263A8"/>
<path d="M49.6451 30.1981L0 1.6412V0L49.6451 28.5569V30.1981Z" transform="translate(127.201 34.2964)" fill="#4FBADC"/>
<path d="M34.1269 21.27L0 1.6412V0L34.1269 19.6288V21.27Z" transform="translate(124.636 37.0532)" fill="#9263A8"/>
<path d="M22.1595 14.4426L0 1.6412V0L22.1595 12.8014V14.4426Z" transform="translate(159.815 57.2729)" fill="#4FBADC"/>
<path d="M36.3625 22.6486L0 1.6412V0L36.3625 21.0074V22.6486Z" transform="translate(127.201 53.0063)" fill="#4FBADC"/>
<path d="M21.5019 14.0487L0 1.6412V0L21.5019 12.4075V14.0487Z" transform="translate(124.636 55.7632)" fill="#9263A8"/>
<path d="M34.1269 21.27L0 1.6412V0L34.1269 19.6288V21.27Z" transform="translate(164.944 74.8008)" fill="#9263A8"/>
<path d="M6.77276 5.58009L0 1.6412V0L6.77276 3.93888V5.58009Z" transform="translate(163.827 89.3096)" fill="#9263A8"/>
<path d="M21.6992 14.18L0 1.6412V0L21.6992 12.5388V14.18Z" transform="translate(148.9 83.9917)" fill="#4FBADC"/>
<path d="M27.0253 17.2654L0 1.6412V0L27.0253 15.6242V17.2654Z" transform="translate(135.42 72.897)" fill="#9263A8"/>
<path d="M7.69335 6.03963L0 1.6412V0L7.69335 4.39843V6.03963Z" transform="translate(187.498 92.854)" fill="#4FBADC"/>
<path d="M4.63418 10.1182H4.25187C3.58714 10.1182 3.0929 9.96148 2.76914 9.64805C2.44539 9.33807 2.28351 8.86622 2.28351 8.23248V6.45527C2.28351 6.28651 2.26457 6.13668 2.22668 6.0058C2.18879 5.87148 2.12163 5.75954 2.02519 5.66999C1.9322 5.577 1.80649 5.5064 1.64805 5.45818C1.49306 5.40996 1.29674 5.38585 1.05909 5.38585H0.836942V4.66773H1.05909C1.31052 4.66773 1.51545 4.64707 1.67388 4.60574C1.83232 4.5644 1.95631 4.50241 2.04586 4.41975C2.13541 4.33364 2.1974 4.22515 2.23185 4.09427C2.26629 3.96339 2.28351 3.8084 2.28351 3.6293V2.40489C2.28351 2.11557 2.31795 1.85554 2.38683 1.62478C2.45572 1.39057 2.56766 1.19253 2.72264 1.03065C2.88108 0.865328 3.08429 0.739614 3.33227 0.653509C3.5837 0.56396 3.89023 0.519185 4.25187 0.519185H4.63418V1.24247H4.32937C3.53031 1.24247 3.13078 1.62994 3.13078 2.40489V3.60864C3.13078 4.44902 2.76742 4.9226 2.04069 5.02937C2.77431 5.1017 3.14112 5.57356 3.14112 6.44494V8.21182C3.14112 9.00054 3.5372 9.3949 4.32937 9.3949H4.63418V10.1182ZM11.5829 8H10.5806L10.1105 6.5276H7.29999L6.82469 8H5.86893L8.1111 1.24763H9.37168L11.5829 8ZM9.84698 5.70616L8.70523 2.09491L7.56348 5.70616H9.84698ZM16.8835 3.31416C16.8835 3.58969 16.8318 3.86351 16.7285 4.1356C16.6252 4.40425 16.465 4.64534 16.248 4.85888C16.0311 5.07243 15.7538 5.24636 15.4163 5.38068C15.0787 5.51156 14.6758 5.577 14.2073 5.577H13.3704V8H12.4508V1.24763H14.352C14.6861 1.24763 15.0064 1.28552 15.3129 1.36129C15.6195 1.43362 15.8881 1.55245 16.1189 1.71777C16.3531 1.88309 16.5391 2.09663 16.6768 2.35839C16.8146 2.62015 16.8835 2.93874 16.8835 3.31416ZM15.9277 3.35549C15.9277 2.92152 15.7848 2.58915 15.4989 2.35839C15.2165 2.12763 14.8204 2.01225 14.3107 2.01225H13.3704V4.79172H14.228C14.7722 4.79172 15.1907 4.6729 15.4834 4.43525C15.7796 4.1976 15.9277 3.83768 15.9277 3.35549ZM2.44366 14.0226H0.888605V13.2476H4.92866V14.0226H3.3736V19.2147H4.92866V20H0.888605V19.2147H2.44366V14.0226ZM7.00035 12.5192H7.38265C8.04739 12.5192 8.54163 12.6759 8.86539 12.9893C9.18914 13.2993 9.35102 13.7712 9.35102 14.4049V15.5983C9.35102 15.7671 9.36996 15.9186 9.40785 16.0529C9.44573 16.1838 9.51117 16.2958 9.60417 16.3888C9.70061 16.4783 9.82804 16.5472 9.98647 16.5954C10.1449 16.6436 10.3429 16.6677 10.5806 16.6677H10.8028V17.3858H10.5806C10.3292 17.3858 10.1225 17.4065 9.96064 17.4478C9.80221 17.4892 9.67822 17.5529 9.58867 17.639C9.49912 17.7217 9.43712 17.8284 9.40268 17.9593C9.36824 18.0902 9.35102 18.2452 9.35102 18.4243V20.2325C9.35102 20.5218 9.31658 20.7818 9.24769 21.0126C9.17881 21.2468 9.06687 21.4448 8.91188 21.6067C8.75689 21.772 8.55368 21.8978 8.30226 21.9839C8.05083 22.0734 7.7443 22.1182 7.38265 22.1182H7.00035V21.3949H7.31033C8.10594 21.3949 8.50374 21.0074 8.50374 20.2325V18.4449C8.50374 17.6046 8.86711 17.1327 9.59383 17.0294C8.86022 16.9502 8.49341 16.4766 8.49341 15.6086V14.4256C8.49341 13.6368 8.09905 13.2425 7.31033 13.2425H7.00035V12.5192Z" transform="matrix(0.871854 0.502486 0 1 124.645 38.6758)" fill="white"/>
<path d="M4.74267 7.51437L4.17954 8.08266L0.707784 5.18436L4.17954 2.28606L4.74267 2.85952L1.92703 5.17403L4.74267 7.51437ZM10.8131 0.700006L7.269 9.11076H6.41139L9.95548 0.700006H10.8131ZM1.07976 14.8595L1.63772 14.2861L5.10948 17.1844L1.63772 20.0827L1.07976 19.5144L3.8954 17.1947L1.07976 14.8595Z" transform="matrix(0.871854 0.502486 0 1 156.954 41.6562)" fill="white"/>
<path d="M3.46424 5.64527L3.05291 6.06038L0.516994 3.94334L3.05291 1.82631L3.46424 2.24519L1.40758 3.9358L3.46424 5.64527ZM7.89832 0.667788L5.30957 6.81134H4.68314L7.27188 0.667788H7.89832ZM0.788699 11.2452L1.19626 10.8263L3.73217 12.9433L1.19626 15.0604L0.788699 14.6453L2.84536 12.9509L0.788699 11.2452Z" transform="matrix(0.871854 0.502486 0 1 124.645 57.0562)" fill="white"/>
<path d="M22.4882 14.18L0 1.18167V0L22.4882 12.9983V14.18Z" transform="translate(172.835 95.7427)" fill="#9263A8"/>
<path d="M35.5735 21.7295L0 1.18167V0L35.5735 20.5479V21.7295Z" transform="translate(175.991 100.732)" fill="#4FBADC"/>
<path d="M24.4609 15.2304L0 1.18167V0L24.4609 14.0487V15.2304Z" transform="translate(174.15 102.767)" fill="#9263A8"/>
<path d="M15.9785 10.3724L0 1.18166V0L15.9785 9.19073V10.3724Z" transform="translate(199.334 117.275)" fill="#4FBADC"/>
<path d="M26.1048 16.2151L0 1.18167V0L26.1048 15.0334V16.2151Z" transform="translate(175.991 114.255)" fill="#4FBADC"/>
<path d="M15.3867 10.0442L0 1.18167V0L15.3867 8.86249V10.0442Z" transform="translate(174.15 116.225)" fill="#9263A8"/>
<path d="M24.4609 15.296L0 1.18167V0L24.4609 14.1143V15.296Z" transform="translate(203.082 129.814)" fill="#9263A8"/>
<path d="M4.80011 4.00453L0 1.18166V0L4.80011 2.82286V4.00453Z" transform="translate(202.293 140.252)" fill="#9263A8"/>
<path d="M15.5182 10.1755L0 1.18167V0L15.5182 8.99379V10.1755Z" transform="translate(191.575 136.444)" fill="#4FBADC"/>
<path d="M19.3977 12.4075L0 1.18167V0L19.3977 11.2258V12.4075Z" transform="translate(181.843 128.501)" fill="#9263A8"/>
<path d="M5.52344 4.33278L0 1.18167V0L5.52344 3.15111V4.33278Z" transform="translate(219.258 142.812)" fill="#4FBADC"/>
<path d="M3.32635 7.5204H3.05193C2.5748 7.5204 2.22004 7.40792 1.98765 7.18295C1.75526 6.96045 1.63907 6.62176 1.63907 6.16687V4.89122C1.63907 4.77008 1.62547 4.66254 1.59828 4.5686C1.57108 4.47218 1.52288 4.39183 1.45365 4.32756C1.3869 4.26081 1.29667 4.21013 1.18295 4.17552C1.0717 4.14091 0.930784 4.1236 0.760202 4.1236H0.600745V3.60815H0.760202C0.940672 3.60815 1.08777 3.59331 1.20149 3.56365C1.31521 3.53398 1.40421 3.48948 1.46849 3.43015C1.53276 3.36834 1.57726 3.29047 1.60199 3.19652C1.62671 3.10258 1.63907 2.99133 1.63907 2.86278V1.98391C1.63907 1.77625 1.66379 1.58959 1.71324 1.42396C1.76268 1.25585 1.84303 1.1137 1.95427 0.997502C2.068 0.878836 2.21386 0.788601 2.39185 0.726796C2.57232 0.662519 2.79235 0.63038 3.05193 0.63038H3.32635V1.14954H3.10756C2.53401 1.14954 2.24723 1.42767 2.24723 1.98391V2.84794C2.24723 3.45116 1.98641 3.79109 1.46478 3.86773C1.99136 3.91964 2.25465 4.25833 2.25465 4.8838V6.15204C2.25465 6.71817 2.53895 7.00124 3.10756 7.00124H3.32635V7.5204ZM8.31401 6H7.5946L7.25714 4.94313H5.23983L4.89867 6H4.21263L5.82203 1.15325H6.72686L8.31401 6ZM7.06802 4.35351L6.24849 1.76141L5.42895 4.35351H7.06802ZM12.1187 2.63657C12.1187 2.83435 12.0816 3.03089 12.0075 3.22619C11.9333 3.41902 11.8184 3.59208 11.6626 3.74535C11.5069 3.89863 11.3078 4.02348 11.0656 4.11989C10.8233 4.21384 10.534 4.26081 10.1978 4.26081H9.59708V6H8.937V1.15325H10.3017C10.5415 1.15325 10.7714 1.18044 10.9914 1.23483C11.2114 1.28675 11.4043 1.37204 11.5699 1.49071C11.738 1.60937 11.8715 1.76265 11.9704 1.95054C12.0693 2.13842 12.1187 2.3671 12.1187 2.63657ZM11.4327 2.66624C11.4327 2.35474 11.3301 2.11617 11.1249 1.95054C10.9222 1.7849 10.6379 1.70208 10.272 1.70208H9.59708V3.69715H10.2127C10.6033 3.69715 10.9036 3.61185 11.1138 3.44127C11.3264 3.27069 11.4327 3.01235 11.4327 2.66624ZM1.75403 10.7095H0.637828V10.1533H3.53772V10.7095H2.42152V14.4363H3.53772V15H0.637828V14.4363H1.75403V10.7095ZM5.02475 9.63038H5.29916C5.7763 9.63038 6.13106 9.74287 6.36344 9.96784C6.59583 10.1903 6.71202 10.529 6.71202 10.9839V11.8405C6.71202 11.9617 6.72562 12.0704 6.75282 12.1669C6.78001 12.2608 6.82698 12.3411 6.89373 12.4079C6.96295 12.4722 7.05442 12.5216 7.16815 12.5562C7.28187 12.5908 7.42402 12.6081 7.5946 12.6081H7.75406V13.1236H7.5946C7.41413 13.1236 7.2658 13.1384 7.1496 13.1681C7.03588 13.1978 6.94688 13.2435 6.88261 13.3053C6.81833 13.3646 6.77383 13.4413 6.74911 13.5352C6.72439 13.6292 6.71202 13.7404 6.71202 13.869V15.1669C6.71202 15.3745 6.6873 15.5612 6.63786 15.7268C6.58841 15.8949 6.50807 16.0371 6.39682 16.1533C6.28557 16.2719 6.13971 16.3622 5.95924 16.424C5.77877 16.4883 5.55874 16.5204 5.29916 16.5204H5.02475V16.0012H5.24725C5.81832 16.0012 6.10386 15.7231 6.10386 15.1669V13.8838C6.10386 13.2806 6.36468 12.9419 6.88631 12.8677C6.35974 12.8109 6.09645 12.4709 6.09645 11.8479V10.9987C6.09645 10.4326 5.81338 10.1495 5.24725 10.1495H5.02475V9.63038Z" transform="matrix(0.871854 0.502486 0 1 174.127 103.924)" fill="white"/>
<path d="M3.40422 5.65142L3.00002 6.05933L0.508037 3.97898L3.00002 1.89862L3.40422 2.31024L1.3832 3.97156L3.40422 5.65142ZM7.76147 0.760171L5.21758 6.79728H4.602L7.1459 0.760171H7.76147ZM0.775035 11.3102L1.17553 10.8986L3.66751 12.979L1.17553 15.0593L0.775035 14.6514L2.79606 12.9864L0.775035 11.3102Z" transform="matrix(0.871854 0.502486 0 1 197.32 106.064)" fill="white"/>
<path d="M2.48658 3.74538L2.19133 4.04334L0.371091 2.52376L2.19133 1.00419L2.48658 1.30485L1.01034 2.51835L2.48658 3.74538ZM5.66929 0.172619L3.81113 4.58237H3.36149L5.21965 0.172619H5.66929ZM0.566117 8.30485L0.858655 8.00419L2.6789 9.52376L0.858655 11.0433L0.566117 10.7454L2.04235 9.52918L0.566117 8.30485Z" transform="matrix(0.871854 0.502486 0 1 174.127 117.118)" fill="white"/>
<path opacity="0.28" d="M2.16991 68.7408L83.0486 115.351C84.2322 116.073 85.2185 115.285 85.2185 113.71V51.0158C85.2185 49.4403 84.2322 47.5365 83.0486 46.88L2.16991 0.269858C0.986318 -0.452271 0 0.335506 0 1.91106V64.605C0 66.1805 0.986318 68.0843 2.16991 68.7408Z" transform="translate(224.781 82.6055)" fill="#79BBE7"/>
<path d="M85.2185 54.1345V50.9178C85.2185 49.5392 84.4952 48.0293 83.6404 47.5041L1.57812 0.171819C0.723301 -0.353366 0 0.368769 0 1.74738V4.96413" transform="translate(224.782 82.0474)" fill="url(#paint8_linear)"/>
<path d="M0.657278 2.23297C1.02028 2.23297 1.31456 1.73309 1.31456 1.11648C1.31456 0.499863 1.02028 0 0.657278 0C0.294273 0 0 0.499863 0 1.11648C0 1.73309 0.294273 2.23297 0.657278 2.23297Z" transform="matrix(0.863658 -0.504088 0.505312 0.862942 304.781 130.294)" fill="#A4D5A9"/>
<path d="M0.657278 2.23296C1.02028 2.23296 1.31456 1.73309 1.31456 1.11648C1.31456 0.499863 1.02028 0 0.657278 0C0.294273 0 0 0.499863 0 1.11648C0 1.73309 0.294273 2.23296 0.657278 2.23296Z" transform="matrix(0.863658 -0.504088 0.505312 0.862942 301.69 128.535)" fill="#A4D5A9"/>
<path d="M0.657278 2.23296C1.02028 2.23296 1.31456 1.73309 1.31456 1.11648C1.31456 0.499863 1.02028 0 0.657278 0C0.294273 0 0 0.499863 0 1.11648C0 1.73309 0.294273 2.23296 0.657278 2.23296Z" transform="matrix(0.863658 -0.504088 0.505312 0.862942 298.658 126.743)" fill="#A4D5A9"/>
<defs>
<linearGradient id="paint0_linear" x2="1" gradientUnits="userSpaceOnUse" gradientTransform="translate(-0.0268938 22.4834) scale(140.115 139.887)">
<stop stop-color="#582A6E"/>
<stop offset="0.2579" stop-color="#834A9C"/>
<stop offset="0.5158" stop-color="#A74B9B"/>
<stop offset="0.9316" stop-color="#602D78"/>
</linearGradient>
<linearGradient id="paint1_linear" x2="1" gradientUnits="userSpaceOnUse" gradientTransform="translate(0.0294582 -3.36066) scale(11.2872 11.2689)">
<stop offset="0.5105" stop-color="#4A64AD"/>
<stop offset="0.8" stop-color="#557FBF"/>
</linearGradient>
<linearGradient id="paint2_linear" x2="1" gradientUnits="userSpaceOnUse" gradientTransform="translate(77.6193 11.4712) scale(270.082 89.8836) rotate(29.9993)">
<stop offset="0.5105" stop-color="#4A64AD"/>
<stop offset="0.8" stop-color="#557FBF"/>
</linearGradient>
<linearGradient id="paint3_linear" x2="1" gradientUnits="userSpaceOnUse" gradientTransform="translate(-0.0150579 1.77368) scale(6.55051 6.53986)">
<stop offset="0.8" stop-color="#557FBF"/>
<stop offset="0.9162" stop-color="#557FBF"/>
</linearGradient>
<linearGradient id="paint4_linear" x2="1" gradientUnits="userSpaceOnUse" gradientTransform="translate(-0.029787 24.88) scale(155.933 155.68)">
<stop offset="0.5105" stop-color="#4A64AD"/>
<stop offset="0.8" stop-color="#557FBF"/>
</linearGradient>
<linearGradient id="paint5_linear" x2="1" gradientUnits="userSpaceOnUse" gradientTransform="translate(-0.0455682 24.8559) scale(155.933 155.679)">
<stop stop-color="#4E58A6"/>
<stop offset="0.0497548" stop-color="#555FAA"/>
<stop offset="0.1212" stop-color="#6871B5"/>
<stop offset="0.1486" stop-color="#717ABA"/>
<stop offset="0.4405" stop-color="#445EAA"/>
<stop offset="0.5973" stop-color="#455EAA"/>
<stop offset="0.8521" stop-color="#6D77B8"/>
<stop offset="0.8781" stop-color="#717ABA"/>
</linearGradient>
<linearGradient id="paint6_linear" x2="1" gradientUnits="userSpaceOnUse" gradientTransform="translate(-9.36048 163.701) scale(431.378 143.563) rotate(-108.436)">
<stop offset="0.1219" stop-color="#717ABA"/>
<stop offset="0.421" stop-color="#5468B0"/>
<stop offset="0.6351" stop-color="#445EAA"/>
<stop offset="0.7176" stop-color="#475CA9"/>
<stop offset="1" stop-color="#4E58A6"/>
</linearGradient>
<linearGradient id="paint7_linear" x2="1" gradientUnits="userSpaceOnUse" gradientTransform="translate(85.2543 -15.5006) scale(-85.2557 85.117)">
<stop offset="0.00526316" stop-color="#4769AE"/>
<stop offset="0.2263" stop-color="#57C6DB"/>
<stop offset="0.5105" stop-color="#E1EDC5"/>
<stop offset="0.6929" stop-color="#85D3D4"/>
<stop offset="0.7947" stop-color="#57C6DB"/>
<stop offset="0.796" stop-color="#57C5DB"/>
<stop offset="0.8454" stop-color="#52A8CD"/>
<stop offset="0.8945" stop-color="#4E94C4"/>
<stop offset="0.9428" stop-color="#4C87BE"/>
<stop offset="0.9895" stop-color="#4B83BC"/>
</linearGradient>
<linearGradient id="paint8_linear" x2="1" gradientUnits="userSpaceOnUse" gradientTransform="translate(85.2353 -15.4865) scale(-85.2557 85.1171)">
<stop offset="0.00526316" stop-color="#4769AE"/>
<stop offset="0.2263" stop-color="#57C6DB"/>
<stop offset="0.5105" stop-color="#E1EDC5"/>
<stop offset="0.6929" stop-color="#85D3D4"/>
<stop offset="0.7947" stop-color="#57C6DB"/>
<stop offset="0.796" stop-color="#57C5DB"/>
<stop offset="0.8454" stop-color="#52A8CD"/>
<stop offset="0.8945" stop-color="#4E94C4"/>
<stop offset="0.9428" stop-color="#4C87BE"/>
<stop offset="0.9895" stop-color="#4B83BC"/>
</linearGradient>
</defs>
</svg>
