<svg width="361" height="407" viewBox="0 0 361 407" fill="none" xmlns="http://www.w3.org/2000/svg">
<path d="M153.846 196.897L7.83489 112.689C-3.78239 105.967 -2.31494 94.1124 11.1366 86.2905L149.443 6.48255C162.895 -1.33936 183.561 -2.19488 195.179 4.52707L341.19 88.857C352.807 95.579 351.339 107.434 337.888 115.256L199.581 195.064C186.13 202.764 165.585 203.619 153.846 196.897Z" transform="translate(0 205.565)" fill="#B4CDDB"/>
<path d="M153.846 196.897L7.83489 112.689C-3.78239 105.967 -2.31494 94.1124 11.1366 86.2905L149.443 6.48255C162.895 -1.33936 183.561 -2.19488 195.179 4.52707L341.19 88.857C352.807 95.579 351.339 107.434 337.888 115.256L199.581 195.064C186.13 202.764 165.585 203.619 153.846 196.897Z" transform="translate(0 204.953)" fill="url(#paint0_linear)"/>
<path d="M153.846 196.897L7.83489 112.689C-3.78239 105.967 -2.31494 94.1124 11.1366 86.2905L149.443 6.48255C162.895 -1.33936 183.561 -2.19488 195.179 4.52707L341.19 88.857C352.807 95.579 351.339 107.434 337.888 115.256L199.581 195.064C186.13 202.764 165.585 203.619 153.846 196.897Z" transform="translate(0 204.342)" fill="url(#paint1_linear)"/>
<path d="M153.846 196.897L7.83489 112.689C-3.78239 105.967 -2.31494 94.1124 11.1366 86.2905L149.443 6.48255C162.895 -1.33936 183.561 -2.19488 195.179 4.52707L341.19 88.857C352.807 95.579 351.339 107.434 337.888 115.256L199.581 195.064C186.13 202.764 165.585 203.619 153.846 196.897Z" transform="translate(0 203.731)" fill="url(#paint2_linear)"/>
<path d="M153.846 196.897L7.83489 112.689C-3.78239 105.967 -2.31494 94.1124 11.1366 86.2904L149.443 6.48255C162.895 -1.33936 183.561 -2.19488 195.179 4.52707L341.19 88.857C352.807 95.5789 351.339 107.434 337.888 115.256L199.581 195.064C186.13 202.886 165.585 203.741 153.846 196.897Z" transform="translate(0 203.12)" fill="url(#paint3_linear)"/>
<path d="M153.846 197.019L7.83489 112.689C-3.78239 105.967 -2.31494 94.1124 11.1366 86.2905L149.443 6.48255C162.895 -1.33936 183.561 -2.19488 195.179 4.52707L341.19 88.857C352.807 95.579 351.339 107.434 337.888 115.256L199.581 195.064C186.13 202.886 165.585 203.741 153.846 197.019Z" transform="translate(0 202.509)" fill="url(#paint4_linear)"/>
<path d="M153.846 196.897L7.83489 112.689C-3.78239 105.967 -2.31494 94.1123 11.1366 86.2904L149.443 6.48256C162.895 -1.33935 183.561 -2.19488 195.179 4.52707L341.19 88.857C352.807 95.579 351.339 107.434 337.888 115.256L199.581 195.064C186.13 202.764 165.585 203.619 153.846 196.897Z" transform="translate(0 202.02)" fill="url(#paint5_linear)"/>
<path d="M153.846 196.897L7.83489 112.689C-3.78239 105.967 -2.31494 94.1123 11.1366 86.2904L149.443 6.48256C162.895 -1.33935 183.561 -2.19488 195.179 4.52707L341.19 88.857C352.807 95.579 351.339 107.434 337.888 115.256L199.581 195.064C186.13 202.764 165.585 203.619 153.846 196.897Z" transform="translate(0 201.409)" fill="url(#paint6_linear)"/>
<path d="M153.846 196.897L7.83489 112.689C-3.78239 105.967 -2.31494 94.1123 11.1366 86.2904L149.443 6.48256C162.895 -1.33935 183.561 -2.19488 195.179 4.52707L341.19 88.857C352.807 95.579 351.339 107.434 337.888 115.256L199.581 195.064C186.13 202.764 165.585 203.619 153.846 196.897Z" transform="translate(0 200.798)" fill="url(#paint7_linear)"/>
<path d="M153.846 196.897L7.83489 112.689C-3.78239 105.967 -2.31494 94.1123 11.1366 86.2904L149.443 6.48256C162.895 -1.33935 183.561 -2.19488 195.179 4.52707L341.19 88.857C352.807 95.579 351.339 107.434 337.888 115.256L199.581 195.064C186.13 202.764 165.585 203.619 153.846 196.897Z" transform="translate(0 200.187)" fill="url(#paint8_linear)"/>
<path d="M153.846 196.897L7.83489 112.689C-3.78239 105.967 -2.31494 94.1123 11.1366 86.2904L149.443 6.48256C162.895 -1.33935 183.561 -2.19488 195.179 4.52707L341.19 88.857C352.807 95.5789 351.339 107.434 337.888 115.256L199.581 195.064C186.13 202.886 165.585 203.741 153.846 196.897Z" transform="translate(0 199.576)" fill="url(#paint9_linear)"/>
<path d="M153.846 197.019L7.83489 112.689C-3.78239 105.967 -2.31494 94.1123 11.1366 86.2904L149.443 6.48256C162.895 -1.33935 183.561 -2.19488 195.179 4.52707L341.19 88.857C352.807 95.579 351.339 107.434 337.888 115.256L199.581 195.064C186.13 202.886 165.585 203.741 153.846 197.019Z" transform="translate(0 198.965)" fill="url(#paint10_linear)"/>
<path d="M153.846 197.019L7.83489 112.689C-3.78239 105.967 -2.31494 94.1123 11.1366 86.2904L149.443 6.48256C162.895 -1.33935 183.561 -2.19488 195.179 4.52707L341.19 88.9792C352.807 95.7012 351.339 107.556 337.888 115.378L199.581 195.186C186.13 202.886 165.585 203.741 153.846 197.019Z" transform="translate(0 198.354)" fill="url(#paint11_linear)"/>
<path d="M153.846 196.897L7.83489 112.689C-3.78239 105.967 -2.31494 94.1124 11.1366 86.2904L149.443 6.48255C162.895 -1.33936 183.561 -2.19487 195.179 4.52708L341.19 88.857C352.807 95.579 351.339 107.434 337.888 115.256L199.581 195.064C186.13 202.764 165.585 203.619 153.846 196.897Z" transform="translate(0 197.865)" fill="url(#paint12_linear)"/>
<path d="M153.846 196.897L7.83489 112.689C-3.78239 105.967 -2.31494 94.1124 11.1366 86.2904L149.443 6.48255C162.895 -1.33936 183.561 -2.19487 195.179 4.52708L341.19 88.857C352.807 95.579 351.339 107.434 337.888 115.256L199.581 195.064C186.13 202.764 165.585 203.619 153.846 196.897Z" transform="translate(0 197.254)" fill="url(#paint13_linear)"/>
<path d="M153.846 196.897L7.83489 112.689C-3.78239 105.967 -2.31494 94.1124 11.1366 86.2904L149.443 6.48255C162.895 -1.33936 183.561 -2.19487 195.179 4.52708L341.19 88.857C352.807 95.579 351.339 107.434 337.888 115.256L199.581 195.064C186.13 202.764 165.585 203.619 153.846 196.897Z" transform="translate(0 196.643)" fill="url(#paint14_linear)"/>
<path d="M153.846 196.897L7.83489 112.689C-3.78239 105.967 -2.31494 94.1124 11.1366 86.2904L149.443 6.48255C162.895 -1.33936 183.561 -2.19487 195.179 4.52708L341.19 88.857C352.807 95.579 351.339 107.434 337.888 115.256L199.581 195.064C186.13 202.764 165.585 203.619 153.846 196.897Z" transform="translate(0 196.031)" fill="url(#paint15_linear)"/>
<path d="M153.846 196.897L7.83489 112.689C-3.78239 105.967 -2.31494 94.1123 11.1366 86.2904L149.443 6.48255C162.895 -1.33936 183.561 -2.19487 195.179 4.52708L341.19 88.857C352.807 95.579 351.339 107.434 337.888 115.256L199.581 195.064C186.13 202.886 165.585 203.741 153.846 196.897Z" transform="translate(0 195.42)" fill="url(#paint16_linear)"/>
<path d="M153.846 197.019L7.83489 112.689C-3.78239 105.967 -2.31494 94.1124 11.1366 86.2904L149.443 6.48255C162.895 -1.33936 183.561 -2.19487 195.179 4.52708L341.19 88.857C352.807 95.579 351.339 107.434 337.888 115.256L199.581 195.064C186.13 202.886 165.585 203.741 153.846 197.019Z" transform="translate(0 194.809)" fill="url(#paint17_linear)"/>
<path d="M153.846 196.897L7.83489 112.689C-3.78239 105.967 -2.31494 94.1124 11.1366 86.2905L149.443 6.48255C162.895 -1.33935 183.561 -2.19488 195.179 4.52707L341.19 88.857C352.807 95.579 351.339 107.434 337.888 115.256L199.581 195.064C186.13 202.764 165.585 203.619 153.846 196.897Z" transform="translate(0 194.321)" fill="url(#paint18_linear)"/>
<path d="M153.846 196.897L7.83489 112.689C-3.78239 105.967 -2.31494 94.1124 11.1366 86.2904L149.443 6.48255C162.895 -1.33935 183.561 -2.19488 195.179 4.52707L341.19 88.857C352.807 95.5789 351.339 107.434 337.888 115.256L199.581 194.942C186.13 202.764 165.585 203.619 153.846 196.897Z" transform="translate(0 193.71)" fill="url(#paint19_linear)"/>
<path d="M153.846 196.897L7.83489 112.689C-3.78239 105.967 -2.31494 94.1124 11.1366 86.2905L149.443 6.48255C162.895 -1.33935 183.561 -2.19488 195.179 4.52707L341.19 88.857C352.807 95.579 351.339 107.434 337.888 115.256L199.581 195.064C186.13 202.764 165.585 203.619 153.846 196.897Z" transform="translate(0 193.098)" fill="url(#paint20_linear)"/>
<path d="M153.846 196.897L7.83489 112.689C-3.78239 105.967 -2.31494 94.1124 11.1366 86.2905L149.443 6.48255C162.895 -1.33935 183.561 -2.19488 195.179 4.52707L341.19 88.857C352.807 95.579 351.339 107.434 337.888 115.256L199.581 195.064C186.13 202.764 165.585 203.619 153.846 196.897Z" transform="translate(0 192.487)" fill="url(#paint21_linear)"/>
<path d="M153.846 196.897L7.83489 112.689C-3.78239 105.967 -2.31494 94.1124 11.1366 86.2904L149.443 6.48255C162.895 -1.33935 183.561 -2.19488 195.179 4.52707L341.19 88.857C352.807 95.5789 351.339 107.434 337.888 115.256L199.581 195.064C186.13 202.886 165.585 203.741 153.846 196.897Z" transform="translate(0 191.876)" fill="url(#paint22_linear)"/>
<path d="M153.846 197.019L7.83489 112.689C-3.78239 105.967 -2.31494 94.1124 11.1366 86.2905L149.443 6.48255C162.895 -1.33935 183.561 -2.19488 195.179 4.52707L341.19 88.857C352.807 95.579 351.339 107.434 337.888 115.256L199.581 195.064C186.13 202.886 165.585 203.741 153.846 197.019Z" transform="translate(0 191.265)" fill="url(#paint23_linear)"/>
<path d="M153.846 197.019L7.83489 112.689C-3.78239 105.967 -2.31494 94.1124 11.1366 86.2904L149.443 6.48255C162.895 -1.33935 183.561 -2.19488 195.179 4.52707L341.19 88.9792C352.807 95.7012 351.339 107.556 337.888 115.378L199.581 195.186C186.13 202.886 165.585 203.741 153.846 197.019Z" transform="translate(0 190.654)" fill="url(#paint24_linear)"/>
<path d="M153.846 196.897L7.83489 112.689C-3.78239 105.967 -2.31494 94.1124 11.1366 86.2904L149.443 6.48254C162.895 -1.33936 183.561 -2.19487 195.179 4.52708L341.19 88.857C352.807 95.579 351.339 107.434 337.888 115.256L199.581 195.064C186.13 202.764 165.585 203.619 153.846 196.897Z" transform="translate(0 190.165)" fill="url(#paint25_linear)"/>
<path d="M153.846 196.897L7.83489 112.689C-3.78239 105.967 -2.31494 94.1124 11.1366 86.2904L149.443 6.48254C162.895 -1.33936 183.561 -2.19487 195.179 4.52708L341.19 88.857C352.807 95.579 351.339 107.434 337.888 115.256L199.581 195.064C186.13 202.764 165.585 203.619 153.846 196.897Z" transform="translate(0 189.554)" fill="url(#paint26_linear)"/>
<path d="M153.846 196.897L7.83489 112.689C-3.78239 105.967 -2.31494 94.1124 11.1366 86.2904L149.443 6.48254C162.895 -1.33936 183.561 -2.19487 195.179 4.52708L341.19 88.857C352.807 95.579 351.339 107.434 337.888 115.256L199.581 195.064C186.13 202.764 165.585 203.619 153.846 196.897Z" transform="translate(0 188.943)" fill="url(#paint27_linear)"/>
<path d="M153.846 196.897L7.83489 112.689C-3.78239 105.967 -2.31494 94.1124 11.1366 86.2904L149.443 6.48254C162.895 -1.33936 183.561 -2.19487 195.179 4.52708L341.19 88.857C352.807 95.579 351.339 107.434 337.888 115.256L199.581 195.064C186.13 202.886 165.585 203.619 153.846 196.897Z" transform="translate(0 188.332)" fill="url(#paint28_linear)"/>
<path d="M153.846 196.897L7.83489 112.567C-3.78239 105.845 -2.31494 93.9901 11.1366 86.1682L149.443 6.48255C162.895 -1.33936 183.561 -2.19488 195.179 4.52707L341.19 88.7348C352.807 95.4567 351.339 107.312 337.888 115.134L199.581 194.942C186.13 202.764 165.585 203.619 153.846 196.897Z" transform="translate(0 187.843)" fill="url(#paint29_linear)"/>
<path d="M153.846 197.019L7.83489 112.689C-3.78239 105.967 -2.31494 94.1123 11.1366 86.2904L149.443 6.48254C162.895 -1.33936 183.561 -2.19487 195.179 4.52708L341.19 88.9792C352.807 95.7012 351.339 107.556 337.888 115.378L199.581 195.186C186.13 202.886 165.585 203.741 153.846 197.019Z" transform="translate(0 187.11)" fill="url(#paint30_linear)"/>
<path d="M153.846 196.897L7.83489 112.689C-3.78239 105.967 -2.31494 94.1124 11.1366 86.2905L149.443 6.48255C162.895 -1.33936 183.561 -2.19488 195.179 4.52707L341.19 88.857C352.807 95.579 351.339 107.434 337.888 115.256L199.581 195.064C186.13 202.764 165.585 203.619 153.846 196.897Z" transform="translate(0 186.621)" fill="url(#paint31_linear)"/>
<path d="M153.846 196.897L7.83489 112.689C-3.78239 105.967 -2.31494 94.1124 11.1366 86.2905L149.443 6.48255C162.895 -1.33936 183.561 -2.19488 195.179 4.52707L341.19 88.857C352.807 95.579 351.339 107.434 337.888 115.256L199.581 195.064C186.13 202.764 165.585 203.619 153.846 196.897Z" transform="translate(0 186.01)" fill="url(#paint32_linear)"/>
<path d="M153.846 196.897L7.83489 112.689C-3.78239 105.967 -2.31494 94.1124 11.1366 86.2905L149.443 6.48255C162.895 -1.33936 183.561 -2.19488 195.179 4.52707L341.19 88.857C352.807 95.579 351.339 107.434 337.888 115.256L199.581 195.064C186.13 202.764 165.585 203.619 153.846 196.897Z" transform="translate(0 185.399)" fill="url(#paint33_linear)"/>
<path d="M153.846 196.897L7.83489 112.689C-3.78239 105.967 -2.31494 94.1124 11.1366 86.2905L149.443 6.48255C162.895 -1.33936 183.561 -2.19488 195.179 4.52707L341.19 88.857C352.807 95.579 351.339 107.434 337.888 115.256L199.581 195.064C186.13 202.764 165.585 203.619 153.846 196.897Z" transform="translate(0 184.787)" fill="url(#paint34_linear)"/>
<path d="M153.846 196.897L7.83489 112.689C-3.78239 105.967 -2.31494 94.1124 11.1366 86.2904L149.443 6.48255C162.895 -1.33936 183.561 -2.19488 195.179 4.52707L341.19 88.857C352.807 95.5789 351.339 107.434 337.888 115.256L199.581 195.064C186.13 202.886 165.585 203.741 153.846 196.897Z" transform="translate(0 184.176)" fill="url(#paint35_linear)"/>
<path d="M153.846 197.019L7.83489 112.689C-3.78239 105.967 -2.31494 94.1124 11.1366 86.2905L149.443 6.48255C162.895 -1.33936 183.561 -2.19488 195.179 4.52707L341.19 88.857C352.807 95.579 351.339 107.434 337.888 115.256L199.581 195.064C186.13 202.886 165.585 203.741 153.846 197.019Z" transform="translate(0 183.565)" fill="url(#paint36_linear)"/>
<path d="M153.846 196.897L7.83489 112.689C-3.78239 105.967 -2.31494 94.1123 11.1366 86.2904L149.443 6.48256C162.895 -1.33935 183.561 -2.19488 195.179 4.52707L341.19 88.857C352.807 95.579 351.339 107.434 337.888 115.256L199.581 195.064C186.13 202.764 165.585 203.619 153.846 196.897Z" transform="translate(0 183.076)" fill="url(#paint37_linear)"/>
<path d="M153.846 196.897L7.83489 112.689C-3.78239 105.967 -2.31494 94.1123 11.1366 86.2904L149.443 6.48256C162.895 -1.33935 183.561 -2.19488 195.179 4.52707L341.19 88.857C352.807 95.579 351.339 107.434 337.888 115.256L199.581 195.064C186.13 202.764 165.585 203.619 153.846 196.897Z" transform="translate(0 182.465)" fill="url(#paint38_linear)"/>
<path d="M153.846 196.897L7.83489 112.689C-3.78239 105.967 -2.31494 94.1123 11.1366 86.2904L149.443 6.48256C162.895 -1.33935 183.561 -2.19488 195.179 4.52707L341.19 88.857C352.807 95.579 351.339 107.434 337.888 115.256L199.581 195.064C186.13 202.764 165.585 203.619 153.846 196.897Z" transform="translate(0 181.854)" fill="url(#paint39_linear)"/>
<path d="M153.846 196.897L7.83489 112.689C-3.78239 105.967 -2.31494 94.1123 11.1366 86.2904L149.443 6.48256C162.895 -1.33935 183.561 -2.19488 195.179 4.52707L341.19 88.857C352.807 95.579 351.339 107.434 337.888 115.256L199.581 195.064C186.13 202.764 165.585 203.619 153.846 196.897Z" transform="translate(0 181.243)" fill="url(#paint40_linear)"/>
<path d="M153.846 196.897L7.83489 112.689C-3.78239 105.967 -2.31494 94.1123 11.1366 86.2904L149.443 6.48256C162.895 -1.33935 183.561 -2.19488 195.179 4.52707L341.19 88.857C352.807 95.5789 351.339 107.434 337.888 115.256L199.581 195.064C186.13 202.886 165.585 203.741 153.846 196.897Z" transform="translate(0 180.632)" fill="url(#paint41_linear)"/>
<path d="M153.846 197.019L7.83489 112.689C-3.78239 105.967 -2.31494 94.1123 11.1366 86.2904L149.443 6.48256C162.895 -1.33935 183.561 -2.19488 195.179 4.52707L341.19 88.857C352.807 95.579 351.339 107.434 337.888 115.256L199.581 195.064C186.13 202.886 165.585 203.741 153.846 197.019Z" transform="translate(0 180.021)" fill="url(#paint42_linear)"/>
<path d="M153.846 197.019L7.83489 112.689C-3.78239 105.967 -2.31494 94.1123 11.1366 86.2904L149.443 6.48256C162.895 -1.33935 183.561 -2.19488 195.179 4.52707L341.19 88.9792C352.807 95.7012 351.339 107.556 337.888 115.378L199.581 195.186C186.13 202.886 165.585 203.741 153.846 197.019Z" transform="translate(0 179.41)" fill="url(#paint43_linear)"/>
<path d="M153.846 196.897L7.83489 112.689C-3.78239 105.967 -2.31494 94.1124 11.1366 86.2904L149.443 6.48255C162.895 -1.33936 183.561 -2.19487 195.179 4.52708L341.19 88.857C352.807 95.579 351.339 107.434 337.888 115.256L199.581 195.064C186.13 202.764 165.585 203.619 153.846 196.897Z" transform="translate(0 178.921)" fill="url(#paint44_linear)"/>
<path d="M153.846 196.897L7.83489 112.689C-3.78239 105.967 -2.31494 94.1124 11.1366 86.2904L149.443 6.48255C162.895 -1.33936 183.561 -2.19487 195.179 4.52708L341.19 88.857C352.807 95.579 351.339 107.434 337.888 115.256L199.581 195.064C186.13 202.764 165.585 203.619 153.846 196.897Z" transform="translate(0 178.31)" fill="url(#paint45_linear)"/>
<path d="M153.846 196.897L7.83489 112.689C-3.78239 105.967 -2.31494 94.1124 11.1366 86.2904L149.443 6.48255C162.895 -1.33936 183.561 -2.19487 195.179 4.52708L341.19 88.857C352.807 95.579 351.339 107.434 337.888 115.256L199.581 195.064C186.13 202.764 165.585 203.619 153.846 196.897Z" transform="translate(0 177.699)" fill="url(#paint46_linear)"/>
<path d="M153.846 196.897L7.83489 112.689C-3.78239 105.967 -2.31494 94.1124 11.1366 86.2904L149.443 6.48255C162.895 -1.33936 183.561 -2.19487 195.179 4.52708L341.19 88.857C352.807 95.579 351.339 107.434 337.888 115.256L199.581 195.064C186.13 202.764 165.585 203.619 153.846 196.897Z" transform="translate(0 177.088)" fill="url(#paint47_linear)"/>
<path d="M153.846 196.897L7.83489 112.689C-3.78239 105.967 -2.31494 94.1123 11.1366 86.2904L149.443 6.48255C162.895 -1.33936 183.561 -2.19487 195.179 4.52708L341.19 88.857C352.807 95.579 351.339 107.434 337.888 115.256L199.581 195.064C186.13 202.886 165.585 203.741 153.846 196.897Z" transform="translate(0 176.477)" fill="url(#paint48_linear)"/>
<path d="M153.846 197.019L7.83489 112.689C-3.78239 105.967 -2.31494 94.1124 11.1366 86.2904L149.443 6.48255C162.895 -1.33936 183.561 -2.19487 195.179 4.52708L341.19 88.857C352.807 95.579 351.339 107.434 337.888 115.256L199.581 195.064C186.13 202.886 165.585 203.741 153.846 197.019Z" transform="translate(0 175.866)" fill="url(#paint49_linear)"/>
<path d="M153.846 196.897L7.83489 112.689C-3.78239 105.967 -2.31494 94.1124 11.1366 86.2904L149.443 6.48255C162.895 -1.33935 183.561 -2.19488 195.179 4.52707L341.19 88.857C352.807 95.5789 351.339 107.434 337.888 115.256L199.581 194.942C186.13 202.764 165.585 203.619 153.846 196.897Z" transform="translate(0 175.377)" fill="url(#paint50_linear)"/>
<path d="M153.846 196.897L7.83489 112.689C-3.78239 105.967 -2.31494 94.1124 11.1366 86.2905L149.443 6.48255C162.895 -1.33935 183.561 -2.19488 195.179 4.52707L341.19 88.857C352.807 95.579 351.339 107.434 337.888 115.256L199.581 195.064C186.13 202.764 165.585 203.619 153.846 196.897Z" transform="translate(0 174.766)" fill="url(#paint51_linear)"/>
<path d="M153.846 196.897L7.83489 112.689C-3.78239 105.967 -2.31494 94.1124 11.1366 86.2905L149.443 6.48255C162.895 -1.33935 183.561 -2.19488 195.179 4.52707L341.19 88.857C352.807 95.579 351.339 107.434 337.888 115.256L199.581 195.064C186.13 202.764 165.585 203.619 153.846 196.897Z" transform="translate(0 174.155)" fill="url(#paint52_linear)"/>
<path d="M153.846 196.897L7.83489 112.689C-3.78239 105.967 -2.31494 94.1124 11.1366 86.2905L149.443 6.48255C162.895 -1.33935 183.561 -2.19488 195.179 4.52707L341.19 88.857C352.807 95.579 351.339 107.434 337.888 115.256L199.581 195.064C186.13 202.764 165.585 203.619 153.846 196.897Z" transform="translate(0 173.544)" fill="url(#paint53_linear)"/>
<path d="M153.846 196.897L7.83489 112.689C-3.78239 105.967 -2.31494 94.1124 11.1366 86.2904L149.443 6.48255C162.895 -1.33935 183.561 -2.19488 195.179 4.52707L341.19 88.857C352.807 95.5789 351.339 107.434 337.888 115.256L199.581 195.064C186.13 202.886 165.585 203.741 153.846 196.897Z" transform="translate(0 172.933)" fill="url(#paint54_linear)"/>
<path d="M153.846 197.019L7.83489 112.689C-3.78239 105.967 -2.31494 94.1124 11.1366 86.2905L149.443 6.48255C162.895 -1.33935 183.561 -2.19488 195.179 4.52707L341.19 88.857C352.807 95.579 351.339 107.434 337.888 115.256L199.581 195.064C186.13 202.886 165.585 203.741 153.846 197.019Z" transform="translate(0 172.321)" fill="url(#paint55_linear)"/>
<path d="M153.846 197.019L7.83489 112.689C-3.78239 105.967 -2.31494 94.1124 11.1366 86.2904L149.443 6.48255C162.895 -1.33935 183.561 -2.19488 195.179 4.52707L341.19 88.9792C352.807 95.7012 351.339 107.556 337.888 115.378L199.581 195.186C186.13 202.886 165.585 203.741 153.846 197.019Z" transform="translate(0 171.71)" fill="url(#paint56_linear)"/>
<path d="M153.846 196.897L7.83489 112.689C-3.78239 105.967 -2.31494 94.1124 11.1366 86.2904L149.443 6.48254C162.895 -1.33936 183.561 -2.19487 195.179 4.52708L341.19 88.857C352.807 95.579 351.339 107.434 337.888 115.256L199.581 195.064C186.13 202.764 165.585 203.619 153.846 196.897Z" transform="translate(0 171.221)" fill="url(#paint57_linear)"/>
<path d="M153.846 196.897L7.83489 112.689C-3.78239 105.967 -2.31494 94.1124 11.1366 86.2904L149.443 6.48254C162.895 -1.33936 183.561 -2.19487 195.179 4.52708L341.19 88.857C352.807 95.579 351.339 107.434 337.888 115.256L199.581 195.064C186.13 202.764 165.585 203.619 153.846 196.897Z" transform="translate(0 170.61)" fill="url(#paint58_linear)"/>
<path d="M153.846 196.897L7.83489 112.689C-3.78239 105.967 -2.31494 94.1124 11.1366 86.2904L149.443 6.48254C162.895 -1.33936 183.561 -2.19487 195.179 4.52708L341.19 88.857C352.807 95.579 351.339 107.434 337.888 115.256L199.581 195.064C186.13 202.764 165.585 203.619 153.846 196.897Z" transform="translate(0 169.999)" fill="url(#paint59_linear)"/>
<path d="M153.846 196.897L7.83489 112.689C-3.78239 105.967 -2.31494 94.1124 11.1366 86.2904L149.443 6.48254C162.895 -1.33936 183.561 -2.19487 195.179 4.52708L341.19 88.857C352.807 95.579 351.339 107.434 337.888 115.256L199.581 195.064C186.13 202.886 165.585 203.619 153.846 196.897Z" transform="translate(0 169.388)" fill="url(#paint60_linear)"/>
<path d="M153.846 197.019L7.83489 112.689C-3.78239 105.967 -2.31494 94.1124 11.1366 86.2904L149.443 6.48254C162.895 -1.33936 183.561 -2.19487 195.179 4.52708L341.19 88.857C352.807 95.579 351.339 107.434 337.888 115.256L199.581 195.064C186.13 202.886 165.585 203.741 153.846 197.019Z" transform="translate(0 168.777)" fill="url(#paint61_linear)"/>
<path d="M153.846 196.897L7.83489 112.567C-3.78239 105.845 -2.31494 93.9901 11.1366 86.1682L149.443 6.48255C162.895 -1.33936 183.561 -2.19488 195.179 4.52707L341.19 88.857C352.807 95.579 351.339 107.434 337.888 115.256L199.581 195.064C186.13 202.764 165.585 203.619 153.846 196.897Z" transform="translate(0 168.288)" fill="url(#paint62_linear)"/>
<path d="M153.846 196.897L7.83489 112.689C-3.78239 105.967 -2.31494 94.1124 11.1366 86.2905L149.443 6.48255C162.895 -1.33936 183.561 -2.19488 195.179 4.52707L341.19 88.857C352.807 95.579 351.339 107.434 337.888 115.256L199.581 195.064C186.13 202.764 165.585 203.619 153.846 196.897Z" transform="translate(0 167.677)" fill="url(#paint63_linear)"/>
<path d="M153.846 196.897L7.83489 112.689C-3.78239 105.967 -2.31494 94.1124 11.1366 86.2905L149.443 6.48255C162.895 -1.33936 183.561 -2.19488 195.179 4.52707L341.19 88.857C352.807 95.579 351.339 107.434 337.888 115.256L199.581 195.064C186.13 202.764 165.585 203.619 153.846 196.897Z" transform="translate(0 167.066)" fill="url(#paint64_linear)"/>
<path d="M153.846 196.897L7.83489 112.689C-3.78239 105.967 -2.31494 94.1124 11.1366 86.2905L149.443 6.48255C162.895 -1.33936 183.561 -2.19488 195.179 4.52707L341.19 88.857C352.807 95.579 351.339 107.434 337.888 115.256L199.581 195.064C186.13 202.764 165.585 203.619 153.846 196.897Z" transform="translate(0 166.455)" fill="url(#paint65_linear)"/>
<path d="M153.846 196.897L7.83489 112.689C-3.78239 105.967 -2.31494 94.1124 11.1366 86.2905L149.443 6.48255C162.895 -1.33936 183.561 -2.19488 195.179 4.52707L341.19 88.857C352.807 95.579 351.339 107.434 337.888 115.256L199.581 195.064C186.13 202.764 165.585 203.619 153.846 196.897Z" transform="translate(0 165.844)" fill="url(#paint66_linear)"/>
<path d="M153.846 196.897L7.83489 112.689C-3.78239 105.967 -2.31494 94.1124 11.1366 86.2904L149.443 6.48255C162.895 -1.33936 183.561 -2.19488 195.179 4.52707L341.19 88.857C352.807 95.5789 351.339 107.434 337.888 115.256L199.581 195.064C186.13 202.886 165.585 203.741 153.846 196.897Z" transform="translate(0 165.233)" fill="url(#paint67_linear)"/>
<path d="M153.846 197.019L7.83489 112.689C-3.78239 105.967 -2.31494 94.1124 11.1366 86.2905L149.443 6.48255C162.895 -1.33936 183.561 -2.19488 195.179 4.52707L341.19 88.857C352.807 95.579 351.339 107.434 337.888 115.256L199.581 195.064C186.13 202.886 165.585 203.741 153.846 197.019Z" transform="translate(0 164.622)" fill="url(#paint68_linear)"/>
<path d="M153.846 196.897L7.83489 112.689C-3.78239 105.967 -2.31494 94.1123 11.1366 86.2904L149.443 6.48256C162.895 -1.33935 183.561 -2.19488 195.179 4.52707L341.19 88.857C352.807 95.579 351.339 107.434 337.888 115.256L199.581 195.064C186.13 202.764 165.585 203.619 153.846 196.897Z" transform="translate(0 164.133)" fill="url(#paint69_linear)"/>
<path d="M153.846 196.897L7.83489 112.689C-3.78239 105.967 -2.31494 94.1123 11.1366 86.2904L149.443 6.48256C162.895 -1.33935 183.561 -2.19488 195.179 4.52707L341.19 88.857C352.807 95.579 351.339 107.434 337.888 115.256L199.581 195.064C186.13 202.764 165.585 203.619 153.846 196.897Z" transform="translate(0 163.522)" fill="url(#paint70_linear)"/>
<path d="M153.846 196.897L7.83489 112.689C-3.78239 105.967 -2.31494 94.1123 11.1366 86.2904L149.443 6.48256C162.895 -1.33935 183.561 -2.19488 195.179 4.52707L341.19 88.857C352.807 95.579 351.339 107.434 337.888 115.256L199.581 195.064C186.13 202.764 165.585 203.619 153.846 196.897Z" transform="translate(0 162.911)" fill="url(#paint71_linear)"/>
<path d="M153.846 196.897L7.83489 112.689C-3.78239 105.967 -2.31494 94.1123 11.1366 86.2904L149.443 6.48256C162.895 -1.33935 183.561 -2.19488 195.179 4.52707L341.19 88.857C352.807 95.579 351.339 107.434 337.888 115.256L199.581 195.064C186.13 202.764 165.585 203.619 153.846 196.897Z" transform="translate(0 162.3)" fill="url(#paint72_linear)"/>
<path d="M153.846 196.897L7.83489 112.689C-3.78239 105.967 -2.31494 94.1123 11.1366 86.2904L149.443 6.48256C162.895 -1.33935 183.561 -2.19488 195.179 4.52707L341.19 88.857C352.807 95.5789 351.339 107.434 337.888 115.256L199.581 195.064C186.13 202.886 165.585 203.741 153.846 196.897Z" transform="translate(0 161.688)" fill="url(#paint73_linear)"/>
<path d="M153.846 197.019L7.83489 112.689C-3.78239 105.967 -2.31494 94.1123 11.1366 86.2904L149.443 6.48256C162.895 -1.33935 183.561 -2.19488 195.179 4.52707L341.19 88.857C352.807 95.579 351.339 107.434 337.888 115.256L199.581 195.064C186.13 202.886 165.585 203.741 153.846 197.019Z" transform="translate(0 161.077)" fill="url(#paint74_linear)"/>
<path d="M153.846 197.019L7.83489 112.689C-3.78239 105.967 -2.31494 94.1123 11.1366 86.2904L149.443 6.48256C162.895 -1.33935 183.561 -2.19488 195.179 4.52707L341.19 88.9792C352.807 95.7012 351.339 107.556 337.888 115.378L199.581 195.186C186.13 202.886 165.585 203.741 153.846 197.019Z" transform="translate(0 160.466)" fill="url(#paint75_linear)"/>
<path d="M153.846 196.897L7.83489 112.689C-3.78239 105.967 -2.31494 94.1124 11.1366 86.2904L149.443 6.48255C162.895 -1.33936 183.561 -2.19487 195.179 4.52708L341.19 88.857C352.807 95.579 351.339 107.434 337.888 115.256L199.581 195.064C186.13 202.764 165.585 203.619 153.846 196.897Z" transform="translate(0 159.977)" fill="url(#paint76_linear)"/>
<path d="M153.846 196.897L7.83489 112.689C-3.78239 105.967 -2.31494 94.1124 11.1366 86.2904L149.443 6.48255C162.895 -1.33936 183.561 -2.19487 195.179 4.52708L341.19 88.857C352.807 95.579 351.339 107.434 337.888 115.256L199.581 195.064C186.13 202.764 165.585 203.619 153.846 196.897Z" transform="translate(0 159.366)" fill="url(#paint77_linear)"/>
<path d="M153.846 196.897L7.83489 112.689C-3.78239 105.967 -2.31494 94.1124 11.1366 86.2904L149.443 6.48255C162.895 -1.33936 183.561 -2.19487 195.179 4.52708L341.19 88.857C352.807 95.579 351.339 107.434 337.888 115.256L199.581 195.064C186.13 202.764 165.585 203.619 153.846 196.897Z" transform="translate(0 158.755)" fill="url(#paint78_linear)"/>
<path d="M153.846 196.897L7.83489 112.689C-3.78239 105.967 -2.31494 94.1124 11.1366 86.2904L149.443 6.48255C162.895 -1.33936 183.561 -2.19487 195.179 4.52708L341.19 88.857C352.807 95.579 351.339 107.434 337.888 115.256L199.581 195.064C186.13 202.764 165.585 203.619 153.846 196.897Z" transform="translate(0 158.144)" fill="url(#paint79_linear)"/>
<path d="M153.846 196.897L7.83489 112.689C-3.78239 105.967 -2.31494 94.1123 11.1366 86.2904L149.443 6.48255C162.895 -1.33936 183.561 -2.19487 195.179 4.52708L341.19 88.857C352.807 95.579 351.339 107.434 337.888 115.256L199.581 195.064C186.13 202.886 165.585 203.741 153.846 196.897Z" transform="translate(0 157.533)" fill="url(#paint80_linear)"/>
<path d="M153.846 197.019L7.83489 112.689C-3.78239 105.967 -2.31494 94.1124 11.1366 86.2904L149.443 6.48255C162.895 -1.33936 183.561 -2.19487 195.179 4.52708L341.19 88.857C352.807 95.579 351.339 107.434 337.888 115.256L199.581 195.064C186.13 202.886 165.585 203.741 153.846 197.019Z" transform="translate(0 156.922)" fill="url(#paint81_linear)"/>
<path d="M153.846 196.897L7.83489 112.689C-3.78239 105.967 -2.31494 94.1124 11.1366 86.2905L149.443 6.48255C162.895 -1.33935 183.561 -2.19488 195.179 4.52707L341.19 88.857C352.807 95.579 351.339 107.434 337.888 115.256L199.581 195.064C186.13 202.764 165.585 203.619 153.846 196.897Z" transform="translate(0 156.433)" fill="url(#paint82_linear)"/>
<path d="M153.846 196.897L7.83489 112.689C-3.78239 105.967 -2.31494 94.1124 11.1366 86.2904L149.443 6.48255C162.895 -1.33935 183.561 -2.19488 195.179 4.52707L341.19 88.857C352.807 95.5789 351.339 107.434 337.888 115.256L199.581 194.942C186.13 202.764 165.585 203.619 153.846 196.897Z" transform="translate(0 155.822)" fill="url(#paint83_linear)"/>
<path d="M153.846 196.897L7.83489 112.689C-3.78239 105.967 -2.31494 94.1124 11.1366 86.2905L149.443 6.48255C162.895 -1.33935 183.561 -2.19488 195.179 4.52707L341.19 88.857C352.807 95.579 351.339 107.434 337.888 115.256L199.581 195.064C186.13 202.764 165.585 203.619 153.846 196.897Z" transform="translate(0 155.211)" fill="url(#paint84_linear)"/>
<path d="M153.846 196.897L7.83489 112.689C-3.78239 105.967 -2.31494 94.1124 11.1366 86.2905L149.443 6.48255C162.895 -1.33935 183.561 -2.19488 195.179 4.52707L341.19 88.857C352.807 95.579 351.339 107.434 337.888 115.256L199.581 195.064C186.13 202.764 165.585 203.619 153.846 196.897Z" transform="translate(0 154.6)" fill="url(#paint85_linear)"/>
<path d="M153.846 196.897L7.83489 112.689C-3.78239 105.967 -2.31494 94.1124 11.1366 86.2904L149.443 6.48255C162.895 -1.33935 183.561 -2.19488 195.179 4.52707L341.19 88.857C352.807 95.5789 351.339 107.434 337.888 115.256L199.581 195.064C186.13 202.886 165.585 203.741 153.846 196.897Z" transform="translate(0 153.989)" fill="url(#paint86_linear)"/>
<path d="M153.846 197.019L7.83489 112.689C-3.78239 105.967 -2.31494 94.1124 11.1366 86.2905L149.443 6.48255C162.895 -1.33935 183.561 -2.19488 195.179 4.52707L341.19 88.857C352.807 95.579 351.339 107.434 337.888 115.256L199.581 195.064C186.13 202.886 165.585 203.741 153.846 197.019Z" transform="translate(0 153.378)" fill="url(#paint87_linear)"/>
<path d="M153.846 197.019L7.83489 112.689C-3.78239 105.967 -2.31494 94.1124 11.1366 86.2904L149.443 6.48255C162.895 -1.33935 183.561 -2.19488 195.179 4.52707L341.19 88.9792C352.807 95.7012 351.339 107.556 337.888 115.378L199.581 195.186C186.13 202.886 165.585 203.741 153.846 197.019Z" transform="translate(0 152.767)" fill="url(#paint88_linear)"/>
<path d="M153.846 196.897L7.83489 112.689C-3.78239 105.967 -2.31494 94.1124 11.1366 86.2904L149.443 6.48254C162.895 -1.33936 183.561 -2.19487 195.179 4.52708L341.19 88.857C352.807 95.579 351.339 107.434 337.888 115.256L199.581 195.064C186.13 202.764 165.585 203.619 153.846 196.897Z" transform="translate(0 152.278)" fill="url(#paint89_linear)"/>
<path d="M153.846 196.897L7.83489 112.689C-3.78239 105.967 -2.31494 94.1124 11.1366 86.2904L149.443 6.48254C162.895 -1.33936 183.561 -2.19487 195.179 4.52708L341.19 88.857C352.807 95.579 351.339 107.434 337.888 115.256L199.581 195.064C186.13 202.764 165.585 203.619 153.846 196.897Z" transform="translate(0 151.667)" fill="url(#paint90_linear)"/>
<path d="M153.846 196.897L7.83489 112.689C-3.78239 105.967 -2.31494 94.1124 11.1366 86.2904L149.443 6.48254C162.895 -1.33936 183.561 -2.19487 195.179 4.52708L341.19 88.857C352.807 95.579 351.339 107.434 337.888 115.256L199.581 195.064C186.13 202.764 165.585 203.619 153.846 196.897Z" transform="translate(0 151.056)" fill="url(#paint91_linear)"/>
<path d="M153.846 196.897L7.83489 112.689C-3.78239 105.967 -2.31494 94.1124 11.1366 86.2904L149.443 6.48254C162.895 -1.33936 183.561 -2.19487 195.179 4.52708L341.19 88.857C352.807 95.579 351.339 107.434 337.888 115.256L199.581 195.064C186.13 202.886 165.585 203.619 153.846 196.897Z" transform="translate(0 150.444)" fill="url(#paint92_linear)"/>
<path d="M153.846 196.897L7.83489 112.567C-3.78239 105.845 -2.31494 93.9901 11.1366 86.1682L149.443 6.48255C162.895 -1.33936 183.561 -2.19488 195.179 4.52708L341.19 88.7348C352.807 95.4567 351.339 107.312 337.888 115.134L199.581 194.942C186.13 202.764 165.585 203.619 153.846 196.897Z" transform="translate(0 149.956)" fill="url(#paint93_linear)"/>
<path d="M153.846 197.019L7.83489 112.689C-3.78239 105.967 -2.31494 94.1123 11.1366 86.2904L149.443 6.48255C162.895 -1.33935 183.561 -2.19487 195.179 4.52708L341.19 88.9792C352.807 95.7012 351.339 107.556 337.888 115.378L199.581 195.186C186.13 202.886 165.585 203.741 153.846 197.019Z" transform="translate(0 149.222)" fill="url(#paint94_linear)"/>
<path d="M153.846 196.897L7.83489 112.689C-3.78239 105.967 -2.31494 94.1124 11.1366 86.2905L149.443 6.48255C162.895 -1.33936 183.561 -2.19488 195.179 4.52708L341.19 88.857C352.807 95.579 351.339 107.434 337.888 115.256L199.581 195.064C186.13 202.764 165.585 203.619 153.846 196.897Z" transform="translate(0 148.734)" fill="url(#paint95_linear)"/>
<path d="M153.846 196.897L7.83489 112.689C-3.78239 105.967 -2.31494 94.1124 11.1366 86.2905L149.443 6.48255C162.895 -1.33936 183.561 -2.19488 195.179 4.52708L341.19 88.857C352.807 95.579 351.339 107.434 337.888 115.256L199.581 195.064C186.13 202.764 165.585 203.619 153.846 196.897Z" transform="translate(0 148.122)" fill="url(#paint96_linear)"/>
<path d="M153.846 196.897L7.83489 112.689C-3.78239 105.967 -2.31494 94.1124 11.1366 86.2905L149.443 6.48255C162.895 -1.33936 183.561 -2.19488 195.179 4.52708L341.19 88.857C352.807 95.579 351.339 107.434 337.888 115.256L199.581 195.064C186.13 202.764 165.585 203.619 153.846 196.897Z" transform="translate(0 147.511)" fill="url(#paint97_linear)"/>
<path d="M153.846 196.897L7.83489 112.689C-3.78239 105.967 -2.31494 94.1124 11.1366 86.2905L149.443 6.48255C162.895 -1.33936 183.561 -2.19488 195.179 4.52708L341.19 88.857C352.807 95.579 351.339 107.434 337.888 115.256L199.581 195.064C186.13 202.764 165.585 203.619 153.846 196.897Z" transform="translate(0 146.9)" fill="url(#paint98_linear)"/>
<path d="M153.846 196.897L7.83489 112.689C-3.78239 105.967 -2.31494 94.1124 11.1366 86.2904L149.443 6.48255C162.895 -1.33936 183.561 -2.19488 195.179 4.52708L341.19 88.857C352.807 95.5789 351.339 107.434 337.888 115.256L199.581 195.064C186.13 202.886 165.585 203.741 153.846 196.897Z" transform="translate(0 146.289)" fill="url(#paint99_linear)"/>
<path d="M153.846 197.019L7.83489 112.689C-3.78239 105.967 -2.31494 94.1124 11.1366 86.2905L149.443 6.48255C162.895 -1.33936 183.561 -2.19488 195.179 4.52708L341.19 88.857C352.807 95.579 351.339 107.434 337.888 115.256L199.581 195.064C186.13 202.886 165.585 203.741 153.846 197.019Z" transform="translate(0 145.678)" fill="url(#paint100_linear)"/>
<path d="M153.846 196.897L7.83489 112.689C-3.78239 105.967 -2.31494 94.1124 11.1366 86.2905L149.443 6.48255C162.895 -1.33935 183.561 -2.19488 195.179 4.52707L341.19 88.857C352.807 95.579 351.339 107.434 337.888 115.256L199.581 195.064C186.13 202.764 165.585 203.619 153.846 196.897Z" transform="translate(0 144.823)" fill="#CADBE5"/>
<path d="M183.92 245.412L3.73191e-06 139.328V0L183.92 106.085V245.412Z" transform="translate(177.08)" fill="url(#paint101_linear)"/>
<path d="M183.92 245.412L7.46381e-06 139.328V0L183.92 106.085V245.412Z" transform="translate(159.715)" fill="url(#paint102_linear)"/>
<path d="M89.1473 153.627L0 102.296V-1.86489e-06L89.1473 51.4535V153.627Z" transform="translate(237.857 97.896)" fill="#D3D5E5"/>
<path d="M89.1473 153.749L7.46381e-06 102.296V1.86489e-06L89.1473 51.4535V153.749Z" transform="translate(193.344 125.151)" fill="#D3D5E5"/>
<path d="M44.5125 103.029L0 129.55V27.2545L44.5125 -3.72978e-06V103.029Z" transform="translate(282.492 149.349)" fill="#AEB2C4"/>
<path d="M89.1473 78.7079L133.66 51.4535L44.5125 -1.86489e-06L7.46381e-06 27.2545L89.1473 78.7079Z" transform="translate(193.345 97.896)" fill="#B9BDC9"/>
<path d="M78.9975 136.15L-3.73191e-06 90.563V-1.86489e-06L78.9975 45.587V136.15Z" transform="translate(198.358 133.95)" fill="#D3D5E5"/>
<path opacity="0.68" d="M72.5163 125.151L-7.46381e-06 83.23V-1.86489e-06L72.5163 41.9205V125.151Z" transform="translate(201.66 139.45)" fill="url(#paint103_linear)"/>
<path d="M16.7509 58.1839C26.0022 58.1839 33.5018 45.159 33.5018 29.092C33.5018 13.0249 26.0022 0 16.7509 0C7.49963 0 3.73136e-06 13.0249 3.73136e-06 29.092C3.73136e-06 45.159 7.49963 58.1839 16.7509 58.1839Z" transform="matrix(0.863426 -0.504485 0.504915 0.863174 208.718 185.378)" fill="#BBB8E8"/>
<path d="M-3.73191e-06 1.83326L3.30174 -3.72978e-06L75.818 41.9205V45.587L-3.73191e-06 1.83326Z" transform="translate(198.358 222.68)" fill="#AEB2C4"/>
<path d="M-3.73191e-06 -1.86489e-06L3.30174 1.83326V85.0632L-3.73191e-06 86.8965V-1.86489e-06Z" transform="translate(198.358 137.617)" fill="#AEB2C4"/>
<path d="M0.489148 6.11087C0.244574 6.11087 7.46381e-06 5.86642 7.46381e-06 5.62199V0.488865C7.46381e-06 0.244431 0.244574 3.72978e-06 0.489148 3.72978e-06C0.733723 3.72978e-06 0.978289 0.244431 0.978289 0.488865V5.62199C0.978289 5.98864 0.85601 6.11087 0.489148 6.11087Z" transform="translate(237.368 180.026)" fill="#808080"/>
<path d="M2.2337 6.75446C1.98913 6.75446 1.86683 6.63224 1.74454 6.38781L0.0325304 0.643598C-0.0897567 0.399164 0.154821 0.154729 0.399396 0.0325119C0.64397 -0.0897054 0.888544 0.154733 1.01083 0.399167L2.72284 6.14338C2.84513 6.38781 2.60055 6.63225 2.35598 6.75446H2.2337Z" transform="translate(230.242 177.549)" fill="#808080"/>
<path d="M3.59698 6.40592C3.4747 6.40592 3.23012 6.28371 3.23012 6.16149L0.0506455 0.661714C-0.0716416 0.41728 0.050653 0.172845 0.17294 0.0506278C0.417514 -0.0715895 0.662089 0.0506166 0.784376 0.172834L3.96385 5.67261C4.08614 5.91705 3.96384 6.16148 3.84155 6.2837C3.71927 6.40592 3.71927 6.40592 3.59698 6.40592Z" transform="translate(224.232 178.753)" fill="#808080"/>
<path d="M4.66583 5.34701C4.54354 5.34701 4.42125 5.347 4.29897 5.22478L0.141212 0.824974C-0.103362 0.58054 0.0189253 0.336098 0.141212 0.091663C0.385787 -0.0305543 0.63035 -0.0305543 0.874924 0.091663L5.0327 4.49149C5.27727 4.73593 5.15498 4.98035 5.0327 5.22478C4.91041 5.347 4.78812 5.34701 4.66583 5.34701Z" transform="translate(220.106 183.234)" fill="#808080"/>
<path d="M5.02479 3.55531C4.9025 3.55531 4.90251 3.55533 4.78022 3.43311L0.255601 0.866538C0.0110266 0.74432 -0.111268 0.499886 0.133306 0.255451C0.255593 0.0110166 0.622455 -0.11119 0.744742 0.133245L5.26938 2.6998C5.51395 2.82201 5.63623 3.06645 5.39166 3.31088C5.39166 3.55532 5.14708 3.55531 5.02479 3.55531Z" transform="translate(218.646 190.648)" fill="#808080"/>
<path d="M4.64691 1.3444C4.64691 1.3444 4.52463 1.3444 4.64691 1.3444L0.489141 0.977742C0.244567 0.977742 0 0.733296 0 0.488862C0 0.244427 0.244567 0 0.489141 0L4.64691 0.366656C4.89149 0.366656 5.13606 0.611083 5.13606 0.855517C5.01377 1.09995 4.89149 1.3444 4.64691 1.3444Z" transform="translate(220.125 199.825)" fill="#808080"/>
<path d="M0.417511 2.73941C0.295224 2.73941 0.0506455 2.61719 0.0506455 2.49498C-0.0716416 2.25054 0.050653 2.00611 0.17294 1.88389L3.35241 0.0506315C3.59699 -0.0715858 3.84156 0.0506203 3.96385 0.172838C4.08614 0.417272 3.96384 0.661707 3.84155 0.783924L0.662081 2.61718C0.539794 2.7394 0.539798 2.73941 0.417511 2.73941Z" transform="translate(224.232 207.23)" fill="#808080"/>
<path d="M0.537119 4.6922C0.414831 4.6922 0.414835 4.6922 0.292548 4.6922C0.0479738 4.56999 -0.0743096 4.32555 0.0479776 4.08112L1.75999 0.292374C1.88228 0.047939 2.12685 -0.0742746 2.37143 0.0479427C2.616 0.17016 2.73828 0.414595 2.616 0.659029L0.903984 4.44777C0.903984 4.56999 0.659406 4.6922 0.537119 4.6922Z" transform="translate(230.227 213.466)" fill="#808080"/>
<path d="M0.489148 6.11086C0.244574 6.11086 7.46381e-06 5.86643 7.46381e-06 5.622V0.488877C7.46381e-06 0.244442 0.244574 -3.72978e-06 0.489148 -3.72978e-06C0.733723 -3.72978e-06 0.978289 0.244442 0.978289 0.488877V5.622C0.978289 5.98865 0.733723 6.11086 0.489148 6.11086Z" transform="translate(237.368 217.791)" fill="#808080"/>
<path d="M2.23369 6.75446C1.98911 6.75446 1.86683 6.63224 1.74455 6.38781L0.0325342 0.643598C-0.089753 0.399164 0.154806 0.154729 0.399381 0.0325119C0.643955 -0.0897054 0.888529 0.154733 1.01082 0.399167L2.72285 6.14338C2.84513 6.38781 2.60056 6.63225 2.35598 6.75446C2.2337 6.75446 2.23369 6.75446 2.23369 6.75446Z" transform="translate(242.838 219.714)" fill="#808080"/>
<path d="M3.59698 6.40593C3.4747 6.40593 3.23012 6.28371 3.23012 6.1615L0.0506455 0.661718C-0.0716416 0.417283 0.050653 0.172849 0.17294 0.0506315C0.417514 -0.0715858 0.662089 0.0506203 0.784376 0.172838L3.96385 5.67262C4.08614 5.91705 3.96384 6.16148 3.84155 6.2837C3.84155 6.40592 3.71927 6.40593 3.59698 6.40593Z" transform="translate(247.467 218.841)" fill="#808080"/>
<path d="M4.66582 5.34701C4.54354 5.34701 4.42125 5.34701 4.29896 5.22479L0.141205 0.824959C-0.103369 0.580525 0.0189179 0.336101 0.141205 0.0916667C0.385779 -0.0305506 0.630361 -0.0305506 0.874935 0.0916667L5.03269 4.49148C5.27726 4.73591 5.15498 4.98035 5.03269 5.22479C4.9104 5.22479 4.78811 5.34701 4.66582 5.34701Z" transform="translate(250.555 215.378)" fill="#808080"/>
<path d="M5.0248 3.55532C4.90252 3.55532 4.90252 3.55531 4.78023 3.4331L0.255593 0.866545C0.0110191 0.744328 -0.111257 0.499893 0.133317 0.255459C0.255605 0.0110241 0.622466 -0.111201 0.744753 0.133234L5.26937 2.6998C5.51395 2.82202 5.63624 3.06646 5.39167 3.31089C5.39167 3.55533 5.26938 3.55532 5.0248 3.55532Z" transform="translate(251.542 209.714)" fill="#808080"/>
<path d="M4.64691 1.3444C4.64691 1.3444 4.52462 1.3444 4.64691 1.3444L0.489152 0.977742C0.244578 0.977742 -7.46381e-06 0.733296 -7.46381e-06 0.488862C-7.46381e-06 0.244427 0.244578 0 0.489152 0L4.64691 0.366656C4.89148 0.366656 5.13607 0.611083 5.13607 0.855517C5.01378 1.22217 4.89148 1.3444 4.64691 1.3444Z" transform="translate(250.574 202.881)" fill="#808080"/>
<path d="M0.417518 2.7394C0.295231 2.7394 0.050653 2.61719 0.050653 2.49497C-0.0716341 2.25054 0.0506604 2.0061 0.172948 1.88389L3.3524 0.0506278C3.59698 -0.0715895 3.84155 0.0506166 3.96384 0.172834C4.08612 0.417268 3.96385 0.661703 3.84156 0.78392L0.662089 2.7394C0.539801 2.7394 0.417518 2.7394 0.417518 2.7394Z" transform="translate(247.589 194.03)" fill="#808080"/>
<path d="M0.537122 4.6922C0.414835 4.6922 0.414839 4.6922 0.292552 4.6922C0.0479776 4.56998 -0.0743058 4.32554 0.0479813 4.08111L1.75999 0.292385C1.88228 0.0479502 2.12685 -0.0742634 2.37143 0.0479539C2.616 0.170171 2.73829 0.414606 2.616 0.65904L0.903987 4.44777C0.903987 4.56998 0.659409 4.6922 0.537122 4.6922Z" transform="translate(242.823 185.844)" fill="#808080"/>
<path d="M12.2269 42.2933C18.9797 42.2933 24.4539 32.8257 24.4539 21.1467C24.4539 9.46769 18.9797 0 12.2269 0C5.47418 0 0 9.46769 0 21.1467C0 32.8257 5.47418 42.2933 12.2269 42.2933Z" transform="matrix(0.863426 -0.504485 0.504915 0.863174 216.636 189.954)" fill="#D9D9F4"/>
<path d="M12.2269 42.2933C18.9797 42.2933 24.4539 32.8256 24.4539 21.1467C24.4539 9.46768 18.9797 -7.46064e-06 12.2269 -7.46064e-06C5.47418 -7.46064e-06 0 9.46768 0 21.1467C0 32.8256 5.47418 42.2933 12.2269 42.2933Z" transform="matrix(0.863426 -0.504485 0.504915 0.863174 214.788 191.023)" fill="#AAAAC1"/>
<path d="M18.8322 21.6325L3.73191e-06 10.7551L18.7099 7.45955e-06L37.6644 10.8773L18.8322 21.6325Z" transform="translate(194.201 240.89)" fill="#CED8F9"/>
<path d="M18.8322 21.7547L3.73191e-06 10.8773L18.7099 -3.72978e-06L37.6644 10.8773L18.8322 21.7547Z" transform="translate(194.2 270.956)" fill="#CED8F9"/>
<path d="M-3.73191e-06 10.7551V40.9428L18.8322 30.0655V0L-3.73191e-06 10.7551Z" transform="translate(213.033 251.768)" fill="url(#paint104_linear)"/>
<path d="M3.73191e-06 -7.45955e-06V30.1877L18.8322 41.065V10.8773L3.73191e-06 -7.45955e-06Z" transform="translate(194.2 251.645)" fill="url(#paint105_linear)"/>
<path d="M18.9545 21.7547L-7.46381e-06 10.8773L18.8322 -7.45955e-06L37.6644 10.8773L18.9545 21.7547Z" transform="translate(220.615 236.368)" fill="#CED8F9"/>
<path d="M18.9545 21.6325L-7.46381e-06 10.7551L18.8322 -7.45955e-06L37.6644 10.8773L18.9545 21.6325Z" transform="translate(220.615 286.477)" fill="#CED8F9"/>
<path d="M-7.46381e-06 10.8773V60.8642L18.7099 50.1091V3.72978e-06L-7.46381e-06 10.8773Z" transform="translate(239.569 247.246)" fill="url(#paint106_linear)"/>
<path d="M-7.46381e-06 3.72978e-06V49.9869L18.9545 60.8642V10.8773L-7.46381e-06 3.72978e-06Z" transform="translate(220.615 247.246)" fill="url(#paint107_linear)"/>
<path d="M-4.66488e-07 -7.45955e-06V4.15539V4.64425C-4.66488e-07 6.11086 0.85601 7.45525 2.69032 8.5552L4.40234 9.53295L10.8836 13.3217L106.879 68.8083C110.425 70.886 116.295 70.886 119.964 68.8083L122.043 67.5862L153.348 49.498L165.454 42.4094L165.944 42.165C165.944 42.165 167.166 41.5539 167.9 40.4539C168.023 40.3317 168.267 39.8428 168.389 39.5984C168.512 39.354 168.512 39.1095 168.512 38.4984V33.8542L165.944 36.9096L153.348 44.7315L121.309 63.1863L119.23 64.2863L106.879 63.9196L10.8836 8.433L-4.66488e-07 -7.45955e-06Z" transform="translate(18.8406 238.813)" fill="url(#paint108_linear)"/>
<path d="M10.853 40.3011L2.65975 35.5347C-0.886581 33.457 -0.886581 30.0349 2.65975 27.9572L48.3951 1.55827C52.0637 -0.519427 57.9335 -0.519427 61.4798 1.55827L69.3062 5.9581L69.5508 5.83587C69.7954 5.59144 70.4068 5.59144 70.6514 5.83587L73.9531 7.79136C74.1977 8.03579 74.1977 8.28022 73.9531 8.40244L73.7086 8.52465L78.8446 11.4579L79.0892 11.3356C79.3338 11.0912 79.9452 11.0912 80.1898 11.3356L86.7933 15.1244C87.0379 15.3688 87.0379 15.6133 86.7933 15.7355L86.5487 15.8577L87.6493 16.4688L87.8939 16.3466C88.1384 16.2243 88.6276 16.2243 88.8722 16.3466L95.5979 20.2575C95.8425 20.3797 95.8425 20.6242 95.5979 20.8686L95.3534 20.9908L165.668 61.6892C169.215 63.7669 169.215 67.189 165.668 69.2667L119.933 95.6656C116.264 97.7433 110.395 97.7433 106.848 95.6656L18.0679 44.3343L10.853 40.3011Z" transform="translate(18.8708 207.067)" fill="white"/>
<path opacity="0.68" d="M4.66488e-07 30.1877L52.2166 7.45955e-06L146.133 54.3867L94.0388 84.5744L4.66488e-07 30.1877Z" transform="translate(28.8679 212.781)" fill="url(#paint109_linear)"/>
<path d="M0.343797 7.58849C-0.0230648 7.34405 -0.14535 6.97741 0.221511 6.73297L11.5942 0.133245C11.9611 -0.11119 12.5725 0.0110166 12.9394 0.255451C13.3062 0.499886 13.4285 0.866534 13.0617 1.11097L1.68895 7.71071C1.32209 7.95515 0.710658 7.95514 0.343797 7.58849Z" transform="translate(43.688 221.202)" stroke="#CCCCCC" stroke-miterlimit="10"/>
<path d="M5.7475 6.59974C8.92696 6.59974 11.495 5.13312 11.495 3.29986C11.495 1.4666 8.92696 -3.72978e-06 5.7475 -3.72978e-06C2.56803 -3.72978e-06 -1.86595e-06 1.4666 -1.86595e-06 3.29986C-1.86595e-06 5.13312 2.56803 6.59974 5.7475 6.59974Z" transform="translate(150.544 283.178)" stroke="#CCCCCC" stroke-miterlimit="10"/>
<path d="M43.1368 4.27811C53.042 10.0223 53.042 19.1886 43.1368 24.8106C33.2315 30.4326 17.3342 30.4326 7.42894 24.6884C-2.47632 18.9442 -2.47632 9.77788 7.42894 4.15589C17.3342 -1.46611 33.3538 -1.34388 43.1368 4.27811Z" transform="translate(138.957 167.559)" fill="url(#paint110_linear)"/>
<path d="M50.6269 -7.45955e-06H-3.73191e-06V8.18857H50.6269V-7.45955e-06Z" transform="translate(139.049 174.037)" fill="url(#paint111_linear)"/>
<path d="M43.1368 4.32355C53.042 10.0678 53.042 19.2341 43.1368 24.8561C33.2315 30.4781 17.3342 30.4781 7.42894 24.7339C-2.47632 18.9896 -2.47632 9.82334 7.42894 4.20135C17.3342 -1.42065 33.3538 -1.42066 43.1368 4.32355Z" transform="translate(138.957 159.325)" fill="#C3CCFF"/>
<path d="M43.1368 4.2781C53.042 10.0223 53.042 19.1886 43.1368 24.8106C33.2315 30.4326 17.3342 30.4326 7.42895 24.6884C-2.47631 18.9442 -2.47631 9.77789 7.42895 4.15589C17.3342 -1.4661 33.3538 -1.3439 43.1368 4.2781Z" transform="translate(141.525 157.293)" fill="url(#paint112_linear)"/>
<path d="M50.26 -7.45955e-06H0V8.18857H50.26V-7.45955e-06Z" transform="translate(141.739 163.649)" fill="url(#paint113_linear)"/>
<path d="M43.1368 4.32356C53.042 10.0678 53.042 19.2341 43.1368 24.8561C33.2315 30.4781 17.3342 30.4781 7.42895 24.7338C-2.47631 18.9896 -2.47631 9.82334 7.42895 4.20134C17.3342 -1.42065 33.3538 -1.42065 43.1368 4.32356Z" transform="translate(141.525 149.059)" fill="#C3CCFF"/>
<path d="M43.1368 4.32356C53.042 10.0678 53.042 19.2341 43.1368 24.8561C33.2315 30.4781 17.3342 30.4781 7.42894 24.7338C-2.47632 18.9896 -2.47632 9.82334 7.42894 4.20134C17.3342 -1.42065 33.3538 -1.42065 43.1368 4.32356Z" transform="translate(138.957 142.948)" fill="url(#paint114_linear)"/>
<path d="M50.6269 3.72978e-06H-3.73191e-06V8.18856H50.6269V3.72978e-06Z" transform="translate(139.049 149.472)" fill="url(#paint115_linear)"/>
<path d="M43.1368 4.2319C53.042 9.97611 53.042 19.1424 43.1368 24.7644C33.2315 30.3864 17.3342 30.3864 7.42894 24.6422C-2.47632 18.898 -2.47632 9.73168 7.42894 4.10968C17.3342 -1.3901 33.3538 -1.3901 43.1368 4.2319Z" transform="translate(138.957 134.729)" fill="#C3CCFF"/>
<path d="M43.1368 4.2319C53.042 9.97611 53.042 19.1424 43.1368 24.7644C33.2315 30.3864 17.3342 30.3864 7.42894 24.6422C-2.47632 18.898 -2.47632 9.73168 7.42894 4.10968C17.2119 -1.3901 33.2315 -1.3901 43.1368 4.2319Z" transform="translate(140.058 131.674)" fill="url(#paint116_linear)"/>
<path d="M50.26 0H0V8.18856H50.26V0Z" transform="translate(140.149 137.983)" fill="url(#paint117_linear)"/>
<path d="M43.1368 4.2781C53.042 10.0223 53.042 19.1886 43.1368 24.8106C33.2315 30.4326 17.3342 30.4326 7.42894 24.6884C-2.47632 18.9442 -2.47632 9.77788 7.42894 4.15589C17.2119 -1.46611 33.2315 -1.34389 43.1368 4.2781Z" transform="translate(140.058 123.439)" fill="#8ED7F9"/>
<path d="M11.4884 39.8656C17.8333 39.8656 22.9769 30.9414 22.9769 19.9328C22.9769 8.92422 17.8333 -7.46381e-06 11.4884 -7.46381e-06C5.14354 -7.46381e-06 3.72978e-06 8.92422 3.72978e-06 19.9328C3.72978e-06 30.9414 5.14354 39.8656 11.4884 39.8656Z" transform="translate(148.505 249.951) rotate(-89.6892)" fill="#90908E"/>
<path d="M39.7433 -7.45955e-06H0V4.52205H39.7433V-7.45955e-06Z" transform="translate(148.587 234.535)" fill="#90908E"/>
<path d="M11.4884 39.8656C17.8333 39.8656 22.9769 30.9414 22.9769 19.9328C22.9769 8.92422 17.8333 -3.73191e-06 11.4884 -3.73191e-06C5.14354 -3.73191e-06 3.72978e-06 8.92422 3.72978e-06 19.9328C3.72978e-06 30.9414 5.14354 39.8656 11.4884 39.8656Z" transform="translate(148.448 246.096) rotate(-89.6892)" fill="#E6E6E6"/>
<path d="M11.244 38.8873C17.4539 38.8873 22.488 30.1821 22.488 19.4436C22.488 8.70522 17.4539 3.73191e-06 11.244 3.73191e-06C5.03411 3.73191e-06 7.45955e-06 8.70522 7.45955e-06 19.4436C7.45955e-06 30.1821 5.03411 38.8873 11.244 38.8873Z" transform="translate(149.015 244.773) rotate(-89.6892)" fill="#7DACB7"/>
<path opacity="0.74" d="M38.9088 36.543V19.0659C38.9088 8.5552 30.3487 3.72978e-06 19.4652 3.72978e-06C8.58163 3.72978e-06 0.0215324 8.55521 0.0215324 19.1881V36.543C-0.223042 39.5984 1.61126 42.7761 5.76902 45.0982C13.3508 49.498 25.7018 49.498 33.2836 45.0982C37.3191 42.7761 39.1534 39.5984 38.9088 36.543Z" transform="translate(149.055 196.526)" fill="url(#paint118_linear)"/>
<path opacity="0.89" d="M38.8873 -3.72978e-06V10.3885C38.8873 20.8992 30.3272 29.4544 19.4437 29.4544C8.5601 29.4544 1.86595e-06 20.8992 1.86595e-06 10.2663V-3.72978e-06" transform="translate(149.076 173.793)" fill="url(#paint119_linear)"/>
<path d="M11.4884 39.8656C17.8333 39.8656 22.9769 30.9414 22.9769 19.9328C22.9769 8.92422 17.8333 0 11.4884 0C5.14354 0 3.72978e-06 8.92422 3.72978e-06 19.9328C3.72978e-06 30.9414 5.14354 39.8656 11.4884 39.8656Z" transform="translate(148.425 184.643) rotate(-89.6892)" fill="#90908E"/>
<path d="M39.7433 0H0V4.52204H39.7433V0Z" transform="translate(148.587 169.271)" fill="#90908E"/>
<path d="M11.4884 39.8656C17.8333 39.8656 22.9769 30.9414 22.9769 19.9328C22.9769 8.92423 17.8333 3.73191e-06 11.4884 3.73191e-06C5.14354 3.73191e-06 3.72978e-06 8.92423 3.72978e-06 19.9328C3.72978e-06 30.9414 5.14354 39.8656 11.4884 39.8656Z" transform="translate(148.491 180.789) rotate(-89.6892)" fill="#E6E6E6"/>
<path d="M0.122291 2.56656L4.52463 3.72978e-06V6.47752L-3.73191e-06 9.04408L0.122291 2.56656Z" transform="translate(119.483 206.303)" fill="url(#paint120_linear)"/>
<path d="M21.1557 12.5884L16.7533 15.1549C15.4082 16.0105 13.207 15.6438 11.0058 14.2994C4.64691 10.6329 0.244571 3.05543 -3.73191e-06 2.56656L4.40234 7.45955e-06C4.64691 0.366659 8.92696 7.94412 15.4082 11.7329C17.7316 13.0772 19.8105 13.4439 21.1557 12.5884Z" transform="translate(106.643 187.115)" fill="url(#paint121_linear)"/>
<path d="M1.71202 2.56657L6.11436 -3.72978e-06C5.01377 0.611083 4.40233 1.83326 4.40233 3.66652C4.40233 13.4439 25.558 23.5879 25.4357 39.4762C25.4357 43.1427 24.2129 45.8315 22.134 47.0537L17.7316 49.6202C19.9328 48.3981 21.0334 45.7093 21.0334 42.0428C21.0334 26.2767 0 16.1327 0 6.23309C0 4.52204 0.611438 3.29987 1.71202 2.56657Z" transform="translate(110.067 159.738)" fill="url(#paint122_linear)"/>
<path d="M-3.73191e-06 3.42208L4.40234 0.855521C6.35893 -0.244435 9.17154 -0.366654 12.4733 0.977736L8.07095 3.5443C4.7692 2.19991 2.07888 2.32213 -3.73191e-06 3.42208Z" transform="translate(107.254 151.916)" fill="url(#paint123_linear)"/>
<path d="M1.86595e-06 2.68878L4.40234 -3.72978e-06L8.68239 2.56657L4.28005 5.13313L1.86595e-06 2.68878Z" transform="translate(115.448 146.294)" fill="url(#paint124_linear)"/>
<path d="M1.86595e-06 2.56657L4.40234 3.72978e-06V6.47751L1.86595e-06 9.04408V2.56657Z" transform="translate(119.728 148.861)" fill="url(#paint125_linear)"/>
<path d="M2.69032 2.56657L7.21494 0L4.40234 4.15538L-3.73191e-06 6.72195L2.69032 2.56657Z" transform="translate(127.432 166.215)" fill="url(#paint126_linear)"/>
<path d="M16.6311 2.44435V8.92186C23.4791 13.4439 26.9032 19.4326 27.0255 19.7992L24.2128 23.9546C23.9683 23.5879 20.2997 17.3549 14.7967 14.1772C10.1498 11.4884 6.97037 12.955 6.97037 16.866C6.97037 26.6434 28.126 36.7874 28.0037 52.6756C28.0037 59.642 23.6014 63.0641 16.3865 59.8865V66.364L12.1064 63.9196V57.4421C4.28005 52.0646 0.244578 44.4871 3.73191e-06 44.1204L3.42404 40.8206C3.66861 41.1872 7.94866 48.7647 14.4299 52.5534C18.4654 54.8756 21.8894 54.2645 21.8894 49.498C21.8894 39.2317 0.733723 28.7211 0.85601 13.6883C0.85601 6.84418 5.50292 3.78874 12.2287 6.59974V1.86489e-06L16.6311 2.44435Z" transform="translate(103.096 148.983)" fill="#8ED7F9"/>
<path d="M1.86595e-06 2.56656L4.40234 -1.86489e-06C11.2504 4.52204 14.6745 10.5107 14.7967 10.8773L10.3944 13.4439C10.2721 13.1995 6.84808 7.0886 1.86595e-06 2.56656Z" transform="translate(119.728 155.338)" fill="url(#paint127_linear)"/>
<defs>
<linearGradient id="paint0_linear" x2="1" gradientUnits="userSpaceOnUse" gradientTransform="matrix(1.73633 201.372 -203.512 0.578446 275.39 -0.238047)">
<stop stop-color="#B5CDDB"/>
<stop offset="1" stop-color="#B5CDDB"/>
</linearGradient>
<linearGradient id="paint1_linear" x2="1" gradientUnits="userSpaceOnUse" gradientTransform="matrix(3.48971 201.364 -205.508 1.16257 275.527 -0.498315)">
<stop stop-color="#B5CEDC"/>
<stop offset="1" stop-color="#B5CEDB"/>
</linearGradient>
<linearGradient id="paint2_linear" x2="1" gradientUnits="userSpaceOnUse" gradientTransform="matrix(5.26018 201.327 -207.536 1.75239 275.64 -0.764344)">
<stop stop-color="#B6CEDC"/>
<stop offset="1" stop-color="#B6CEDC"/>
</linearGradient>
<linearGradient id="paint3_linear" x2="1" gradientUnits="userSpaceOnUse" gradientTransform="matrix(7.04773 201.301 -209.554 2.3479 275.771 -1.02133)">
<stop stop-color="#B7CFDC"/>
<stop offset="1" stop-color="#B6CEDC"/>
</linearGradient>
<linearGradient id="paint4_linear" x2="1" gradientUnits="userSpaceOnUse" gradientTransform="matrix(8.8524 201.246 -211.603 2.94912 275.878 -1.2839)">
<stop stop-color="#B8CFDD"/>
<stop offset="1" stop-color="#B7CFDC"/>
</linearGradient>
<linearGradient id="paint5_linear" x2="1" gradientUnits="userSpaceOnUse" gradientTransform="matrix(10.6742 201.203 -213.642 3.55605 276.002 -1.66005)">
<stop stop-color="#B8D0DD"/>
<stop offset="1" stop-color="#B7CFDC"/>
</linearGradient>
<linearGradient id="paint6_linear" x2="1" gradientUnits="userSpaceOnUse" gradientTransform="matrix(12.5132 201.13 -215.713 4.16869 276.103 -1.91915)">
<stop stop-color="#B9D0DD"/>
<stop offset="1" stop-color="#B8CFDD"/>
</linearGradient>
<linearGradient id="paint7_linear" x2="1" gradientUnits="userSpaceOnUse" gradientTransform="matrix(14.3694 201.068 -217.774 4.78706 276.221 -2.16978)">
<stop stop-color="#BAD1DE"/>
<stop offset="1" stop-color="#B8D0DD"/>
</linearGradient>
<linearGradient id="paint8_linear" x2="1" gradientUnits="userSpaceOnUse" gradientTransform="matrix(16.2427 200.976 -219.866 5.41116 276.315 -2.42539)">
<stop stop-color="#BBD1DE"/>
<stop offset="1" stop-color="#B9D0DD"/>
</linearGradient>
<linearGradient id="paint9_linear" x2="1" gradientUnits="userSpaceOnUse" gradientTransform="matrix(18.1333 200.897 -221.948 6.041 276.426 -2.67271)">
<stop stop-color="#BBD2DF"/>
<stop offset="1" stop-color="#BAD0DD"/>
</linearGradient>
<linearGradient id="paint10_linear" x2="1" gradientUnits="userSpaceOnUse" gradientTransform="matrix(20.0412 200.787 -224.062 6.67658 276.514 -2.92494)">
<stop stop-color="#BCD2DF"/>
<stop offset="1" stop-color="#BAD0DD"/>
</linearGradient>
<linearGradient id="paint11_linear" x2="1" gradientUnits="userSpaceOnUse" gradientTransform="matrix(21.9676 200.689 -226.166 7.31792 276.619 -3.16894)">
<stop stop-color="#BDD3DF"/>
<stop offset="1" stop-color="#BBD1DE"/>
</linearGradient>
<linearGradient id="paint12_linear" x2="1" gradientUnits="userSpaceOnUse" gradientTransform="matrix(23.9154 200.561 -228.301 7.96502 276.702 -3.53989)">
<stop stop-color="#BED3E0"/>
<stop offset="1" stop-color="#BBD1DE"/>
</linearGradient>
<linearGradient id="paint13_linear" x2="1" gradientUnits="userSpaceOnUse" gradientTransform="matrix(25.8591 200.444 -230.426 8.61787 276.796 -3.78044)">
<stop stop-color="#BED4E0"/>
<stop offset="1" stop-color="#BCD1DE"/>
</linearGradient>
<linearGradient id="paint14_linear" x2="1" gradientUnits="userSpaceOnUse" gradientTransform="matrix(27.8416 200.297 -232.583 9.27651 276.872 -4.02565)">
<stop stop-color="#BFD4E0"/>
<stop offset="1" stop-color="#BCD2DE"/>
</linearGradient>
<linearGradient id="paint15_linear" x2="1" gradientUnits="userSpaceOnUse" gradientTransform="matrix(29.8415 200.163 -234.73 9.94091 276.965 -4.26298)">
<stop stop-color="#C0D5E1"/>
<stop offset="1" stop-color="#BDD2DE"/>
</linearGradient>
<linearGradient id="paint16_linear" x2="1" gradientUnits="userSpaceOnUse" gradientTransform="matrix(31.8588 199.997 -236.908 10.6111 277.035 -4.50443)">
<stop stop-color="#C1D5E1"/>
<stop offset="1" stop-color="#BDD2DF"/>
</linearGradient>
<linearGradient id="paint17_linear" x2="1" gradientUnits="userSpaceOnUse" gradientTransform="matrix(33.8715 199.844 -239.076 11.2871 277.116 -4.73841)">
<stop stop-color="#C1D6E1"/>
<stop offset="1" stop-color="#BED3DF"/>
</linearGradient>
<linearGradient id="paint18_linear" x2="1" gradientUnits="userSpaceOnUse" gradientTransform="matrix(35.9236 199.66 -241.277 11.9688 277.179 -5.09842)">
<stop stop-color="#C2D6E2"/>
<stop offset="1" stop-color="#BFD3DF"/>
</linearGradient>
<linearGradient id="paint19_linear" x2="1" gradientUnits="userSpaceOnUse" gradientTransform="matrix(37.9931 199.488 -243.466 12.6564 277.259 -5.32904)">
<stop stop-color="#C3D7E2"/>
<stop offset="1" stop-color="#BFD3DF"/>
</linearGradient>
<linearGradient id="paint20_linear" x2="1" gradientUnits="userSpaceOnUse" gradientTransform="matrix(40.0801 199.285 -245.688 13.3498 277.315 -5.56329)">
<stop stop-color="#C4D7E2"/>
<stop offset="1" stop-color="#C0D4E0"/>
</linearGradient>
<linearGradient id="paint21_linear" x2="1" gradientUnits="userSpaceOnUse" gradientTransform="matrix(42.1622 199.095 -247.899 14.049 277.383 -5.79031)">
<stop stop-color="#C4D8E3"/>
<stop offset="1" stop-color="#C0D4E0"/>
</linearGradient>
<linearGradient id="paint22_linear" x2="1" gradientUnits="userSpaceOnUse" gradientTransform="matrix(44.2841 198.873 -250.143 14.754 277.433 -6.02089)">
<stop stop-color="#C5D8E3"/>
<stop offset="1" stop-color="#C1D4E0"/>
</linearGradient>
<linearGradient id="paint23_linear" x2="1" gradientUnits="userSpaceOnUse" gradientTransform="matrix(46.4236 198.664 -252.375 15.4648 277.498 -6.24442)">
<stop stop-color="#C6D9E4"/>
<stop offset="1" stop-color="#C1D5E0"/>
</linearGradient>
<linearGradient id="paint24_linear" x2="1" gradientUnits="userSpaceOnUse" gradientTransform="matrix(48.5805 198.423 -254.64 16.1815 277.542 -6.47132)">
<stop stop-color="#C7D9E4"/>
<stop offset="1" stop-color="#C2D5E0"/>
</linearGradient>
<linearGradient id="paint25_linear" x2="1" gradientUnits="userSpaceOnUse" gradientTransform="matrix(50.7323 198.196 -256.894 16.9039 277.596 -6.81368)">
<stop stop-color="#C7DAE4"/>
<stop offset="1" stop-color="#C2D5E1"/>
</linearGradient>
<linearGradient id="paint26_linear" x2="1" gradientUnits="userSpaceOnUse" gradientTransform="matrix(52.9243 197.936 -259.181 17.6323 277.632 -7.03688)">
<stop stop-color="#C8DAE5"/>
<stop offset="1" stop-color="#C3D6E1"/>
</linearGradient>
<linearGradient id="paint27_linear" x2="1" gradientUnits="userSpaceOnUse" gradientTransform="matrix(55.1339 197.689 -261.455 18.3664 277.685 -7.25341)">
<stop stop-color="#C9DBE5"/>
<stop offset="1" stop-color="#C4D6E1"/>
</linearGradient>
<linearGradient id="paint28_linear" x2="1" gradientUnits="userSpaceOnUse" gradientTransform="matrix(57.3611 197.41 -263.764 19.1064 277.715 -7.4728)">
<stop stop-color="#CADBE5"/>
<stop offset="1" stop-color="#C4D6E1"/>
</linearGradient>
<linearGradient id="paint29_linear" x2="1" gradientUnits="userSpaceOnUse" gradientTransform="matrix(59.5827 197.145 -266.06 19.8523 277.755 -7.80803)">
<stop stop-color="#CADCE6"/>
<stop offset="1" stop-color="#C5D7E2"/>
</linearGradient>
<linearGradient id="paint30_linear" x2="1" gradientUnits="userSpaceOnUse" gradientTransform="matrix(61.845 196.847 -268.391 20.604 277.778 -7.90149)">
<stop stop-color="#CBDCE6"/>
<stop offset="1" stop-color="#C5D7E2"/>
</linearGradient>
<linearGradient id="paint31_linear" x2="1" gradientUnits="userSpaceOnUse" gradientTransform="matrix(64.125 196.563 -270.709 21.3616 277.817 -8.2332)">
<stop stop-color="#CCDDE6"/>
<stop offset="1" stop-color="#C6D7E2"/>
</linearGradient>
<linearGradient id="paint32_linear" x2="1" gradientUnits="userSpaceOnUse" gradientTransform="matrix(66.4226 196.245 -273.06 22.125 277.833 -8.44505)">
<stop stop-color="#CDDDE7"/>
<stop offset="1" stop-color="#C6D7E2"/>
</linearGradient>
<linearGradient id="paint33_linear" x2="1" gradientUnits="userSpaceOnUse" gradientTransform="matrix(68.7144 195.942 -275.4 22.8943 277.86 -8.65089)">
<stop stop-color="#CDDEE7"/>
<stop offset="1" stop-color="#C7D8E2"/>
</linearGradient>
<linearGradient id="paint34_linear" x2="1" gradientUnits="userSpaceOnUse" gradientTransform="matrix(71.0473 195.606 -277.773 23.661 277.869 -8.86575)">
<stop stop-color="#CEDEE7"/>
<stop offset="1" stop-color="#C7D8E3"/>
</linearGradient>
<linearGradient id="paint35_linear" x2="1" gradientUnits="userSpaceOnUse" gradientTransform="matrix(73.3979 195.283 -280.134 24.452 277.894 -9.06015)">
<stop stop-color="#CFDFE8"/>
<stop offset="1" stop-color="#C8D8E3"/>
</linearGradient>
<linearGradient id="paint36_linear" x2="1" gradientUnits="userSpaceOnUse" gradientTransform="matrix(75.7661 194.927 -282.529 25.2489 277.896 -9.25692)">
<stop stop-color="#CFDFE8"/>
<stop offset="1" stop-color="#C9D9E3"/>
</linearGradient>
<linearGradient id="paint37_linear" x2="1" gradientUnits="userSpaceOnUse" gradientTransform="matrix(78.1282 194.586 -284.911 26.0279 277.91 -9.58827)">
<stop stop-color="#D0E0E9"/>
<stop offset="1" stop-color="#C9D9E3"/>
</linearGradient>
<linearGradient id="paint38_linear" x2="1" gradientUnits="userSpaceOnUse" gradientTransform="matrix(80.5318 194.211 -287.328 26.8366 277.906 -9.78123)">
<stop stop-color="#D1E0E9"/>
<stop offset="1" stop-color="#CAD9E3"/>
</linearGradient>
<linearGradient id="paint39_linear" x2="1" gradientUnits="userSpaceOnUse" gradientTransform="matrix(82.9532 193.85 -289.732 27.6272 277.916 -9.9865)">
<stop stop-color="#D2E1E9"/>
<stop offset="1" stop-color="#CADAE4"/>
</linearGradient>
<linearGradient id="paint40_linear" x2="1" gradientUnits="userSpaceOnUse" gradientTransform="matrix(85.3924 193.455 -292.17 28.4479 277.905 -10.1757)">
<stop stop-color="#D2E1EA"/>
<stop offset="1" stop-color="#CBDAE4"/>
</linearGradient>
<linearGradient id="paint41_linear" x2="1" gradientUnits="userSpaceOnUse" gradientTransform="matrix(87.8249 193.075 -294.595 29.2501 277.904 -10.3773)">
<stop stop-color="#D3E2EA"/>
<stop offset="1" stop-color="#CBDAE4"/>
</linearGradient>
<linearGradient id="paint42_linear" x2="1" gradientUnits="userSpaceOnUse" gradientTransform="matrix(90.2995 192.661 -297.055 30.0827 277.886 -10.5626)">
<stop stop-color="#D4E2EA"/>
<stop offset="1" stop-color="#CCDBE4"/>
</linearGradient>
<linearGradient id="paint43_linear" x2="1" gradientUnits="userSpaceOnUse" gradientTransform="matrix(92.7919 192.262 -299.502 30.9212 277.882 -10.7426)">
<stop stop-color="#D5E3EB"/>
<stop offset="1" stop-color="#CCDBE5"/>
</linearGradient>
<linearGradient id="paint44_linear" x2="1" gradientUnits="userSpaceOnUse" gradientTransform="matrix(95.3021 191.828 -301.983 31.741 277.857 -11.064)">
<stop stop-color="#D5E3EB"/>
<stop offset="1" stop-color="#CDDBE5"/>
</linearGradient>
<linearGradient id="paint45_linear" x2="1" gradientUnits="userSpaceOnUse" gradientTransform="matrix(97.8053 191.41 -304.451 32.5914 277.843 -11.2403)">
<stop stop-color="#D6E4EB"/>
<stop offset="1" stop-color="#CEDCE5"/>
</linearGradient>
<linearGradient id="paint46_linear" x2="1" gradientUnits="userSpaceOnUse" gradientTransform="matrix(100.351 190.956 -306.955 33.423 277.811 -11.4355)">
<stop stop-color="#D7E4EC"/>
<stop offset="1" stop-color="#CEDCE5"/>
</linearGradient>
<linearGradient id="paint47_linear" x2="1" gradientUnits="userSpaceOnUse" gradientTransform="matrix(102.915 190.518 -309.444 34.2853 277.793 -11.6082)">
<stop stop-color="#D8E5EC"/>
<stop offset="1" stop-color="#CFDCE5"/>
</linearGradient>
<linearGradient id="paint48_linear" x2="1" gradientUnits="userSpaceOnUse" gradientTransform="matrix(105.496 190.045 -311.969 35.1536 277.754 -11.782)">
<stop stop-color="#D8E5EC"/>
<stop offset="1" stop-color="#CFDDE6"/>
</linearGradient>
<linearGradient id="paint49_linear" x2="1" gradientUnits="userSpaceOnUse" gradientTransform="matrix(108.07 189.588 -314.48 36.0028 277.726 -11.9683)">
<stop stop-color="#D9E6ED"/>
<stop offset="1" stop-color="#D0DDE6"/>
</linearGradient>
<linearGradient id="paint50_linear" x2="1" gradientUnits="userSpaceOnUse" gradientTransform="matrix(110.687 189.095 -317.026 36.8831 277.68 -12.2604)">
<stop stop-color="#DAE6ED"/>
<stop offset="1" stop-color="#D0DDE6"/>
</linearGradient>
<linearGradient id="paint51_linear" x2="1" gradientUnits="userSpaceOnUse" gradientTransform="matrix(113.322 188.618 -319.558 37.744 277.647 -12.4429)">
<stop stop-color="#DBE7EE"/>
<stop offset="1" stop-color="#D1DDE6"/>
</linearGradient>
<linearGradient id="paint52_linear" x2="1" gradientUnits="userSpaceOnUse" gradientTransform="matrix(115.949 188.106 -322.127 38.6362 277.592 -12.6089)">
<stop stop-color="#DBE7EE"/>
<stop offset="1" stop-color="#D1DEE7"/>
</linearGradient>
<linearGradient id="paint53_linear" x2="1" gradientUnits="userSpaceOnUse" gradientTransform="matrix(118.62 187.609 -324.68 39.5088 277.552 -12.7874)">
<stop stop-color="#DCE8EE"/>
<stop offset="1" stop-color="#D2DEE7"/>
</linearGradient>
<linearGradient id="paint54_linear" x2="1" gradientUnits="userSpaceOnUse" gradientTransform="matrix(121.308 187.077 -327.27 40.413 277.492 -12.9494)">
<stop stop-color="#DDE8EF"/>
<stop offset="1" stop-color="#D2DEE7"/>
</linearGradient>
<linearGradient id="paint55_linear" x2="1" gradientUnits="userSpaceOnUse" gradientTransform="matrix(124.015 186.561 -329.845 41.3232 277.445 -13.1074)">
<stop stop-color="#DEE9EF"/>
<stop offset="1" stop-color="#D3DFE7"/>
</linearGradient>
<linearGradient id="paint56_linear" x2="1" gradientUnits="userSpaceOnUse" gradientTransform="matrix(126.713 186.009 -332.456 42.2136 277.376 -13.2821)">
<stop stop-color="#DEE9EF"/>
<stop offset="1" stop-color="#D4DFE7"/>
</linearGradient>
<linearGradient id="paint57_linear" x2="1" gradientUnits="userSpaceOnUse" gradientTransform="matrix(129.455 185.473 -335.053 43.1358 277.322 -13.5587)">
<stop stop-color="#DFEAF0"/>
<stop offset="1" stop-color="#D4DFE8"/>
</linearGradient>
<linearGradient id="paint58_linear" x2="1" gradientUnits="userSpaceOnUse" gradientTransform="matrix(132.215 184.902 -337.686 44.0379 277.247 -13.7292)">
<stop stop-color="#E0EAF0"/>
<stop offset="1" stop-color="#D5E0E8"/>
</linearGradient>
<linearGradient id="paint59_linear" x2="1" gradientUnits="userSpaceOnUse" gradientTransform="matrix(134.993 184.346 -340.304 44.9721 277.186 -13.8797)">
<stop stop-color="#E1EBF0"/>
<stop offset="1" stop-color="#D5E0E8"/>
</linearGradient>
<linearGradient id="paint60_linear" x2="1" gradientUnits="userSpaceOnUse" gradientTransform="matrix(137.763 183.755 -342.959 45.886 277.103 -14.0461)">
<stop stop-color="#E1EBF1"/>
<stop offset="1" stop-color="#D6E0E8"/>
</linearGradient>
<linearGradient id="paint61_linear" x2="1" gradientUnits="userSpaceOnUse" gradientTransform="matrix(140.577 183.179 -345.598 46.8322 277.034 -14.1928)">
<stop stop-color="#E2ECF1"/>
<stop offset="1" stop-color="#D6E1E9"/>
</linearGradient>
<linearGradient id="paint62_linear" x2="1" gradientUnits="userSpaceOnUse" gradientTransform="matrix(143.409 182.568 -348.274 47.7844 276.946 -14.4611)">
<stop stop-color="#E3ECF1"/>
<stop offset="1" stop-color="#D7E1E9"/>
</linearGradient>
<linearGradient id="paint63_linear" x2="1" gradientUnits="userSpaceOnUse" gradientTransform="matrix(146.258 181.973 -350.935 48.7161 276.87 -14.6202)">
<stop stop-color="#E4EDF2"/>
<stop offset="1" stop-color="#D7E1E9"/>
</linearGradient>
<linearGradient id="paint64_linear" x2="1" gradientUnits="userSpaceOnUse" gradientTransform="matrix(149.099 181.341 -353.633 49.6803 276.773 -14.7623)">
<stop stop-color="#E4EDF2"/>
<stop offset="1" stop-color="#D8E2E9"/>
</linearGradient>
<linearGradient id="paint65_linear" x2="1" gradientUnits="userSpaceOnUse" gradientTransform="matrix(151.985 180.726 -356.315 50.6238 276.689 -14.9173)">
<stop stop-color="#E5EEF3"/>
<stop offset="1" stop-color="#D9E2E9"/>
</linearGradient>
<linearGradient id="paint66_linear" x2="1" gradientUnits="userSpaceOnUse" gradientTransform="matrix(154.889 180.075 -359.034 51.6001 276.587 -15.0554)">
<stop stop-color="#E6EEF3"/>
<stop offset="1" stop-color="#D9E2EA"/>
</linearGradient>
<linearGradient id="paint67_linear" x2="1" gradientUnits="userSpaceOnUse" gradientTransform="matrix(157.81 179.44 -361.738 52.5824 276.496 -15.1909)">
<stop stop-color="#E6EFF3"/>
<stop offset="1" stop-color="#DAE3EA"/>
</linearGradient>
<linearGradient id="paint68_linear" x2="1" gradientUnits="userSpaceOnUse" gradientTransform="matrix(160.723 178.769 -364.479 53.5437 276.385 -15.3406)">
<stop stop-color="#E7EFF4"/>
<stop offset="1" stop-color="#DAE3EA"/>
</linearGradient>
<linearGradient id="paint69_linear" x2="1" gradientUnits="userSpaceOnUse" gradientTransform="matrix(163.68 178.114 -367.204 54.5381 276.287 -15.5943)">
<stop stop-color="#E8F0F4"/>
<stop offset="1" stop-color="#DBE3EA"/>
</linearGradient>
<linearGradient id="paint70_linear" x2="1" gradientUnits="userSpaceOnUse" gradientTransform="matrix(166.656 177.422 -369.967 55.5112 276.17 -15.7398)">
<stop stop-color="#E9F0F4"/>
<stop offset="1" stop-color="#DBE3EA"/>
</linearGradient>
<linearGradient id="paint71_linear" x2="1" gradientUnits="userSpaceOnUse" gradientTransform="matrix(169.65 176.748 -372.713 56.5176 276.064 -15.8675)">
<stop stop-color="#E9F1F5"/>
<stop offset="1" stop-color="#DCE4EB"/>
</linearGradient>
<linearGradient id="paint72_linear" x2="1" gradientUnits="userSpaceOnUse" gradientTransform="matrix(172.634 176.036 -375.497 57.5026 275.94 -16.0088)">
<stop stop-color="#EAF1F5"/>
<stop offset="1" stop-color="#DCE4EB"/>
</linearGradient>
<linearGradient id="paint73_linear" x2="1" gradientUnits="userSpaceOnUse" gradientTransform="matrix(175.664 175.342 -378.265 58.5211 275.827 -16.1327)">
<stop stop-color="#EBF2F5"/>
<stop offset="1" stop-color="#DDE4EB"/>
</linearGradient>
<linearGradient id="paint74_linear" x2="1" gradientUnits="userSpaceOnUse" gradientTransform="matrix(178.711 174.61 -381.071 59.5457 275.695 -16.2546)">
<stop stop-color="#ECF2F6"/>
<stop offset="1" stop-color="#DEE5EB"/>
</linearGradient>
<linearGradient id="paint75_linear" x2="1" gradientUnits="userSpaceOnUse" gradientTransform="matrix(181.777 173.896 -383.86 60.5485 275.575 -16.3897)">
<stop stop-color="#ECF3F6"/>
<stop offset="1" stop-color="#DEE5EC"/>
</linearGradient>
<linearGradient id="paint76_linear" x2="1" gradientUnits="userSpaceOnUse" gradientTransform="matrix(184.833 173.143 -386.688 61.5851 275.436 -16.6297)">
<stop stop-color="#EDF3F6"/>
<stop offset="1" stop-color="#DFE5EC"/>
</linearGradient>
<linearGradient id="paint77_linear" x2="1" gradientUnits="userSpaceOnUse" gradientTransform="matrix(187.935 172.409 -389.498 62.5998 275.309 -16.7607)">
<stop stop-color="#EEF4F7"/>
<stop offset="1" stop-color="#DFE6EC"/>
</linearGradient>
<linearGradient id="paint78_linear" x2="1" gradientUnits="userSpaceOnUse" gradientTransform="matrix(191.055 171.637 -392.347 63.6485 275.163 -16.8746)">
<stop stop-color="#EFF4F7"/>
<stop offset="1" stop-color="#E0E6EC"/>
</linearGradient>
<linearGradient id="paint79_linear" x2="1" gradientUnits="userSpaceOnUse" gradientTransform="matrix(194.193 170.883 -395.179 64.7034 275.027 -16.9869)">
<stop stop-color="#EFF5F8"/>
<stop offset="1" stop-color="#E0E6EC"/>
</linearGradient>
<linearGradient id="paint80_linear" x2="1" gradientUnits="userSpaceOnUse" gradientTransform="matrix(197.32 170.09 -398.05 65.7359 274.875 -17.1111)">
<stop stop-color="#F0F5F8"/>
<stop offset="1" stop-color="#E1E7ED"/>
</linearGradient>
<linearGradient id="paint81_linear" x2="1" gradientUnits="userSpaceOnUse" gradientTransform="matrix(200.494 169.316 -400.903 66.8028 274.732 -17.2195)">
<stop stop-color="#F1F6F8"/>
<stop offset="1" stop-color="#E1E7ED"/>
</linearGradient>
<linearGradient id="paint82_linear" x2="1" gradientUnits="userSpaceOnUse" gradientTransform="matrix(203.687 168.503 -403.796 67.8472 274.572 -17.4616)">
<stop stop-color="#F2F6F9"/>
<stop offset="1" stop-color="#E2E7ED"/>
</linearGradient>
<linearGradient id="paint83_linear" x2="1" gradientUnits="userSpaceOnUse" gradientTransform="matrix(206.897 167.708 -406.67 68.9263 274.421 -17.5661)">
<stop stop-color="#F2F7F9"/>
<stop offset="1" stop-color="#E3E8ED"/>
</linearGradient>
<linearGradient id="paint84_linear" x2="1" gradientUnits="userSpaceOnUse" gradientTransform="matrix(210.096 166.875 -409.584 69.9826 274.255 -17.6818)">
<stop stop-color="#F3F7F9"/>
<stop offset="1" stop-color="#E3E8EE"/>
</linearGradient>
<linearGradient id="paint85_linear" x2="1" gradientUnits="userSpaceOnUse" gradientTransform="matrix(213.343 166.06 -412.48 71.0737 274.097 -17.7824)">
<stop stop-color="#F4F8FA"/>
<stop offset="1" stop-color="#E4E8EE"/>
</linearGradient>
<linearGradient id="paint86_linear" x2="1" gradientUnits="userSpaceOnUse" gradientTransform="matrix(216.608 165.207 -415.416 72.171 273.922 -17.8799)">
<stop stop-color="#F5F8FA"/>
<stop offset="1" stop-color="#E4E9EE"/>
</linearGradient>
<linearGradient id="paint87_linear" x2="1" gradientUnits="userSpaceOnUse" gradientTransform="matrix(219.89 164.372 -418.334 73.2452 273.757 -17.9904)">
<stop stop-color="#F5F9FA"/>
<stop offset="1" stop-color="#E5E9EE"/>
</linearGradient>
<linearGradient id="paint88_linear" x2="1" gradientUnits="userSpaceOnUse" gradientTransform="matrix(223.162 163.498 -421.291 74.3546 273.576 -18.0837)">
<stop stop-color="#F6F9FB"/>
<stop offset="1" stop-color="#E5E9EE"/>
</linearGradient>
<linearGradient id="paint89_linear" x2="1" gradientUnits="userSpaceOnUse" gradientTransform="matrix(226.481 162.643 -424.23 75.4407 273.404 -18.3122)">
<stop stop-color="#F7FAFB"/>
<stop offset="1" stop-color="#E6EAEF"/>
</linearGradient>
<linearGradient id="paint90_linear" x2="1" gradientUnits="userSpaceOnUse" gradientTransform="matrix(229.818 161.749 -427.208 76.5622 273.214 -18.4014)">
<stop stop-color="#F8FAFB"/>
<stop offset="1" stop-color="#E6EAEF"/>
</linearGradient>
<linearGradient id="paint91_linear" x2="1" gradientUnits="userSpaceOnUse" gradientTransform="matrix(233.173 160.874 -430.169 77.6898 273.034 -18.4904)">
<stop stop-color="#F8FBFC"/>
<stop offset="1" stop-color="#E7EAEF"/>
</linearGradient>
<linearGradient id="paint92_linear" x2="1" gradientUnits="userSpaceOnUse" gradientTransform="matrix(236.517 159.959 -433.169 78.7939 272.839 -18.5886)">
<stop stop-color="#F9FBFC"/>
<stop offset="1" stop-color="#E8EAEF"/>
</linearGradient>
<linearGradient id="paint93_linear" x2="1" gradientUnits="userSpaceOnUse" gradientTransform="matrix(239.908 159.064 -436.15 79.9336 272.651 -18.7958)">
<stop stop-color="#FAFCFD"/>
<stop offset="1" stop-color="#E8EBEF"/>
</linearGradient>
<linearGradient id="paint94_linear" x2="1" gradientUnits="userSpaceOnUse" gradientTransform="matrix(243.317 158.129 -439.172 81.0496 272.447 -18.7674)">
<stop stop-color="#FBFCFD"/>
<stop offset="1" stop-color="#E9EBF0"/>
</linearGradient>
<linearGradient id="paint95_linear" x2="1" gradientUnits="userSpaceOnUse" gradientTransform="matrix(246.745 157.213 -442.175 82.2015 272.252 -18.9708)">
<stop stop-color="#FBFDFD"/>
<stop offset="1" stop-color="#E9EBF0"/>
</linearGradient>
<linearGradient id="paint96_linear" x2="1" gradientUnits="userSpaceOnUse" gradientTransform="matrix(250.161 156.258 -445.219 83.3294 272.042 -19.0602)">
<stop stop-color="#FCFDFE"/>
<stop offset="1" stop-color="#EAECF0"/>
</linearGradient>
<linearGradient id="paint97_linear" x2="1" gradientUnits="userSpaceOnUse" gradientTransform="matrix(253.625 155.322 -448.243 84.4934 271.84 -19.1374)">
<stop stop-color="#FDFEFE"/>
<stop offset="1" stop-color="#EAECF0"/>
</linearGradient>
<linearGradient id="paint98_linear" x2="1" gradientUnits="userSpaceOnUse" gradientTransform="matrix(257.107 154.346 -451.308 85.6636 271.621 -19.2099)">
<stop stop-color="#FEFEFE"/>
<stop offset="1" stop-color="#EBECF1"/>
</linearGradient>
<linearGradient id="paint99_linear" x2="1" gradientUnits="userSpaceOnUse" gradientTransform="matrix(260.608 153.39 -454.354 86.8095 271.41 -19.2957)">
<stop stop-color="#FEFFFF"/>
<stop offset="1" stop-color="#EBEDF1"/>
</linearGradient>
<linearGradient id="paint100_linear" x2="1" gradientUnits="userSpaceOnUse" gradientTransform="translate(271.187 -19.3639) scale(528.203 175.972) rotate(60.0007)">
<stop stop-color="white"/>
<stop offset="1" stop-color="#ECEDF1"/>
</linearGradient>
<linearGradient id="paint101_linear" x2="1" gradientUnits="userSpaceOnUse" gradientTransform="matrix(88.6638 -159.379 157.992 209.322 -31.4099 97.7492)">
<stop offset="0.1211" stop-color="#6AF69B" stop-opacity="0.5"/>
<stop offset="0.2625" stop-color="#97F9B9" stop-opacity="0.415"/>
<stop offset="0.4039" stop-color="#BDFBD2" stop-opacity="0.33"/>
<stop offset="0.5446" stop-color="#DAFDE6" stop-opacity="0.2454"/>
<stop offset="0.6837" stop-color="#EEFEF4" stop-opacity="0.1617"/>
<stop offset="0.8206" stop-color="#FBFFFC" stop-opacity="0.0794112"/>
<stop offset="0.9526" stop-color="white" stop-opacity="0"/>
</linearGradient>
<linearGradient id="paint102_linear" x2="1" gradientUnits="userSpaceOnUse" gradientTransform="matrix(88.6637 -159.38 157.992 209.322 -31.3978 97.7493)">
<stop offset="0.1211" stop-color="#6AF69B" stop-opacity="0.5"/>
<stop offset="0.2625" stop-color="#97F9B9" stop-opacity="0.415"/>
<stop offset="0.4039" stop-color="#BDFBD2" stop-opacity="0.33"/>
<stop offset="0.5446" stop-color="#DAFDE6" stop-opacity="0.2454"/>
<stop offset="0.6837" stop-color="#EEFEF4" stop-opacity="0.1617"/>
<stop offset="0.8206" stop-color="#FBFFFC" stop-opacity="0.0794112"/>
<stop offset="0.9526" stop-color="white" stop-opacity="0"/>
</linearGradient>
<linearGradient id="paint103_linear" x2="1" gradientUnits="userSpaceOnUse" gradientTransform="translate(-0.0386427 26.3113) scale(72.5454 72.5039)">
<stop stop-color="#7E89B8"/>
<stop offset="0.5173" stop-color="#646EB2"/>
<stop offset="0.7302" stop-color="#5886B5"/>
<stop offset="1" stop-color="#47A9BA"/>
</linearGradient>
<linearGradient id="paint104_linear" x2="1" gradientUnits="userSpaceOnUse" gradientTransform="translate(4.62881 38.2454) scale(26.0752 26.0603) rotate(-120)">
<stop stop-color="#544EF4"/>
<stop offset="0.3966" stop-color="#6669F7"/>
<stop offset="1" stop-color="#8599FC"/>
</linearGradient>
<linearGradient id="paint105_linear" x2="1" gradientUnits="userSpaceOnUse" gradientTransform="translate(1.18551 51.221) scale(44.9544 44.9288) rotate(-120)">
<stop stop-color="#544EF4"/>
<stop offset="0.3966" stop-color="#6669F7"/>
<stop offset="1" stop-color="#8599FC"/>
</linearGradient>
<linearGradient id="paint106_linear" x2="1" gradientUnits="userSpaceOnUse" gradientTransform="translate(1.40147 60.0836) scale(43.3842 43.3594) rotate(-120)">
<stop stop-color="#544EF4"/>
<stop offset="0.3966" stop-color="#6669F7"/>
<stop offset="1" stop-color="#8599FC"/>
</linearGradient>
<linearGradient id="paint107_linear" x2="1" gradientUnits="userSpaceOnUse" gradientTransform="translate(-1.91954 72.937) scale(62.2635 62.2279) rotate(-120)">
<stop stop-color="#544EF4"/>
<stop offset="0.3966" stop-color="#6669F7"/>
<stop offset="1" stop-color="#8599FC"/>
</linearGradient>
<linearGradient id="paint108_linear" x2="1" gradientUnits="userSpaceOnUse" gradientTransform="translate(13.6291 19.973) scale(99.76 99.8916) rotate(-44.9443)">
<stop offset="0.00742574" stop-color="#C2C2C2"/>
<stop offset="0.177" stop-color="#CFCFCF"/>
<stop offset="0.3644" stop-color="#F0F0F0"/>
<stop offset="0.4876" stop-color="#D1D1D1"/>
<stop offset="0.5853" stop-color="#F3F3F3"/>
<stop offset="0.6807" stop-color="#E8E8E8"/>
<stop offset="0.7752" stop-color="#D4D4D4"/>
<stop offset="0.8691" stop-color="#B9B9B9"/>
<stop offset="0.9618" stop-color="#959595"/>
<stop offset="1" stop-color="#858585"/>
</linearGradient>
<linearGradient id="paint109_linear" x2="1" gradientUnits="userSpaceOnUse" gradientTransform="matrix(-94.0072 -54.3514 81.4105 -47.0657 79.3871 92.9841)">
<stop stop-color="#6978B8"/>
<stop offset="0.5173" stop-color="#4E5BB2"/>
<stop offset="0.6873" stop-color="#4873B4"/>
<stop offset="1" stop-color="#3CA7BA"/>
</linearGradient>
<linearGradient id="paint110_linear" x2="1" gradientUnits="userSpaceOnUse" gradientTransform="translate(0.0797312 -10.6979) scale(50.4646 50.4358)">
<stop stop-color="#866BF4"/>
<stop offset="0.1895" stop-color="#5CB5F5"/>
<stop offset="0.191" stop-color="#5CB5F5"/>
<stop offset="0.3584" stop-color="#7EBEF9"/>
<stop offset="0.4972" stop-color="#93C3FB"/>
<stop offset="0.5895" stop-color="#9AC5FC"/>
<stop offset="0.6567" stop-color="#94A9FA"/>
<stop offset="0.7406" stop-color="#8E8EF7"/>
<stop offset="0.8256" stop-color="#897BF5"/>
<stop offset="0.9116" stop-color="#876FF4"/>
<stop offset="1" stop-color="#866BF4"/>
</linearGradient>
<linearGradient id="paint111_linear" x2="1" gradientUnits="userSpaceOnUse" gradientTransform="translate(0.0412108 -21.1934) scale(50.571 50.5421)">
<stop stop-color="#866BF4"/>
<stop offset="0.1895" stop-color="#5CB5F5"/>
<stop offset="0.191" stop-color="#5CB5F5"/>
<stop offset="0.3584" stop-color="#7EBEF9"/>
<stop offset="0.4972" stop-color="#93C3FB"/>
<stop offset="0.5895" stop-color="#9AC5FC"/>
<stop offset="0.6567" stop-color="#94A9FA"/>
<stop offset="0.7406" stop-color="#8E8EF7"/>
<stop offset="0.8256" stop-color="#897BF5"/>
<stop offset="0.9116" stop-color="#876FF4"/>
<stop offset="1" stop-color="#866BF4"/>
</linearGradient>
<linearGradient id="paint112_linear" x2="1" gradientUnits="userSpaceOnUse" gradientTransform="translate(0.0781415 -10.6915) scale(50.4646 50.4358)">
<stop stop-color="#866BF4"/>
<stop offset="0.1895" stop-color="#5CB5F5"/>
<stop offset="0.191" stop-color="#5CB5F5"/>
<stop offset="0.3584" stop-color="#7EBEF9"/>
<stop offset="0.4972" stop-color="#93C3FB"/>
<stop offset="0.5895" stop-color="#9AC5FC"/>
<stop offset="0.6567" stop-color="#94A9FA"/>
<stop offset="0.7406" stop-color="#8E8EF7"/>
<stop offset="0.8256" stop-color="#897BF5"/>
<stop offset="0.9116" stop-color="#876FF4"/>
<stop offset="1" stop-color="#866BF4"/>
</linearGradient>
<linearGradient id="paint113_linear" x2="1" gradientUnits="userSpaceOnUse" gradientTransform="translate(-0.0461022 -21.0248) scale(50.1991 50.1704)">
<stop stop-color="#866BF4"/>
<stop offset="0.1895" stop-color="#5CB5F5"/>
<stop offset="0.191" stop-color="#5CB5F5"/>
<stop offset="0.3584" stop-color="#7EBEF9"/>
<stop offset="0.4972" stop-color="#93C3FB"/>
<stop offset="0.5895" stop-color="#9AC5FC"/>
<stop offset="0.6567" stop-color="#94A9FA"/>
<stop offset="0.7406" stop-color="#8E8EF7"/>
<stop offset="0.8256" stop-color="#897BF5"/>
<stop offset="0.9116" stop-color="#876FF4"/>
<stop offset="1" stop-color="#866BF4"/>
</linearGradient>
<linearGradient id="paint114_linear" x2="1" gradientUnits="userSpaceOnUse" gradientTransform="translate(0.0797312 -10.7105) scale(50.4646 50.4358)">
<stop stop-color="#866BF4"/>
<stop offset="0.1895" stop-color="#5CB5F5"/>
<stop offset="0.191" stop-color="#5CB5F5"/>
<stop offset="0.3584" stop-color="#7EBEF9"/>
<stop offset="0.4972" stop-color="#93C3FB"/>
<stop offset="0.5895" stop-color="#9AC5FC"/>
<stop offset="0.6567" stop-color="#94A9FA"/>
<stop offset="0.7406" stop-color="#8E8EF7"/>
<stop offset="0.8256" stop-color="#897BF5"/>
<stop offset="0.9116" stop-color="#876FF4"/>
<stop offset="1" stop-color="#866BF4"/>
</linearGradient>
<linearGradient id="paint115_linear" x2="1" gradientUnits="userSpaceOnUse" gradientTransform="translate(0.0412108 -21.1555) scale(50.571 50.5421)">
<stop stop-color="#866BF4"/>
<stop offset="0.1895" stop-color="#5CB5F5"/>
<stop offset="0.191" stop-color="#5CB5F5"/>
<stop offset="0.3584" stop-color="#7EBEF9"/>
<stop offset="0.4972" stop-color="#93C3FB"/>
<stop offset="0.5895" stop-color="#9AC5FC"/>
<stop offset="0.6567" stop-color="#94A9FA"/>
<stop offset="0.7406" stop-color="#8E8EF7"/>
<stop offset="0.8256" stop-color="#897BF5"/>
<stop offset="0.9116" stop-color="#876FF4"/>
<stop offset="1" stop-color="#866BF4"/>
</linearGradient>
<linearGradient id="paint116_linear" x2="1" gradientUnits="userSpaceOnUse" gradientTransform="translate(0.00574749 -10.7217) scale(50.4646 50.4358)">
<stop stop-color="#866BF4"/>
<stop offset="0.1895" stop-color="#5CB5F5"/>
<stop offset="0.191" stop-color="#5CB5F5"/>
<stop offset="0.3584" stop-color="#7EBEF9"/>
<stop offset="0.4972" stop-color="#93C3FB"/>
<stop offset="0.5895" stop-color="#9AC5FC"/>
<stop offset="0.6567" stop-color="#94A9FA"/>
<stop offset="0.7406" stop-color="#8E8EF7"/>
<stop offset="0.8256" stop-color="#897BF5"/>
<stop offset="0.9116" stop-color="#876FF4"/>
<stop offset="1" stop-color="#866BF4"/>
</linearGradient>
<linearGradient id="paint117_linear" x2="1" gradientUnits="userSpaceOnUse" gradientTransform="translate(0.0562521 -21.0019) scale(50.1991 50.1704)">
<stop stop-color="#866BF4"/>
<stop offset="0.1895" stop-color="#5CB5F5"/>
<stop offset="0.191" stop-color="#5CB5F5"/>
<stop offset="0.3584" stop-color="#7EBEF9"/>
<stop offset="0.4972" stop-color="#93C3FB"/>
<stop offset="0.5895" stop-color="#9AC5FC"/>
<stop offset="0.6567" stop-color="#94A9FA"/>
<stop offset="0.7406" stop-color="#8E8EF7"/>
<stop offset="0.8256" stop-color="#897BF5"/>
<stop offset="0.9116" stop-color="#876FF4"/>
<stop offset="1" stop-color="#866BF4"/>
</linearGradient>
<linearGradient id="paint118_linear" x2="1" gradientUnits="userSpaceOnUse" gradientTransform="translate(-0.0122207 4.7284) scale(38.9058 38.8836)">
<stop stop-color="#90BEDF"/>
<stop offset="0.4431" stop-color="#8EBDE0"/>
<stop offset="0.7104" stop-color="#B9E6F7"/>
<stop offset="0.8886" stop-color="#8ED0E0"/>
</linearGradient>
<linearGradient id="paint119_linear" x2="1" gradientUnits="userSpaceOnUse" gradientTransform="translate(-0.0196882 -4.77338) scale(38.8796 38.8574)">
<stop stop-color="#90BEDF"/>
<stop offset="0.4431" stop-color="#8EBDE0"/>
<stop offset="0.7104" stop-color="#B9E6F7"/>
<stop offset="0.8886" stop-color="#8ED0E0"/>
</linearGradient>
<linearGradient id="paint120_linear" x2="1" gradientUnits="userSpaceOnUse" gradientTransform="translate(0.0588201 2.27343) scale(4.4795 4.47694)">
<stop stop-color="#2747BA"/>
<stop offset="0.1219" stop-color="#284AC1"/>
<stop offset="0.2972" stop-color="#2C51D4"/>
<stop offset="0.504" stop-color="#335EF3"/>
<stop offset="0.5105" stop-color="#335EF4"/>
<stop offset="0.8" stop-color="#4287F5"/>
</linearGradient>
<linearGradient id="paint121_linear" x2="1" gradientUnits="userSpaceOnUse" gradientTransform="translate(-0.060043 -2.79352) scale(21.2334 21.2213)">
<stop stop-color="#2747BA"/>
<stop offset="0.1219" stop-color="#284AC1"/>
<stop offset="0.2972" stop-color="#2C51D4"/>
<stop offset="0.504" stop-color="#335EF3"/>
<stop offset="0.5105" stop-color="#335EF4"/>
<stop offset="0.8" stop-color="#4287F5"/>
</linearGradient>
<linearGradient id="paint122_linear" x2="1" gradientUnits="userSpaceOnUse" gradientTransform="translate(0.0105167 12.027) scale(25.5279 25.5133)">
<stop stop-color="#2747BA"/>
<stop offset="0.1219" stop-color="#284AC1"/>
<stop offset="0.2972" stop-color="#2C51D4"/>
<stop offset="0.504" stop-color="#335EF3"/>
<stop offset="0.5105" stop-color="#335EF4"/>
<stop offset="0.8" stop-color="#4287F5"/>
</linearGradient>
<linearGradient id="paint123_linear" x2="1" gradientUnits="userSpaceOnUse" gradientTransform="translate(0.0557629 -4.46368) scale(12.5206 12.5135)">
<stop stop-color="#2747BA"/>
<stop offset="0.1219" stop-color="#284AC1"/>
<stop offset="0.2972" stop-color="#2C51D4"/>
<stop offset="0.504" stop-color="#335EF3"/>
<stop offset="0.5105" stop-color="#335EF4"/>
<stop offset="0.8" stop-color="#4287F5"/>
</linearGradient>
<linearGradient id="paint124_linear" x2="1" gradientUnits="userSpaceOnUse" gradientTransform="translate(-0.0594315 -1.80729) scale(8.79624 8.79121)">
<stop stop-color="#2747BA"/>
<stop offset="0.1219" stop-color="#284AC1"/>
<stop offset="0.2972" stop-color="#2C51D4"/>
<stop offset="0.504" stop-color="#335EF3"/>
<stop offset="0.5105" stop-color="#335EF4"/>
<stop offset="0.8" stop-color="#4287F5"/>
</linearGradient>
<linearGradient id="paint125_linear" x2="1" gradientUnits="userSpaceOnUse" gradientTransform="translate(-2.34241 9.0904) scale(9.11871 9.1135) rotate(-90)">
<stop stop-color="#2747BA"/>
<stop offset="0.1219" stop-color="#284AC1"/>
<stop offset="0.2972" stop-color="#2C51D4"/>
<stop offset="0.504" stop-color="#335EF3"/>
<stop offset="0.5105" stop-color="#335EF4"/>
<stop offset="0.8" stop-color="#4287F5"/>
</linearGradient>
<linearGradient id="paint126_linear" x2="1" gradientUnits="userSpaceOnUse" gradientTransform="translate(-0.0596761 -0.218708) scale(7.22827 7.22414)">
<stop stop-color="#2747BA"/>
<stop offset="0.1219" stop-color="#284AC1"/>
<stop offset="0.2972" stop-color="#2C51D4"/>
<stop offset="0.504" stop-color="#335EF3"/>
<stop offset="0.5105" stop-color="#335EF4"/>
<stop offset="0.8" stop-color="#4287F5"/>
</linearGradient>
<linearGradient id="paint127_linear" x2="1" gradientUnits="userSpaceOnUse" gradientTransform="translate(-0.02299 -0.690711) scale(14.8957 14.8872)">
<stop stop-color="#2747BA"/>
<stop offset="0.1219" stop-color="#284AC1"/>
<stop offset="0.2972" stop-color="#2C51D4"/>
<stop offset="0.504" stop-color="#335EF3"/>
<stop offset="0.5105" stop-color="#335EF4"/>
<stop offset="0.8" stop-color="#4287F5"/>
</linearGradient>
</defs>
</svg>
