<?xml version="1.0" encoding="utf-8"?>
<!-- Generator: Adobe Illustrator 22.1.0, SVG Export Plug-In . SVG Version: 6.00 Build 0)  -->
<svg version="1.1" id="Layer_1" xmlns="http://www.w3.org/2000/svg" xmlns:xlink="http://www.w3.org/1999/xlink" x="0px" y="0px"
	 viewBox="0 0 93.3 94.7" style="enable-background:new 0 0 93.3 94.7;" xml:space="preserve">
<style type="text/css">
	.st0{fill:url(#SVGID_1_);}
	.st1{fill:url(#SVGID_2_);}
	.st2{fill:url(#SVGID_3_);}
	.st3{fill:url(#SVGID_4_);}
	.st4{fill:url(#SVGID_5_);}
	.st5{fill:url(#SVGID_6_);}
	.st6{fill:url(#SVGID_7_);}
	.st7{fill:url(#SVGID_8_);}
	.st8{fill:url(#SVGID_9_);}
	.st9{fill:url(#SVGID_10_);}
	.st10{fill:url(#SVGID_11_);}
	.st11{fill:url(#SVGID_12_);}
	.st12{fill:url(#SVGID_13_);}
	.st13{fill:url(#SVGID_14_);}
	.st14{fill:url(#SVGID_15_);}
	.st15{fill:#7895F4;}
	.st16{fill:url(#SVGID_16_);}
	.st17{fill:url(#SVGID_17_);}
	.st18{fill:url(#SVGID_18_);}
	.st19{fill:url(#SVGID_19_);}
	.st20{fill:url(#SVGID_20_);}
	.st21{fill:url(#SVGID_21_);}
	.st22{fill:url(#SVGID_22_);}
	.st23{fill:url(#SVGID_23_);}
	.st24{fill:url(#SVGID_24_);}
	.st25{fill:url(#SVGID_25_);}
	.st26{fill:url(#SVGID_26_);}
	.st27{fill:url(#SVGID_27_);}
</style>
<g>
	<linearGradient id="SVGID_1_" gradientUnits="userSpaceOnUse" x1="70.0386" y1="26.21" x2="73.9652" y2="26.21">
		<stop  offset="0" style="stop-color:#7895F4"/>
		<stop  offset="0.1895" style="stop-color:#4C91F5"/>
		<stop  offset="0.3323" style="stop-color:#5FAAF8"/>
		<stop  offset="0.4866" style="stop-color:#6FBFFB"/>
		<stop  offset="0.5895" style="stop-color:#75C6FC"/>
		<stop  offset="0.6514" style="stop-color:#76B8FA"/>
		<stop  offset="0.7654" style="stop-color:#77A5F7"/>
		<stop  offset="0.8811" style="stop-color:#7899F5"/>
		<stop  offset="1" style="stop-color:#7895F4"/>
	</linearGradient>
	<path class="st0" d="M70.6,21.1L70,20v2.2l0,0.1c0.8,1.3,2.8,4.6,2.8,6.2c0,1.5-1.1,2.7-2.6,2.8l-0.3,0v1.1l0.3,0
		c2-0.1,3.6-1.8,3.6-3.8C74,26.1,70.8,21.4,70.6,21.1z"/>
	<g>
		<linearGradient id="SVGID_2_" gradientUnits="userSpaceOnUse" x1="23.0072" y1="44.2639" x2="86.6169" y2="44.2639">
			<stop  offset="0" style="stop-color:#7895F4"/>
			<stop  offset="0.1895" style="stop-color:#4C91F5"/>
			<stop  offset="0.3323" style="stop-color:#5FAAF8"/>
			<stop  offset="0.4866" style="stop-color:#6FBFFB"/>
			<stop  offset="0.5895" style="stop-color:#75C6FC"/>
			<stop  offset="0.6514" style="stop-color:#76B8FA"/>
			<stop  offset="0.7654" style="stop-color:#77A5F7"/>
			<stop  offset="0.8811" style="stop-color:#7899F5"/>
			<stop  offset="1" style="stop-color:#7895F4"/>
		</linearGradient>
		<path class="st1" d="M69.6,80.2H71h10c2.4,0,4.4-3,4.4-6.7V15c0-3.7-2-6.7-4.4-6.7H28.7c-2.1,0-3.9,2.3-4.3,5.4c0,0.1,0,0.2,0,0.3
			c0,0.3,0-0.1,0,0.2H23c0-0.4,0,0,0-0.4c0-0.2,0-0.4,0.1-0.6c0.5-4,2.8-7,5.6-7h52.3c3.1,0,5.7,3.9,5.7,8.6v58.4
			c0,4.8-2.5,8.6-5.7,8.6H69.3L69.6,80.2z"/>
	</g>
	<g>
		<linearGradient id="SVGID_3_" gradientUnits="userSpaceOnUse" x1="64.9599" y1="30.1799" x2="80.3442" y2="20.7236">
			<stop  offset="0" style="stop-color:#7895F4"/>
			<stop  offset="0.1895" style="stop-color:#4C91F5"/>
			<stop  offset="0.3323" style="stop-color:#5FAAF8"/>
			<stop  offset="0.4866" style="stop-color:#6FBFFB"/>
			<stop  offset="0.5895" style="stop-color:#75C6FC"/>
			<stop  offset="0.6514" style="stop-color:#76B8FA"/>
			<stop  offset="0.7654" style="stop-color:#77A5F7"/>
			<stop  offset="0.8811" style="stop-color:#7899F5"/>
			<stop  offset="1" style="stop-color:#7895F4"/>
		</linearGradient>
		<path class="st2" d="M70.1,38.5c6.5,0,11.9-5.3,11.9-11.9c0-6.5-5.3-11.9-11.9-11.9c-0.8,0-1.5,0.1-2.3,0.2l0.8,1
			c0.5-0.1,1-0.1,1.4-0.1c5.9,0,10.7,4.8,10.7,10.7S76,37.3,70.1,37.3V38.5z"/>
	</g>
	<polygon class="st15" points="53.4,54.2 53.2,54.2 53,54.2 52.8,54.2 52.7,54.2 52.5,54.2 52.3,54.2 52.1,54.2 52,54.2 51.8,54.2 
		51.6,54.2 51.4,54.2 51.3,54.2 51.1,54.2 50.9,54.2 50.8,54.2 50.6,54.2 50.4,54.2 50.2,54.2 50.1,54.2 49.9,54.2 49.7,54.2 
		49.5,54.2 49.4,54.2 49.2,54.2 49,54.2 48.9,54.2 48.7,54.2 48.5,54.2 48.3,54.2 48.2,54.2 48,54.2 47.8,54.2 47.6,54.2 47.5,54.2 
		47.3,54.2 47.1,54.2 46.9,54.2 46.8,54.2 46.6,54.2 46.4,54.2 46.3,54.2 46.1,54.2 45.9,54.2 45.7,54.2 45.6,54.2 45.4,54.2 
		45.2,54.2 45,54.2 44.9,54.2 44.7,54.2 44.5,54.2 44.4,54.2 44.2,54.2 44,54.2 43.8,54.2 43.7,54.2 43.5,54.2 43.3,54.2 43.1,54.2 
		43,54.2 42.8,54.2 42.6,54.2 42.4,54.2 42.3,54.2 42.1,54.2 41.9,54.2 41.8,54.2 41.6,54.2 41.4,54.2 41.2,54.2 41.1,54.2 
		40.9,54.2 40.7,54.2 40.5,54.2 40.4,54.2 40.2,54.2 40,54.2 39.9,54.2 39.7,54.2 39.5,54.2 39.3,54.2 39.2,54.2 39,54.2 38.8,54.2 
		38.6,54.2 38.5,54.2 38.3,54.2 38.1,54.2 37.9,54.2 37.8,54.2 37.6,54.2 37.4,54.2 37.3,54.2 37.1,54.2 36.9,54.2 36.7,54.2 
		36.6,54.2 36.3,54.2 36,54.2 35.7,54.2 35.4,54.2 35.1,54.2 34.8,54.2 34.5,54.2 34.2,54.2 34,54.2 33.7,54.2 33.4,54.2 33.1,54.2 
		32.8,54.2 32.5,54.2 32.2,54.2 31.9,54.2 31.6,54.2 31.3,54.2 31.1,54.2 30.8,54.2 30.5,54.2 30.2,54.2 29.9,54.2 29.6,54.2 
		29.3,54.2 29,54.2 28.7,54.2 28.4,54.2 28.2,54.2 27.9,54.2 27.6,54.2 27.3,54.2 27,54.2 26.7,54.2 26.4,54.2 26.1,54.2 25.8,54.2 
		25.5,54.2 25.3,54.2 25,54.2 24.7,54.2 24.4,54.2 24.1,54.2 23.8,54.2 23.5,54.2 23.2,54.2 22.9,54.2 22.6,54.2 22.4,54.2 
		22.1,54.2 21.8,54.2 21.5,54.2 21.2,54.2 20.9,54.2 20.6,54.2 20.3,54.2 20,54.2 19.8,54.2 19.7,54.2 19.5,54.2 19.3,54.2 
		19.1,54.2 18.9,54.2 18.7,54.2 18.5,54.2 18.3,54.2 18.1,54.2 17.9,54.2 17.7,54.2 17.5,54.2 17.4,54.2 17.2,54.2 17,54.2 
		16.8,54.2 16.6,54.2 16.4,54.2 16.2,54.2 16,54.2 15.8,54.2 15.6,54.2 15.4,54.2 15.3,54.2 15.1,54.2 14.9,54.2 14.7,54.2 
		14.5,54.2 14.3,54.2 14.1,54.2 13.9,54.2 13.7,54.2 13.5,54.2 13.3,54.2 13.2,54.2 13,54.2 12.8,54.2 12.6,54.2 12.4,54.2 
		12.2,54.2 12.2,55.5 12.4,55.5 12.6,55.5 12.8,55.5 13,55.5 13.2,55.5 13.3,55.5 13.5,55.5 13.7,55.5 13.9,55.5 14.1,55.5 
		14.3,55.5 14.5,55.5 14.7,55.5 14.9,55.5 15.1,55.5 15.3,55.5 15.4,55.5 15.6,55.5 15.8,55.5 16,55.5 16.2,55.5 16.4,55.5 
		16.6,55.5 16.8,55.5 17,55.5 17.2,55.5 17.4,55.5 17.5,55.5 17.7,55.5 17.9,55.5 18.1,55.5 18.3,55.5 18.5,55.5 18.7,55.5 
		18.9,55.5 19.1,55.5 19.3,55.5 19.5,55.5 19.7,55.5 19.8,55.5 20,55.5 20.3,55.5 20.6,55.5 20.9,55.5 21.2,55.5 21.5,55.5 
		21.8,55.5 22.1,55.5 22.4,55.5 22.6,55.5 22.9,55.5 23.2,55.5 23.5,55.5 23.8,55.5 24.1,55.5 24.4,55.5 24.7,55.5 25,55.5 
		25.3,55.5 25.5,55.5 25.8,55.5 26.1,55.5 26.4,55.5 26.7,55.5 27,55.5 27.3,55.5 27.6,55.5 27.9,55.5 28.2,55.5 28.4,55.5 
		28.7,55.5 29,55.5 29.3,55.5 29.6,55.5 29.9,55.5 30.2,55.5 30.5,55.5 30.8,55.5 31.1,55.5 31.3,55.5 31.6,55.5 31.9,55.5 
		32.2,55.5 32.5,55.5 32.8,55.5 33.1,55.5 33.4,55.5 33.7,55.5 34,55.5 34.2,55.5 34.5,55.5 34.8,55.5 35.1,55.5 35.4,55.5 
		35.7,55.5 36,55.5 36.3,55.5 36.6,55.5 36.7,55.5 36.9,55.5 37.1,55.5 37.3,55.5 37.4,55.5 37.6,55.5 37.8,55.5 37.9,55.5 
		38.1,55.5 38.3,55.5 38.5,55.5 38.6,55.5 38.8,55.5 39,55.5 39.2,55.5 39.3,55.5 39.5,55.5 39.7,55.5 39.9,55.5 40,55.5 40.2,55.5 
		40.4,55.5 40.5,55.5 40.7,55.5 40.9,55.5 41.1,55.5 41.2,55.5 41.4,55.5 41.6,55.5 41.8,55.5 41.9,55.5 42.1,55.5 42.3,55.5 
		42.4,55.5 42.6,55.5 42.8,55.5 43,55.5 43.1,55.5 43.3,55.5 43.5,55.5 43.7,55.5 43.8,55.5 44,55.5 44.2,55.5 44.4,55.5 44.5,55.5 
		44.7,55.5 44.9,55.5 45,55.5 45.2,55.5 45.4,55.5 45.6,55.5 45.7,55.5 45.9,55.5 46.1,55.5 46.3,55.5 46.4,55.5 46.6,55.5 
		46.8,55.5 46.9,55.5 47.1,55.5 47.3,55.5 47.5,55.5 47.6,55.5 47.8,55.5 48,55.5 48.2,55.5 48.3,55.5 48.5,55.5 48.7,55.5 
		48.9,55.5 49,55.5 49.2,55.5 49.4,55.5 49.5,55.5 49.7,55.5 49.9,55.5 50.1,55.5 50.2,55.5 50.4,55.5 50.6,55.5 50.8,55.5 
		50.9,55.5 51.1,55.5 51.3,55.5 51.4,55.5 51.6,55.5 51.8,55.5 52,55.5 52.1,55.5 52.3,55.5 52.5,55.5 52.7,55.5 52.8,55.5 53,55.5 
		53.2,55.5 53.4,55.5 53.5,55.5 53.5,54.2 	"/>
	<polygon class="st15" points="53.4,58.4 53.2,58.4 53,58.4 52.8,58.4 52.7,58.4 52.5,58.4 52.3,58.4 52.1,58.4 52,58.4 51.8,58.4 
		51.6,58.4 51.4,58.4 51.3,58.4 51.1,58.4 50.9,58.4 50.8,58.4 50.6,58.4 50.4,58.4 50.2,58.4 50.1,58.4 49.9,58.4 49.7,58.4 
		49.5,58.4 49.4,58.4 49.2,58.4 49,58.4 48.9,58.4 48.7,58.4 48.5,58.4 48.3,58.4 48.2,58.4 48,58.4 47.8,58.4 47.6,58.4 47.5,58.4 
		47.3,58.4 47.1,58.4 46.9,58.4 46.8,58.4 46.6,58.4 46.4,58.4 46.3,58.4 46.1,58.4 45.9,58.4 45.7,58.4 45.6,58.4 45.4,58.4 
		45.2,58.4 45,58.4 44.9,58.4 44.7,58.4 44.5,58.4 44.4,58.4 44.2,58.4 44,58.4 43.8,58.4 43.7,58.4 43.5,58.4 43.3,58.4 43.1,58.4 
		43,58.4 42.8,58.4 42.6,58.4 42.4,58.4 42.3,58.4 42.1,58.4 41.9,58.4 41.8,58.4 41.6,58.4 41.4,58.4 41.2,58.4 41.1,58.4 
		40.9,58.4 40.7,58.4 40.5,58.4 40.4,58.4 40.2,58.4 40,58.4 39.9,58.4 39.7,58.4 39.5,58.4 39.3,58.4 39.2,58.4 39,58.4 38.8,58.4 
		38.6,58.4 38.5,58.4 38.3,58.4 38.1,58.4 37.9,58.4 37.8,58.4 37.6,58.4 37.4,58.4 37.3,58.4 37.1,58.4 36.9,58.4 36.7,58.4 
		36.6,58.4 36.3,58.4 36,58.4 35.7,58.4 35.4,58.4 35.1,58.4 34.8,58.4 34.5,58.4 34.2,58.4 34,58.4 33.7,58.4 33.4,58.4 33.1,58.4 
		32.8,58.4 32.5,58.4 32.2,58.4 31.9,58.4 31.6,58.4 31.3,58.4 31.1,58.4 30.8,58.4 30.5,58.4 30.2,58.4 29.9,58.4 29.6,58.4 
		29.3,58.4 29,58.4 28.7,58.4 28.4,58.4 28.2,58.4 27.9,58.4 27.6,58.4 27.3,58.4 27,58.4 26.7,58.4 26.4,58.4 26.1,58.4 25.8,58.4 
		25.5,58.4 25.3,58.4 25,58.4 24.7,58.4 24.4,58.4 24.1,58.4 23.8,58.4 23.5,58.4 23.2,58.4 22.9,58.4 22.6,58.4 22.4,58.4 
		22.1,58.4 21.8,58.4 21.5,58.4 21.2,58.4 20.9,58.4 20.6,58.4 20.3,58.4 20,58.4 19.8,58.4 19.7,58.4 19.5,58.4 19.3,58.4 
		19.1,58.4 18.9,58.4 18.7,58.4 18.5,58.4 18.3,58.4 18.1,58.4 17.9,58.4 17.7,58.4 17.5,58.4 17.4,58.4 17.2,58.4 17,58.4 
		16.8,58.4 16.6,58.4 16.4,58.4 16.2,58.4 16,58.4 15.8,58.4 15.6,58.4 15.4,58.4 15.3,58.4 15.1,58.4 14.9,58.4 14.7,58.4 
		14.5,58.4 14.3,58.4 14.1,58.4 13.9,58.4 13.7,58.4 13.5,58.4 13.3,58.4 13.2,58.4 13,58.4 12.8,58.4 12.6,58.4 12.4,58.4 
		12.2,58.4 12.2,59.7 12.4,59.7 12.6,59.7 12.8,59.7 13,59.7 13.2,59.7 13.3,59.7 13.5,59.7 13.7,59.7 13.9,59.7 14.1,59.7 
		14.3,59.7 14.5,59.7 14.7,59.7 14.9,59.7 15.1,59.7 15.3,59.7 15.4,59.7 15.6,59.7 15.8,59.7 16,59.7 16.2,59.7 16.4,59.7 
		16.6,59.7 16.8,59.7 17,59.7 17.2,59.7 17.4,59.7 17.5,59.7 17.7,59.7 17.9,59.7 18.1,59.7 18.3,59.7 18.5,59.7 18.7,59.7 
		18.9,59.7 19.1,59.7 19.3,59.7 19.5,59.7 19.7,59.7 19.8,59.7 20,59.7 20.3,59.7 20.6,59.7 20.9,59.7 21.2,59.7 21.5,59.7 
		21.8,59.7 22.1,59.7 22.4,59.7 22.6,59.7 22.9,59.7 23.2,59.7 23.5,59.7 23.8,59.7 24.1,59.7 24.4,59.7 24.7,59.7 25,59.7 
		25.3,59.7 25.5,59.7 25.8,59.7 26.1,59.7 26.4,59.7 26.7,59.7 27,59.7 27.3,59.7 27.6,59.7 27.9,59.7 28.2,59.7 28.4,59.7 
		28.7,59.7 29,59.7 29.3,59.7 29.6,59.7 29.9,59.7 30.2,59.7 30.5,59.7 30.8,59.7 31.1,59.7 31.3,59.7 31.6,59.7 31.9,59.7 
		32.2,59.7 32.5,59.7 32.8,59.7 33.1,59.7 33.4,59.7 33.7,59.7 34,59.7 34.2,59.7 34.5,59.7 34.8,59.7 35.1,59.7 35.4,59.7 
		35.7,59.7 36,59.7 36.3,59.7 36.6,59.7 36.7,59.7 36.9,59.7 37.1,59.7 37.3,59.7 37.4,59.7 37.6,59.7 37.8,59.7 37.9,59.7 
		38.1,59.7 38.3,59.7 38.5,59.7 38.6,59.7 38.8,59.7 39,59.7 39.2,59.7 39.3,59.7 39.5,59.7 39.7,59.7 39.9,59.7 40,59.7 40.2,59.7 
		40.4,59.7 40.5,59.7 40.7,59.7 40.9,59.7 41.1,59.7 41.2,59.7 41.4,59.7 41.6,59.7 41.8,59.7 41.9,59.7 42.1,59.7 42.3,59.7 
		42.4,59.7 42.6,59.7 42.8,59.7 43,59.7 43.1,59.7 43.3,59.7 43.5,59.7 43.7,59.7 43.8,59.7 44,59.7 44.2,59.7 44.4,59.7 44.5,59.7 
		44.7,59.7 44.9,59.7 45,59.7 45.2,59.7 45.4,59.7 45.6,59.7 45.7,59.7 45.9,59.7 46.1,59.7 46.3,59.7 46.4,59.7 46.6,59.7 
		46.8,59.7 46.9,59.7 47.1,59.7 47.3,59.7 47.5,59.7 47.6,59.7 47.8,59.7 48,59.7 48.2,59.7 48.3,59.7 48.5,59.7 48.7,59.7 
		48.9,59.7 49,59.7 49.2,59.7 49.4,59.7 49.5,59.7 49.7,59.7 49.9,59.7 50.1,59.7 50.2,59.7 50.4,59.7 50.6,59.7 50.8,59.7 
		50.9,59.7 51.1,59.7 51.3,59.7 51.4,59.7 51.6,59.7 51.8,59.7 52,59.7 52.1,59.7 52.3,59.7 52.5,59.7 52.7,59.7 52.8,59.7 53,59.7 
		53.2,59.7 53.4,59.7 53.5,59.7 53.5,58.4 	"/>
	<polygon class="st15" points="53.4,62.7 53.2,62.7 53,62.7 52.8,62.7 52.7,62.7 52.5,62.7 52.3,62.7 52.1,62.7 52,62.7 51.8,62.7 
		51.6,62.7 51.4,62.7 51.3,62.7 51.1,62.7 50.9,62.7 50.8,62.7 50.6,62.7 50.4,62.7 50.2,62.7 50.1,62.7 49.9,62.7 49.7,62.7 
		49.5,62.7 49.4,62.7 49.2,62.7 49,62.7 48.9,62.7 48.7,62.7 48.5,62.7 48.3,62.7 48.2,62.7 48,62.7 47.8,62.7 47.6,62.7 47.5,62.7 
		47.3,62.7 47.1,62.7 46.9,62.7 46.8,62.7 46.6,62.7 46.4,62.7 46.3,62.7 46.1,62.7 45.9,62.7 45.7,62.7 45.6,62.7 45.4,62.7 
		45.2,62.7 45,62.7 44.9,62.7 44.7,62.7 44.5,62.7 44.4,62.7 44.2,62.7 44,62.7 43.8,62.7 43.7,62.7 43.5,62.7 43.3,62.7 43.1,62.7 
		43,62.7 42.8,62.7 42.6,62.7 42.4,62.7 42.3,62.7 42.1,62.7 41.9,62.7 41.8,62.7 41.6,62.7 41.4,62.7 41.2,62.7 41.1,62.7 
		40.9,62.7 40.7,62.7 40.5,62.7 40.4,62.7 40.2,62.7 40,62.7 39.9,62.7 39.7,62.7 39.5,62.7 39.3,62.7 39.2,62.7 39,62.7 38.8,62.7 
		38.6,62.7 38.5,62.7 38.3,62.7 38.1,62.7 37.9,62.7 37.8,62.7 37.6,62.7 37.4,62.7 37.3,62.7 37.1,62.7 36.9,62.7 36.7,62.7 
		36.6,62.7 36.3,62.7 36,62.7 35.7,62.7 35.4,62.7 35.1,62.7 34.8,62.7 34.5,62.7 34.2,62.7 34,62.7 33.7,62.7 33.4,62.7 33.1,62.7 
		32.8,62.7 32.5,62.7 32.2,62.7 31.9,62.7 31.6,62.7 31.3,62.7 31.1,62.7 30.8,62.7 30.5,62.7 30.2,62.7 29.9,62.7 29.6,62.7 
		29.3,62.7 29,62.7 28.7,62.7 28.4,62.7 28.2,62.7 27.9,62.7 27.6,62.7 27.3,62.7 27,62.7 26.7,62.7 26.4,62.7 26.1,62.7 25.8,62.7 
		25.5,62.7 25.3,62.7 25,62.7 24.7,62.7 24.4,62.7 24.1,62.7 23.8,62.7 23.5,62.7 23.2,62.7 22.9,62.7 22.6,62.7 22.4,62.7 
		22.1,62.7 21.8,62.7 21.5,62.7 21.2,62.7 20.9,62.7 20.6,62.7 20.3,62.7 20,62.7 19.8,62.7 19.7,62.7 19.5,62.7 19.3,62.7 
		19.1,62.7 18.9,62.7 18.7,62.7 18.5,62.7 18.3,62.7 18.1,62.7 17.9,62.7 17.7,62.7 17.5,62.7 17.4,62.7 17.2,62.7 17,62.7 
		16.8,62.7 16.6,62.7 16.4,62.7 16.2,62.7 16,62.7 15.8,62.7 15.6,62.7 15.4,62.7 15.3,62.7 15.1,62.7 14.9,62.7 14.7,62.7 
		14.5,62.7 14.3,62.7 14.1,62.7 13.9,62.7 13.7,62.7 13.5,62.7 13.3,62.7 13.2,62.7 13,62.7 12.8,62.7 12.6,62.7 12.4,62.7 
		12.2,62.7 12.2,64 12.4,64 12.6,64 12.8,64 13,64 13.2,64 13.3,64 13.5,64 13.7,64 13.9,64 14.1,64 14.3,64 14.5,64 14.7,64 
		14.9,64 15.1,64 15.3,64 15.4,64 15.6,64 15.8,64 16,64 16.2,64 16.4,64 16.6,64 16.8,64 17,64 17.2,64 17.4,64 17.5,64 17.7,64 
		17.9,64 18.1,64 18.3,64 18.5,64 18.7,64 18.9,64 19.1,64 19.3,64 19.5,64 19.7,64 19.8,64 20,64 20.3,64 20.6,64 20.9,64 21.2,64 
		21.5,64 21.8,64 22.1,64 22.4,64 22.6,64 22.9,64 23.2,64 23.5,64 23.8,64 24.1,64 24.4,64 24.7,64 25,64 25.3,64 25.5,64 25.8,64 
		26.1,64 26.4,64 26.7,64 27,64 27.3,64 27.6,64 27.9,64 28.2,64 28.4,64 28.7,64 29,64 29.3,64 29.6,64 29.9,64 30.2,64 30.5,64 
		30.8,64 31.1,64 31.3,64 31.6,64 31.9,64 32.2,64 32.5,64 32.8,64 33.1,64 33.4,64 33.7,64 34,64 34.2,64 34.5,64 34.8,64 35.1,64 
		35.4,64 35.7,64 36,64 36.3,64 36.6,64 36.7,64 36.9,64 37.1,64 37.3,64 37.4,64 37.6,64 37.8,64 37.9,64 38.1,64 38.3,64 38.5,64 
		38.6,64 38.8,64 39,64 39.2,64 39.3,64 39.5,64 39.7,64 39.9,64 40,64 40.2,64 40.4,64 40.5,64 40.7,64 40.9,64 41.1,64 41.2,64 
		41.4,64 41.6,64 41.8,64 41.9,64 42.1,64 42.3,64 42.4,64 42.6,64 42.8,64 43,64 43.1,64 43.3,64 43.5,64 43.7,64 43.8,64 44,64 
		44.2,64 44.4,64 44.5,64 44.7,64 44.9,64 45,64 45.2,64 45.4,64 45.6,64 45.7,64 45.9,64 46.1,64 46.3,64 46.4,64 46.6,64 46.8,64 
		46.9,64 47.1,64 47.3,64 47.5,64 47.6,64 47.8,64 48,64 48.2,64 48.3,64 48.5,64 48.7,64 48.9,64 49,64 49.2,64 49.4,64 49.5,64 
		49.7,64 49.9,64 50.1,64 50.2,64 50.4,64 50.6,64 50.8,64 50.9,64 51.1,64 51.3,64 51.4,64 51.6,64 51.8,64 52,64 52.1,64 52.3,64 
		52.5,64 52.7,64 52.8,64 53,64 53.2,64 53.4,64 53.5,64 53.5,62.7 	"/>
	<polygon class="st15" points="53.4,66.9 53.2,66.9 53,66.9 52.8,66.9 52.7,66.9 52.5,66.9 52.3,66.9 52.1,66.9 52,66.9 51.8,66.9 
		51.6,66.9 51.4,66.9 51.3,66.9 51.1,66.9 50.9,66.9 50.8,66.9 50.6,66.9 50.4,66.9 50.2,66.9 50.1,66.9 49.9,66.9 49.7,66.9 
		49.5,66.9 49.4,66.9 49.2,66.9 49,66.9 48.9,66.9 48.7,66.9 48.5,66.9 48.3,66.9 48.2,66.9 48,66.9 47.8,66.9 47.6,66.9 47.5,66.9 
		47.3,66.9 47.1,66.9 46.9,66.9 46.8,66.9 46.6,66.9 46.4,66.9 46.3,66.9 46.1,66.9 45.9,66.9 45.7,66.9 45.6,66.9 45.4,66.9 
		45.2,66.9 45,66.9 44.9,66.9 44.7,66.9 44.5,66.9 44.4,66.9 44.2,66.9 44,66.9 43.8,66.9 43.7,66.9 43.5,66.9 43.3,66.9 43.1,66.9 
		43,66.9 42.8,66.9 42.6,66.9 42.4,66.9 42.3,66.9 42.1,66.9 41.9,66.9 41.8,66.9 41.6,66.9 41.4,66.9 41.2,66.9 41.1,66.9 
		40.9,66.9 40.7,66.9 40.5,66.9 40.4,66.9 40.2,66.9 40,66.9 39.9,66.9 39.7,66.9 39.5,66.9 39.3,66.9 39.2,66.9 39,66.9 38.8,66.9 
		38.6,66.9 38.5,66.9 38.3,66.9 38.1,66.9 37.9,66.9 37.8,66.9 37.6,66.9 37.4,66.9 37.3,66.9 37.1,66.9 36.9,66.9 36.7,66.9 
		36.6,66.9 36.3,66.9 36,66.9 35.7,66.9 35.4,66.9 35.1,66.9 34.8,66.9 34.5,66.9 34.2,66.9 34,66.9 33.7,66.9 33.4,66.9 33.1,66.9 
		32.8,66.9 32.5,66.9 32.2,66.9 31.9,66.9 31.6,66.9 31.3,66.9 31.1,66.9 30.8,66.9 30.5,66.9 30.2,66.9 29.9,66.9 29.6,66.9 
		29.3,66.9 29,66.9 28.7,66.9 28.4,66.9 28.2,66.9 27.9,66.9 27.6,66.9 27.3,66.9 27,66.9 26.7,66.9 26.4,66.9 26.1,66.9 25.8,66.9 
		25.5,66.9 25.3,66.9 25,66.9 24.7,66.9 24.4,66.9 24.1,66.9 23.8,66.9 23.5,66.9 23.2,66.9 22.9,66.9 22.6,66.9 22.4,66.9 
		22.1,66.9 21.8,66.9 21.5,66.9 21.2,66.9 20.9,66.9 20.6,66.9 20.3,66.9 20,66.9 19.8,66.9 19.7,66.9 19.5,66.9 19.3,66.9 
		19.1,66.9 18.9,66.9 18.7,66.9 18.5,66.9 18.3,66.9 18.1,66.9 17.9,66.9 17.7,66.9 17.5,66.9 17.4,66.9 17.2,66.9 17,66.9 
		16.8,66.9 16.6,66.9 16.4,66.9 16.2,66.9 16,66.9 15.8,66.9 15.6,66.9 15.4,66.9 15.3,66.9 15.1,66.9 14.9,66.9 14.7,66.9 
		14.5,66.9 14.3,66.9 14.1,66.9 13.9,66.9 13.7,66.9 13.5,66.9 13.3,66.9 13.2,66.9 13,66.9 12.8,66.9 12.6,66.9 12.4,66.9 
		12.2,66.9 12.2,68.2 12.4,68.2 12.6,68.2 12.8,68.2 13,68.2 13.2,68.2 13.3,68.2 13.5,68.2 13.7,68.2 13.9,68.2 14.1,68.2 
		14.3,68.2 14.5,68.2 14.7,68.2 14.9,68.2 15.1,68.2 15.3,68.2 15.4,68.2 15.6,68.2 15.8,68.2 16,68.2 16.2,68.2 16.4,68.2 
		16.6,68.2 16.8,68.2 17,68.2 17.2,68.2 17.4,68.2 17.5,68.2 17.7,68.2 17.9,68.2 18.1,68.2 18.3,68.2 18.5,68.2 18.7,68.2 
		18.9,68.2 19.1,68.2 19.3,68.2 19.5,68.2 19.7,68.2 19.8,68.2 20,68.2 20.3,68.2 20.6,68.2 20.9,68.2 21.2,68.2 21.5,68.2 
		21.8,68.2 22.1,68.2 22.4,68.2 22.6,68.2 22.9,68.2 23.2,68.2 23.5,68.2 23.8,68.2 24.1,68.2 24.4,68.2 24.7,68.2 25,68.2 
		25.3,68.2 25.5,68.2 25.8,68.2 26.1,68.2 26.4,68.2 26.7,68.2 27,68.2 27.3,68.2 27.6,68.2 27.9,68.2 28.2,68.2 28.4,68.2 
		28.7,68.2 29,68.2 29.3,68.2 29.6,68.2 29.9,68.2 30.2,68.2 30.5,68.2 30.8,68.2 31.1,68.2 31.3,68.2 31.6,68.2 31.9,68.2 
		32.2,68.2 32.5,68.2 32.8,68.2 33.1,68.2 33.4,68.2 33.7,68.2 34,68.2 34.2,68.2 34.5,68.2 34.8,68.2 35.1,68.2 35.4,68.2 
		35.7,68.2 36,68.2 36.3,68.2 36.6,68.2 36.7,68.2 36.9,68.2 37.1,68.2 37.3,68.2 37.4,68.2 37.6,68.2 37.8,68.2 37.9,68.2 
		38.1,68.2 38.3,68.2 38.5,68.2 38.6,68.2 38.8,68.2 39,68.2 39.2,68.2 39.3,68.2 39.5,68.2 39.7,68.2 39.9,68.2 40,68.2 40.2,68.2 
		40.4,68.2 40.5,68.2 40.7,68.2 40.9,68.2 41.1,68.2 41.2,68.2 41.4,68.2 41.6,68.2 41.8,68.2 41.9,68.2 42.1,68.2 42.3,68.2 
		42.4,68.2 42.6,68.2 42.8,68.2 43,68.2 43.1,68.2 43.3,68.2 43.5,68.2 43.7,68.2 43.8,68.2 44,68.2 44.2,68.2 44.4,68.2 44.5,68.2 
		44.7,68.2 44.9,68.2 45,68.2 45.2,68.2 45.4,68.2 45.6,68.2 45.7,68.2 45.9,68.2 46.1,68.2 46.3,68.2 46.4,68.2 46.6,68.2 
		46.8,68.2 46.9,68.2 47.1,68.2 47.3,68.2 47.5,68.2 47.6,68.2 47.8,68.2 48,68.2 48.2,68.2 48.3,68.2 48.5,68.2 48.7,68.2 
		48.9,68.2 49,68.2 49.2,68.2 49.4,68.2 49.5,68.2 49.7,68.2 49.9,68.2 50.1,68.2 50.2,68.2 50.4,68.2 50.6,68.2 50.8,68.2 
		50.9,68.2 51.1,68.2 51.3,68.2 51.4,68.2 51.6,68.2 51.8,68.2 52,68.2 52.1,68.2 52.3,68.2 52.5,68.2 52.7,68.2 52.8,68.2 53,68.2 
		53.2,68.2 53.4,68.2 53.5,68.2 53.5,66.9 	"/>
	<polygon class="st15" points="53.4,71.1 53.2,71.1 53,71.1 52.8,71.1 52.7,71.1 52.5,71.1 52.3,71.1 52.1,71.1 52,71.1 51.8,71.1 
		51.6,71.1 51.4,71.1 51.3,71.1 51.1,71.1 50.9,71.1 50.8,71.1 50.6,71.1 50.4,71.1 50.2,71.1 50.1,71.1 49.9,71.1 49.7,71.1 
		49.5,71.1 49.4,71.1 49.2,71.1 49,71.1 48.9,71.1 48.7,71.1 48.5,71.1 48.3,71.1 48.2,71.1 48,71.1 47.8,71.1 47.6,71.1 47.5,71.1 
		47.3,71.1 47.1,71.1 46.9,71.1 46.8,71.1 46.6,71.1 46.4,71.1 46.3,71.1 46.1,71.1 45.9,71.1 45.7,71.1 45.6,71.1 45.4,71.1 
		45.2,71.1 45,71.1 44.9,71.1 44.7,71.1 44.5,71.1 44.4,71.1 44.2,71.1 44,71.1 43.8,71.1 43.7,71.1 43.5,71.1 43.3,71.1 43.1,71.1 
		43,71.1 42.8,71.1 42.6,71.1 42.4,71.1 42.3,71.1 42.1,71.1 41.9,71.1 41.8,71.1 41.6,71.1 41.4,71.1 41.2,71.1 41.1,71.1 
		40.9,71.1 40.7,71.1 40.5,71.1 40.4,71.1 40.2,71.1 40,71.1 39.9,71.1 39.7,71.1 39.5,71.1 39.3,71.1 39.2,71.1 39,71.1 38.8,71.1 
		38.6,71.1 38.5,71.1 38.3,71.1 38.1,71.1 37.9,71.1 37.8,71.1 37.6,71.1 37.4,71.1 37.3,71.1 37.1,71.1 36.9,71.1 36.7,71.1 
		36.6,71.1 36.3,71.1 36,71.1 35.7,71.1 35.4,71.1 35.1,71.1 34.8,71.1 34.5,71.1 34.2,71.1 34,71.1 33.7,71.1 33.4,71.1 33.1,71.1 
		32.8,71.1 32.5,71.1 32.2,71.1 31.9,71.1 31.6,71.1 31.3,71.1 31.1,71.1 30.8,71.1 30.5,71.1 30.2,71.1 29.9,71.1 29.6,71.1 
		29.3,71.1 29,71.1 28.7,71.1 28.4,71.1 28.2,71.1 27.9,71.1 27.6,71.1 27.3,71.1 27,71.1 26.7,71.1 26.4,71.1 26.1,71.1 25.8,71.1 
		25.5,71.1 25.3,71.1 25,71.1 24.7,71.1 24.4,71.1 24.1,71.1 23.8,71.1 23.5,71.1 23.2,71.1 22.9,71.1 22.6,71.1 22.4,71.1 
		22.1,71.1 21.8,71.1 21.5,71.1 21.2,71.1 20.9,71.1 20.6,71.1 20.3,71.1 20,71.1 19.8,71.1 19.7,71.1 19.5,71.1 19.3,71.1 
		19.1,71.1 18.9,71.1 18.7,71.1 18.5,71.1 18.3,71.1 18.1,71.1 17.9,71.1 17.7,71.1 17.5,71.1 17.4,71.1 17.2,71.1 17,71.1 
		16.8,71.1 16.6,71.1 16.4,71.1 16.2,71.1 16,71.1 15.8,71.1 15.6,71.1 15.4,71.1 15.3,71.1 15.1,71.1 14.9,71.1 14.7,71.1 
		14.5,71.1 14.3,71.1 14.1,71.1 13.9,71.1 13.7,71.1 13.5,71.1 13.3,71.1 13.2,71.1 13,71.1 12.8,71.1 12.6,71.1 12.4,71.1 
		12.2,71.1 12.2,72.4 12.4,72.4 12.6,72.4 12.8,72.4 13,72.4 13.2,72.4 13.3,72.4 13.5,72.4 13.7,72.4 13.9,72.4 14.1,72.4 
		14.3,72.4 14.5,72.4 14.7,72.4 14.9,72.4 15.1,72.4 15.3,72.4 15.4,72.4 15.6,72.4 15.8,72.4 16,72.4 16.2,72.4 16.4,72.4 
		16.6,72.4 16.8,72.4 17,72.4 17.2,72.4 17.4,72.4 17.5,72.4 17.7,72.4 17.9,72.4 18.1,72.4 18.3,72.4 18.5,72.4 18.7,72.4 
		18.9,72.4 19.1,72.4 19.3,72.4 19.5,72.4 19.7,72.4 19.8,72.4 20,72.4 20.3,72.4 20.6,72.4 20.9,72.4 21.2,72.4 21.5,72.4 
		21.8,72.4 22.1,72.4 22.4,72.4 22.6,72.4 22.9,72.4 23.2,72.4 23.5,72.4 23.8,72.4 24.1,72.4 24.4,72.4 24.7,72.4 25,72.4 
		25.3,72.4 25.5,72.4 25.8,72.4 26.1,72.4 26.4,72.4 26.7,72.4 27,72.4 27.3,72.4 27.6,72.4 27.9,72.4 28.2,72.4 28.4,72.4 
		28.7,72.4 29,72.4 29.3,72.4 29.6,72.4 29.9,72.4 30.2,72.4 30.5,72.4 30.8,72.4 31.1,72.4 31.3,72.4 31.6,72.4 31.9,72.4 
		32.2,72.4 32.5,72.4 32.8,72.4 33.1,72.4 33.4,72.4 33.7,72.4 34,72.4 34.2,72.4 34.5,72.4 34.8,72.4 35.1,72.4 35.4,72.4 
		35.7,72.4 36,72.4 36.3,72.4 36.6,72.4 36.7,72.4 36.9,72.4 37.1,72.4 37.3,72.4 37.4,72.4 37.6,72.4 37.8,72.4 37.9,72.4 
		38.1,72.4 38.3,72.4 38.5,72.4 38.6,72.4 38.8,72.4 39,72.4 39.2,72.4 39.3,72.4 39.5,72.4 39.7,72.4 39.9,72.4 40,72.4 40.2,72.4 
		40.4,72.4 40.5,72.4 40.7,72.4 40.9,72.4 41.1,72.4 41.2,72.4 41.4,72.4 41.6,72.4 41.8,72.4 41.9,72.4 42.1,72.4 42.3,72.4 
		42.4,72.4 42.6,72.4 42.8,72.4 43,72.4 43.1,72.4 43.3,72.4 43.5,72.4 43.7,72.4 43.8,72.4 44,72.4 44.2,72.4 44.4,72.4 44.5,72.4 
		44.7,72.4 44.9,72.4 45,72.4 45.2,72.4 45.4,72.4 45.6,72.4 45.7,72.4 45.9,72.4 46.1,72.4 46.3,72.4 46.4,72.4 46.6,72.4 
		46.8,72.4 46.9,72.4 47.1,72.4 47.3,72.4 47.5,72.4 47.6,72.4 47.8,72.4 48,72.4 48.2,72.4 48.3,72.4 48.5,72.4 48.7,72.4 
		48.9,72.4 49,72.4 49.2,72.4 49.4,72.4 49.5,72.4 49.7,72.4 49.9,72.4 50.1,72.4 50.2,72.4 50.4,72.4 50.6,72.4 50.8,72.4 
		50.9,72.4 51.1,72.4 51.3,72.4 51.4,72.4 51.6,72.4 51.8,72.4 52,72.4 52.1,72.4 52.3,72.4 52.5,72.4 52.7,72.4 52.8,72.4 53,72.4 
		53.2,72.4 53.4,72.4 53.5,72.4 53.5,71.1 	"/>
	<g>
		<g>
			<g id="c1_ray_2_">
				<g>
					<linearGradient id="SVGID_4_" gradientUnits="userSpaceOnUse" x1="49.0613" y1="33.1812" x2="58.0057" y2="33.1812">
						<stop  offset="0" style="stop-color:#7895F4"/>
						<stop  offset="0.1895" style="stop-color:#4C91F5"/>
						<stop  offset="0.3323" style="stop-color:#5FAAF8"/>
						<stop  offset="0.4866" style="stop-color:#6FBFFB"/>
						<stop  offset="0.5895" style="stop-color:#75C6FC"/>
						<stop  offset="0.6514" style="stop-color:#76B8FA"/>
						<stop  offset="0.7654" style="stop-color:#77A5F7"/>
						<stop  offset="0.8811" style="stop-color:#7899F5"/>
						<stop  offset="1" style="stop-color:#7895F4"/>
					</linearGradient>
					<path class="st3" d="M49.6,40.2l2.2-5.9h-2.7l8.2-8.2l-2,5.9H58L49.6,40.2z M50.8,33.6h2l-1.4,3.8l4.8-4.6h-2l1.3-3.9
						L50.8,33.6z"/>
				</g>
			</g>
		</g>
		<g>
			<linearGradient id="SVGID_5_" gradientUnits="userSpaceOnUse" x1="43.4296" y1="38.616" x2="63.6219" y2="26.2043">
				<stop  offset="0" style="stop-color:#7895F4"/>
				<stop  offset="0.1895" style="stop-color:#4C91F5"/>
				<stop  offset="0.3323" style="stop-color:#5FAAF8"/>
				<stop  offset="0.4866" style="stop-color:#6FBFFB"/>
				<stop  offset="0.5895" style="stop-color:#75C6FC"/>
				<stop  offset="0.6514" style="stop-color:#76B8FA"/>
				<stop  offset="0.7654" style="stop-color:#77A5F7"/>
				<stop  offset="0.8811" style="stop-color:#7899F5"/>
				<stop  offset="1" style="stop-color:#7895F4"/>
			</linearGradient>
			<path class="st4" d="M53.5,44.3c-6.5,0-11.9-5.3-11.9-11.9c0-6.5,5.3-11.9,11.9-11.9c6.5,0,11.9,5.3,11.9,11.9
				C65.4,38.9,60.1,44.3,53.5,44.3z M53.5,21.7c-5.9,0-10.7,4.8-10.7,10.7s4.8,10.7,10.7,10.7s10.7-4.8,10.7-10.7
				S59.4,21.7,53.5,21.7z"/>
		</g>
	</g>
	<g>
		<linearGradient id="SVGID_6_" gradientUnits="userSpaceOnUse" x1="6.7164" y1="50.4028" x2="70.3261" y2="50.4028">
			<stop  offset="0" style="stop-color:#7895F4"/>
			<stop  offset="0.1895" style="stop-color:#4C91F5"/>
			<stop  offset="0.3323" style="stop-color:#5FAAF8"/>
			<stop  offset="0.4866" style="stop-color:#6FBFFB"/>
			<stop  offset="0.5895" style="stop-color:#75C6FC"/>
			<stop  offset="0.6514" style="stop-color:#76B8FA"/>
			<stop  offset="0.7654" style="stop-color:#77A5F7"/>
			<stop  offset="0.8811" style="stop-color:#7899F5"/>
			<stop  offset="1" style="stop-color:#7895F4"/>
		</linearGradient>
		<path class="st5" d="M64.7,88.3H12.4c-3.1,0-5.7-3.9-5.7-8.6V21.2c0-4.8,2.5-8.6,5.7-8.6h52.3c3.1,0,5.7,3.9,5.7,8.6v58.4
			C70.3,84.4,67.8,88.3,64.7,88.3z M12.4,14.5c-2.4,0-4.4,3-4.4,6.7v58.4c0,3.7,2,6.7,4.4,6.7h52.3c2.4,0,4.4-3,4.4-6.7V21.2
			c0-3.7-2-6.7-4.4-6.7H12.4z"/>
	</g>
</g>
</svg>
