<?xml version="1.0" encoding="utf-8"?>
<!-- Generator: Adobe Illustrator 22.1.0, SVG Export Plug-In . SVG Version: 6.00 Build 0)  -->
<svg version="1.1" id="Layer_1" xmlns="http://www.w3.org/2000/svg" xmlns:xlink="http://www.w3.org/1999/xlink" x="0px" y="0px"
	 viewBox="0 0 93.3 94.7" style="enable-background:new 0 0 93.3 94.7;" xml:space="preserve">
<style type="text/css">
	.st0{fill:url(#SVGID_1_);}
	.st1{fill:url(#SVGID_2_);}
	.st2{fill:url(#SVGID_3_);}
	.st3{fill:url(#SVGID_4_);}
	.st4{fill:url(#SVGID_5_);}
	.st5{fill:url(#SVGID_6_);}
	.st6{fill:url(#SVGID_7_);}
	.st7{fill:url(#SVGID_8_);}
	.st8{fill:url(#SVGID_9_);}
	.st9{fill:url(#SVGID_10_);}
	.st10{fill:url(#SVGID_11_);}
	.st11{fill:url(#SVGID_12_);}
	.st12{fill:url(#SVGID_13_);}
	.st13{fill:url(#SVGID_14_);}
	.st14{fill:url(#SVGID_15_);}
	.st15{fill:#7895F4;}
	.st16{fill:url(#SVGID_16_);}
	.st17{fill:url(#SVGID_17_);}
	.st18{fill:url(#SVGID_18_);}
	.st19{fill:url(#SVGID_19_);}
	.st20{fill:url(#SVGID_20_);}
	.st21{fill:url(#SVGID_21_);}
	.st22{fill:url(#SVGID_22_);}
	.st23{fill:url(#SVGID_23_);}
	.st24{fill:url(#SVGID_24_);}
	.st25{fill:url(#SVGID_25_);}
	.st26{fill:url(#SVGID_26_);}
	.st27{fill:url(#SVGID_27_);}
</style>
<g>
	<g>
		<linearGradient id="SVGID_1_" gradientUnits="userSpaceOnUse" x1="9.2492" y1="34.6891" x2="85.1776" y2="34.6891">
			<stop  offset="0" style="stop-color:#7895F4"/>
			<stop  offset="0.1895" style="stop-color:#4C91F5"/>
			<stop  offset="0.3323" style="stop-color:#5FAAF8"/>
			<stop  offset="0.4866" style="stop-color:#6FBFFB"/>
			<stop  offset="0.5895" style="stop-color:#75C6FC"/>
			<stop  offset="0.6514" style="stop-color:#76B8FA"/>
			<stop  offset="0.7654" style="stop-color:#77A5F7"/>
			<stop  offset="0.8811" style="stop-color:#7899F5"/>
			<stop  offset="1" style="stop-color:#7895F4"/>
		</linearGradient>
		<path class="st0" d="M77.3,42.6H17.1c-4.3,0-7.9-3.5-7.9-7.9s3.5-7.9,7.9-7.9h60.2c4.3,0,7.9,3.5,7.9,7.9S81.6,42.6,77.3,42.6z
			 M17.1,28.6c-3.4,0-6.1,2.7-6.1,6.1s2.7,6.1,6.1,6.1h60.2c3.4,0,6.1-2.7,6.1-6.1s-2.7-6.1-6.1-6.1H17.1z"/>
	</g>
	<g>
		<linearGradient id="SVGID_2_" gradientUnits="userSpaceOnUse" x1="9.742" y1="19.7003" x2="13.4577" y2="19.7003">
			<stop  offset="0" style="stop-color:#7895F4"/>
			<stop  offset="0.1895" style="stop-color:#4C91F5"/>
			<stop  offset="0.3323" style="stop-color:#5FAAF8"/>
			<stop  offset="0.4866" style="stop-color:#6FBFFB"/>
			<stop  offset="0.5895" style="stop-color:#75C6FC"/>
			<stop  offset="0.6514" style="stop-color:#76B8FA"/>
			<stop  offset="0.7654" style="stop-color:#77A5F7"/>
			<stop  offset="0.8811" style="stop-color:#7899F5"/>
			<stop  offset="1" style="stop-color:#7895F4"/>
		</linearGradient>
		<path class="st1" d="M11.6,21.6c-1,0-1.9-0.8-1.9-1.9s0.8-1.9,1.9-1.9s1.9,0.8,1.9,1.9S12.6,21.6,11.6,21.6z M11.6,18.7
			c-0.5,0-1,0.4-1,1s0.4,1,1,1c0.5,0,1-0.4,1-1S12.1,18.7,11.6,18.7z"/>
	</g>
	<g>
		<linearGradient id="SVGID_3_" gradientUnits="userSpaceOnUse" x1="13.9912" y1="19.7003" x2="17.706" y2="19.7003">
			<stop  offset="0" style="stop-color:#7895F4"/>
			<stop  offset="0.1895" style="stop-color:#4C91F5"/>
			<stop  offset="0.3323" style="stop-color:#5FAAF8"/>
			<stop  offset="0.4866" style="stop-color:#6FBFFB"/>
			<stop  offset="0.5895" style="stop-color:#75C6FC"/>
			<stop  offset="0.6514" style="stop-color:#76B8FA"/>
			<stop  offset="0.7654" style="stop-color:#77A5F7"/>
			<stop  offset="0.8811" style="stop-color:#7899F5"/>
			<stop  offset="1" style="stop-color:#7895F4"/>
		</linearGradient>
		<path class="st2" d="M15.8,21.6c-1,0-1.9-0.8-1.9-1.9s0.8-1.9,1.9-1.9s1.9,0.8,1.9,1.9S16.9,21.6,15.8,21.6z M15.8,18.7
			c-0.5,0-1,0.4-1,1s0.4,1,1,1s1-0.4,1-1S16.4,18.7,15.8,18.7z"/>
	</g>
	<g>
		<linearGradient id="SVGID_4_" gradientUnits="userSpaceOnUse" x1="18.2395" y1="19.7003" x2="21.9543" y2="19.7003">
			<stop  offset="0" style="stop-color:#7895F4"/>
			<stop  offset="0.1895" style="stop-color:#4C91F5"/>
			<stop  offset="0.3323" style="stop-color:#5FAAF8"/>
			<stop  offset="0.4866" style="stop-color:#6FBFFB"/>
			<stop  offset="0.5895" style="stop-color:#75C6FC"/>
			<stop  offset="0.6514" style="stop-color:#76B8FA"/>
			<stop  offset="0.7654" style="stop-color:#77A5F7"/>
			<stop  offset="0.8811" style="stop-color:#7899F5"/>
			<stop  offset="1" style="stop-color:#7895F4"/>
		</linearGradient>
		<path class="st3" d="M20.1,21.6c-1,0-1.9-0.8-1.9-1.9s0.8-1.9,1.9-1.9c1,0,1.9,0.8,1.9,1.9S21.1,21.6,20.1,21.6z M20.1,18.7
			c-0.5,0-1,0.4-1,1s0.4,1,1,1c0.5,0,1-0.4,1-1S20.6,18.7,20.1,18.7z"/>
	</g>
	<g>
		<linearGradient id="SVGID_5_" gradientUnits="userSpaceOnUse" x1="12.3142" y1="49.9829" x2="62.358" y2="49.9829">
			<stop  offset="0" style="stop-color:#7895F4"/>
			<stop  offset="0.1895" style="stop-color:#4C91F5"/>
			<stop  offset="0.3323" style="stop-color:#5FAAF8"/>
			<stop  offset="0.4866" style="stop-color:#6FBFFB"/>
			<stop  offset="0.5895" style="stop-color:#75C6FC"/>
			<stop  offset="0.6514" style="stop-color:#76B8FA"/>
			<stop  offset="0.7654" style="stop-color:#77A5F7"/>
			<stop  offset="0.8811" style="stop-color:#7899F5"/>
			<stop  offset="1" style="stop-color:#7895F4"/>
		</linearGradient>
		<rect x="12.3" y="49.1" class="st4" width="50" height="1.8"/>
	</g>
	<g>
		<linearGradient id="SVGID_6_" gradientUnits="userSpaceOnUse" x1="12.3142" y1="56.2014" x2="62.358" y2="56.2014">
			<stop  offset="0" style="stop-color:#7895F4"/>
			<stop  offset="0.1895" style="stop-color:#4C91F5"/>
			<stop  offset="0.3323" style="stop-color:#5FAAF8"/>
			<stop  offset="0.4866" style="stop-color:#6FBFFB"/>
			<stop  offset="0.5895" style="stop-color:#75C6FC"/>
			<stop  offset="0.6514" style="stop-color:#76B8FA"/>
			<stop  offset="0.7654" style="stop-color:#77A5F7"/>
			<stop  offset="0.8811" style="stop-color:#7899F5"/>
			<stop  offset="1" style="stop-color:#7895F4"/>
		</linearGradient>
		<rect x="12.3" y="55.3" class="st5" width="50" height="1.8"/>
	</g>
	<g>
		<linearGradient id="SVGID_7_" gradientUnits="userSpaceOnUse" x1="12.3142" y1="62.4199" x2="62.358" y2="62.4199">
			<stop  offset="0" style="stop-color:#7895F4"/>
			<stop  offset="0.1895" style="stop-color:#4C91F5"/>
			<stop  offset="0.3323" style="stop-color:#5FAAF8"/>
			<stop  offset="0.4866" style="stop-color:#6FBFFB"/>
			<stop  offset="0.5895" style="stop-color:#75C6FC"/>
			<stop  offset="0.6514" style="stop-color:#76B8FA"/>
			<stop  offset="0.7654" style="stop-color:#77A5F7"/>
			<stop  offset="0.8811" style="stop-color:#7899F5"/>
			<stop  offset="1" style="stop-color:#7895F4"/>
		</linearGradient>
		<rect x="12.3" y="61.5" class="st6" width="50" height="1.8"/>
	</g>
	<g>
		<linearGradient id="SVGID_8_" gradientUnits="userSpaceOnUse" x1="12.3142" y1="68.6384" x2="62.358" y2="68.6384">
			<stop  offset="0" style="stop-color:#7895F4"/>
			<stop  offset="0.1895" style="stop-color:#4C91F5"/>
			<stop  offset="0.3323" style="stop-color:#5FAAF8"/>
			<stop  offset="0.4866" style="stop-color:#6FBFFB"/>
			<stop  offset="0.5895" style="stop-color:#75C6FC"/>
			<stop  offset="0.6514" style="stop-color:#76B8FA"/>
			<stop  offset="0.7654" style="stop-color:#77A5F7"/>
			<stop  offset="0.8811" style="stop-color:#7899F5"/>
			<stop  offset="1" style="stop-color:#7895F4"/>
		</linearGradient>
		<rect x="12.3" y="67.8" class="st7" width="50" height="1.8"/>
	</g>
	<g>
		<linearGradient id="SVGID_9_" gradientUnits="userSpaceOnUse" x1="2.5" y1="47.5612" x2="90.8333" y2="47.5612">
			<stop  offset="0" style="stop-color:#7895F4"/>
			<stop  offset="0.1895" style="stop-color:#4C91F5"/>
			<stop  offset="0.3323" style="stop-color:#5FAAF8"/>
			<stop  offset="0.4866" style="stop-color:#6FBFFB"/>
			<stop  offset="0.5895" style="stop-color:#75C6FC"/>
			<stop  offset="0.6514" style="stop-color:#76B8FA"/>
			<stop  offset="0.7654" style="stop-color:#77A5F7"/>
			<stop  offset="0.8811" style="stop-color:#7899F5"/>
			<stop  offset="1" style="stop-color:#7895F4"/>
		</linearGradient>
		<path class="st8" d="M83,83.5H10.4c-4.3,0-7.9-3.7-7.9-8.2V19.8c0-4.5,3.5-8.2,7.9-8.2H83c4.3,0,7.9,3.7,7.9,8.2v55.4
			C90.8,79.8,87.3,83.5,83,83.5z M10.4,13.5c-3.4,0-6.1,2.9-6.1,6.4v55.4c0,3.5,2.7,6.4,6.1,6.4H83c3.4,0,6.1-2.9,6.1-6.4V19.8
			c0-3.5-2.7-6.4-6.1-6.4H10.4z"/>
	</g>
</g>
</svg>
