<?xml version="1.0" encoding="utf-8"?>
<!-- Generator: Adobe Illustrator 22.1.0, SVG Export Plug-In . SVG Version: 6.00 Build 0)  -->
<svg version="1.1" id="Layer_1" xmlns="http://www.w3.org/2000/svg" xmlns:xlink="http://www.w3.org/1999/xlink" x="0px" y="0px"
	 viewBox="0 0 96 94.7" style="enable-background:new 0 0 96 94.7;" xml:space="preserve">
<style type="text/css">
	.st0{fill:url(#SVGID_1_);}
	.st1{fill:url(#SVGID_2_);}
	.st2{fill:url(#SVGID_3_);}
	.st3{fill:url(#SVGID_4_);}
	.st4{fill:url(#SVGID_5_);}
	.st5{fill:#7895F4;}
	.st6{fill:url(#SVGID_6_);}
	.st7{fill:url(#SVGID_7_);}
	.st8{fill:url(#SVGID_8_);}
	.st9{fill:url(#SVGID_9_);}
	.st10{fill:url(#SVGID_10_);}
	.st11{fill:url(#SVGID_11_);}
	.st12{fill:url(#SVGID_12_);}
	.st13{fill:url(#SVGID_13_);}
	.st14{fill:url(#SVGID_14_);}
	.st15{fill:url(#SVGID_15_);}
	.st16{fill:url(#SVGID_16_);}
	.st17{fill:url(#SVGID_17_);}
	.st18{clip-path:url(#SVGID_19_);}
	.st19{fill:url(#SVGID_20_);}
	.st20{fill:url(#SVGID_21_);}
	.st21{fill:url(#SVGID_22_);}
	.st22{fill:url(#SVGID_23_);}
	.st23{fill:url(#SVGID_24_);}
	.st24{fill:url(#SVGID_25_);}
	.st25{fill:url(#SVGID_26_);}
	.st26{fill:url(#SVGID_27_);}
	.st27{fill:url(#SVGID_28_);}
	.st28{fill:url(#SVGID_29_);}
</style>
<g>
	<linearGradient id="SVGID_1_" gradientUnits="userSpaceOnUse" x1="242.0833" y1="39.7439" x2="326.1197" y2="39.7439">
		<stop  offset="0" style="stop-color:#7895F4"/>
		<stop  offset="0.1895" style="stop-color:#4C91F5"/>
		<stop  offset="0.3323" style="stop-color:#5FAAF8"/>
		<stop  offset="0.4866" style="stop-color:#6FBFFB"/>
		<stop  offset="0.5895" style="stop-color:#75C6FC"/>
		<stop  offset="0.6514" style="stop-color:#76B8FA"/>
		<stop  offset="0.7654" style="stop-color:#77A5F7"/>
		<stop  offset="0.8811" style="stop-color:#7899F5"/>
		<stop  offset="1" style="stop-color:#7895F4"/>
	</linearGradient>
	<path class="st0" d="M304.8,48.4h-54c-3.7,0-6.8-3.9-6.8-8.6s3-8.6,6.8-8.6h66.6c3.7,0,6.8,3.9,6.8,8.6s-3,8.6-6.8,8.6h-4.2
		l2.5,2.5h1.8c4.8,0,8.7-5,8.7-11.1c0-6.1-3.9-11.1-8.7-11.1h-66.6c-4.8,0-8.7,5-8.7,11.1c0,6.1,3.9,11.1,8.7,11.1h54.3L304.8,48.4z
		"/>
	<g>
		
			<linearGradient id="SVGID_2_" gradientUnits="userSpaceOnUse" x1="213.0894" y1="436.6833" x2="236.5183" y2="436.6833" gradientTransform="matrix(0.8519 -0.5237 0.5237 0.8519 -108.7941 -195.252)">
			<stop  offset="0" style="stop-color:#7895F4"/>
			<stop  offset="0.1895" style="stop-color:#4C91F5"/>
			<stop  offset="0.3323" style="stop-color:#5FAAF8"/>
			<stop  offset="0.4866" style="stop-color:#6FBFFB"/>
			<stop  offset="0.5895" style="stop-color:#75C6FC"/>
			<stop  offset="0.6514" style="stop-color:#76B8FA"/>
			<stop  offset="0.7654" style="stop-color:#77A5F7"/>
			<stop  offset="0.8811" style="stop-color:#7899F5"/>
			<stop  offset="1" style="stop-color:#7895F4"/>
		</linearGradient>
		<path class="st1" d="M309.7,77.6c0,0-0.1,0-0.2,0c-1.1-0.1-1.2-1.5-1.3-2l-3.4-30.1c-0.2-1.5,0.4-2.1,0.9-2.3
			c0.5-0.2,1.3-0.3,2.3,0.8h0L328.7,65c0.4,0.4,1.3,1.4,0.7,2.2c-0.6,0.9-1.9,0.4-2.3,0.2l-9-3.6c-0.5-0.2-1-0.2-1.5,0
			c-0.5,0.2-0.9,0.6-1.1,1.1l-4.2,11C311.1,76.4,310.7,77.6,309.7,77.6z M309.3,75.9L309.3,75.9L309.3,75.9z M306.6,44.9
			c0,0.1,0,0.2,0,0.3l3.3,29.4l3.9-10.3c0.4-0.9,1.1-1.7,2-2.1c0.9-0.4,1.9-0.4,2.9-0.1l7.9,3.2l-19.8-20.2
			C306.7,45.1,306.6,45,306.6,44.9z"/>
	</g>
</g>
<g>
	<linearGradient id="SVGID_3_" gradientUnits="userSpaceOnUse" x1="-70.2948" y1="26.21" x2="-66.3681" y2="26.21">
		<stop  offset="0" style="stop-color:#7895F4"/>
		<stop  offset="0.1895" style="stop-color:#4C91F5"/>
		<stop  offset="0.3323" style="stop-color:#5FAAF8"/>
		<stop  offset="0.4866" style="stop-color:#6FBFFB"/>
		<stop  offset="0.5895" style="stop-color:#75C6FC"/>
		<stop  offset="0.6514" style="stop-color:#76B8FA"/>
		<stop  offset="0.7654" style="stop-color:#77A5F7"/>
		<stop  offset="0.8811" style="stop-color:#7899F5"/>
		<stop  offset="1" style="stop-color:#7895F4"/>
	</linearGradient>
	<path class="st2" d="M-69.8,21.1l-0.5-1.1v2.2l0,0.1c0.8,1.3,2.8,4.6,2.8,6.2c0,1.5-1.1,2.7-2.6,2.8l-0.3,0v1.1l0.3,0
		c2-0.1,3.6-1.8,3.6-3.8C-66.4,26.1-69.5,21.4-69.8,21.1z"/>
	<g>
		<linearGradient id="SVGID_4_" gradientUnits="userSpaceOnUse" x1="-117.3261" y1="44.2639" x2="-53.7164" y2="44.2639">
			<stop  offset="0" style="stop-color:#7895F4"/>
			<stop  offset="0.1895" style="stop-color:#4C91F5"/>
			<stop  offset="0.3323" style="stop-color:#5FAAF8"/>
			<stop  offset="0.4866" style="stop-color:#6FBFFB"/>
			<stop  offset="0.5895" style="stop-color:#75C6FC"/>
			<stop  offset="0.6514" style="stop-color:#76B8FA"/>
			<stop  offset="0.7654" style="stop-color:#77A5F7"/>
			<stop  offset="0.8811" style="stop-color:#7899F5"/>
			<stop  offset="1" style="stop-color:#7895F4"/>
		</linearGradient>
		<path class="st3" d="M-70.7,80.2h1.4h10c2.4,0,4.4-3,4.4-6.7V15c0-3.7-2-6.7-4.4-6.7h-52.3c-2.1,0-3.9,2.3-4.3,5.4
			c0,0.1,0,0.2,0,0.3c0,0.3,0-0.1,0,0.2h-1.3c0-0.4,0,0,0-0.4c0-0.2,0-0.4,0.1-0.6c0.5-4,2.8-7,5.6-7h52.3c3.1,0,5.7,3.9,5.7,8.6
			v58.4c0,4.8-2.5,8.6-5.7,8.6H-71L-70.7,80.2z"/>
	</g>
	<g>
		<linearGradient id="SVGID_5_" gradientUnits="userSpaceOnUse" x1="-75.3734" y1="30.1799" x2="-59.9892" y2="20.7236">
			<stop  offset="0" style="stop-color:#7895F4"/>
			<stop  offset="0.1895" style="stop-color:#4C91F5"/>
			<stop  offset="0.3323" style="stop-color:#5FAAF8"/>
			<stop  offset="0.4866" style="stop-color:#6FBFFB"/>
			<stop  offset="0.5895" style="stop-color:#75C6FC"/>
			<stop  offset="0.6514" style="stop-color:#76B8FA"/>
			<stop  offset="0.7654" style="stop-color:#77A5F7"/>
			<stop  offset="0.8811" style="stop-color:#7899F5"/>
			<stop  offset="1" style="stop-color:#7895F4"/>
		</linearGradient>
		<path class="st4" d="M-70.3,38.5c6.5,0,11.9-5.3,11.9-11.9c0-6.5-5.3-11.9-11.9-11.9c-0.8,0-1.5,0.1-2.3,0.2l0.8,1
			c0.5-0.1,1-0.1,1.4-0.1c5.9,0,10.7,4.8,10.7,10.7s-4.8,10.7-10.7,10.7V38.5z"/>
	</g>
	<polygon class="st5" points="-87,54.2 -87.2,54.2 -87.3,54.2 -87.5,54.2 -87.7,54.2 -87.8,54.2 -88,54.2 -88.2,54.2 -88.4,54.2 
		-88.5,54.2 -88.7,54.2 -88.9,54.2 -89.1,54.2 -89.2,54.2 -89.4,54.2 -89.6,54.2 -89.8,54.2 -89.9,54.2 -90.1,54.2 -90.3,54.2 
		-90.4,54.2 -90.6,54.2 -90.8,54.2 -91,54.2 -91.1,54.2 -91.3,54.2 -91.5,54.2 -91.7,54.2 -91.8,54.2 -92,54.2 -92.2,54.2 
		-92.3,54.2 -92.5,54.2 -92.7,54.2 -92.9,54.2 -93,54.2 -93.2,54.2 -93.4,54.2 -93.6,54.2 -93.7,54.2 -93.9,54.2 -94.1,54.2 
		-94.3,54.2 -94.4,54.2 -94.6,54.2 -94.8,54.2 -94.9,54.2 -95.1,54.2 -95.3,54.2 -95.5,54.2 -95.6,54.2 -95.8,54.2 -96,54.2 
		-96.2,54.2 -96.3,54.2 -96.5,54.2 -96.7,54.2 -96.8,54.2 -97,54.2 -97.2,54.2 -97.4,54.2 -97.5,54.2 -97.7,54.2 -97.9,54.2 
		-98.1,54.2 -98.2,54.2 -98.4,54.2 -98.6,54.2 -98.8,54.2 -98.9,54.2 -99.1,54.2 -99.3,54.2 -99.4,54.2 -99.6,54.2 -99.8,54.2 
		-100,54.2 -100.1,54.2 -100.3,54.2 -100.5,54.2 -100.7,54.2 -100.8,54.2 -101,54.2 -101.2,54.2 -101.3,54.2 -101.5,54.2 
		-101.7,54.2 -101.9,54.2 -102,54.2 -102.2,54.2 -102.4,54.2 -102.6,54.2 -102.7,54.2 -102.9,54.2 -103.1,54.2 -103.3,54.2 
		-103.4,54.2 -103.6,54.2 -103.8,54.2 -104.1,54.2 -104.4,54.2 -104.6,54.2 -104.9,54.2 -105.2,54.2 -105.5,54.2 -105.8,54.2 
		-106.1,54.2 -106.4,54.2 -106.7,54.2 -107,54.2 -107.3,54.2 -107.5,54.2 -107.8,54.2 -108.1,54.2 -108.4,54.2 -108.7,54.2 
		-109,54.2 -109.3,54.2 -109.6,54.2 -109.9,54.2 -110.2,54.2 -110.4,54.2 -110.7,54.2 -111,54.2 -111.3,54.2 -111.6,54.2 
		-111.9,54.2 -112.2,54.2 -112.5,54.2 -112.8,54.2 -113.1,54.2 -113.3,54.2 -113.6,54.2 -113.9,54.2 -114.2,54.2 -114.5,54.2 
		-114.8,54.2 -115.1,54.2 -115.4,54.2 -115.7,54.2 -116,54.2 -116.2,54.2 -116.5,54.2 -116.8,54.2 -117.1,54.2 -117.4,54.2 
		-117.7,54.2 -118,54.2 -118.3,54.2 -118.6,54.2 -118.9,54.2 -119.1,54.2 -119.4,54.2 -119.7,54.2 -120,54.2 -120.3,54.2 
		-120.5,54.2 -120.7,54.2 -120.9,54.2 -121.1,54.2 -121.3,54.2 -121.4,54.2 -121.6,54.2 -121.8,54.2 -122,54.2 -122.2,54.2 
		-122.4,54.2 -122.6,54.2 -122.8,54.2 -123,54.2 -123.2,54.2 -123.4,54.2 -123.5,54.2 -123.7,54.2 -123.9,54.2 -124.1,54.2 
		-124.3,54.2 -124.5,54.2 -124.7,54.2 -124.9,54.2 -125.1,54.2 -125.3,54.2 -125.5,54.2 -125.6,54.2 -125.8,54.2 -126,54.2 
		-126.2,54.2 -126.4,54.2 -126.6,54.2 -126.8,54.2 -127,54.2 -127.2,54.2 -127.4,54.2 -127.6,54.2 -127.7,54.2 -127.9,54.2 
		-128.1,54.2 -128.1,55.5 -127.9,55.5 -127.7,55.5 -127.6,55.5 -127.4,55.5 -127.2,55.5 -127,55.5 -126.8,55.5 -126.6,55.5 
		-126.4,55.5 -126.2,55.5 -126,55.5 -125.8,55.5 -125.6,55.5 -125.5,55.5 -125.3,55.5 -125.1,55.5 -124.9,55.5 -124.7,55.5 
		-124.5,55.5 -124.3,55.5 -124.1,55.5 -123.9,55.5 -123.7,55.5 -123.5,55.5 -123.4,55.5 -123.2,55.5 -123,55.5 -122.8,55.5 
		-122.6,55.5 -122.4,55.5 -122.2,55.5 -122,55.5 -121.8,55.5 -121.6,55.5 -121.4,55.5 -121.3,55.5 -121.1,55.5 -120.9,55.5 
		-120.7,55.5 -120.5,55.5 -120.3,55.5 -120,55.5 -119.7,55.5 -119.4,55.5 -119.1,55.5 -118.9,55.5 -118.6,55.5 -118.3,55.5 
		-118,55.5 -117.7,55.5 -117.4,55.5 -117.1,55.5 -116.8,55.5 -116.5,55.5 -116.2,55.5 -116,55.5 -115.7,55.5 -115.4,55.5 
		-115.1,55.5 -114.8,55.5 -114.5,55.5 -114.2,55.5 -113.9,55.5 -113.6,55.5 -113.3,55.5 -113.1,55.5 -112.8,55.5 -112.5,55.5 
		-112.2,55.5 -111.9,55.5 -111.6,55.5 -111.3,55.5 -111,55.5 -110.7,55.5 -110.4,55.5 -110.2,55.5 -109.9,55.5 -109.6,55.5 
		-109.3,55.5 -109,55.5 -108.7,55.5 -108.4,55.5 -108.1,55.5 -107.8,55.5 -107.5,55.5 -107.3,55.5 -107,55.5 -106.7,55.5 
		-106.4,55.5 -106.1,55.5 -105.8,55.5 -105.5,55.5 -105.2,55.5 -104.9,55.5 -104.6,55.5 -104.4,55.5 -104.1,55.5 -103.8,55.5 
		-103.6,55.5 -103.4,55.5 -103.3,55.5 -103.1,55.5 -102.9,55.5 -102.7,55.5 -102.6,55.5 -102.4,55.5 -102.2,55.5 -102,55.5 
		-101.9,55.5 -101.7,55.5 -101.5,55.5 -101.3,55.5 -101.2,55.5 -101,55.5 -100.8,55.5 -100.7,55.5 -100.5,55.5 -100.3,55.5 
		-100.1,55.5 -100,55.5 -99.8,55.5 -99.6,55.5 -99.4,55.5 -99.3,55.5 -99.1,55.5 -98.9,55.5 -98.8,55.5 -98.6,55.5 -98.4,55.5 
		-98.2,55.5 -98.1,55.5 -97.9,55.5 -97.7,55.5 -97.5,55.5 -97.4,55.5 -97.2,55.5 -97,55.5 -96.8,55.5 -96.7,55.5 -96.5,55.5 
		-96.3,55.5 -96.2,55.5 -96,55.5 -95.8,55.5 -95.6,55.5 -95.5,55.5 -95.3,55.5 -95.1,55.5 -94.9,55.5 -94.8,55.5 -94.6,55.5 
		-94.4,55.5 -94.3,55.5 -94.1,55.5 -93.9,55.5 -93.7,55.5 -93.6,55.5 -93.4,55.5 -93.2,55.5 -93,55.5 -92.9,55.5 -92.7,55.5 
		-92.5,55.5 -92.3,55.5 -92.2,55.5 -92,55.5 -91.8,55.5 -91.7,55.5 -91.5,55.5 -91.3,55.5 -91.1,55.5 -91,55.5 -90.8,55.5 
		-90.6,55.5 -90.4,55.5 -90.3,55.5 -90.1,55.5 -89.9,55.5 -89.8,55.5 -89.6,55.5 -89.4,55.5 -89.2,55.5 -89.1,55.5 -88.9,55.5 
		-88.7,55.5 -88.5,55.5 -88.4,55.5 -88.2,55.5 -88,55.5 -87.8,55.5 -87.7,55.5 -87.5,55.5 -87.3,55.5 -87.2,55.5 -87,55.5 
		-86.8,55.5 -86.8,54.2 	"/>
	<polygon class="st5" points="-87,58.4 -87.2,58.4 -87.3,58.4 -87.5,58.4 -87.7,58.4 -87.8,58.4 -88,58.4 -88.2,58.4 -88.4,58.4 
		-88.5,58.4 -88.7,58.4 -88.9,58.4 -89.1,58.4 -89.2,58.4 -89.4,58.4 -89.6,58.4 -89.8,58.4 -89.9,58.4 -90.1,58.4 -90.3,58.4 
		-90.4,58.4 -90.6,58.4 -90.8,58.4 -91,58.4 -91.1,58.4 -91.3,58.4 -91.5,58.4 -91.7,58.4 -91.8,58.4 -92,58.4 -92.2,58.4 
		-92.3,58.4 -92.5,58.4 -92.7,58.4 -92.9,58.4 -93,58.4 -93.2,58.4 -93.4,58.4 -93.6,58.4 -93.7,58.4 -93.9,58.4 -94.1,58.4 
		-94.3,58.4 -94.4,58.4 -94.6,58.4 -94.8,58.4 -94.9,58.4 -95.1,58.4 -95.3,58.4 -95.5,58.4 -95.6,58.4 -95.8,58.4 -96,58.4 
		-96.2,58.4 -96.3,58.4 -96.5,58.4 -96.7,58.4 -96.8,58.4 -97,58.4 -97.2,58.4 -97.4,58.4 -97.5,58.4 -97.7,58.4 -97.9,58.4 
		-98.1,58.4 -98.2,58.4 -98.4,58.4 -98.6,58.4 -98.8,58.4 -98.9,58.4 -99.1,58.4 -99.3,58.4 -99.4,58.4 -99.6,58.4 -99.8,58.4 
		-100,58.4 -100.1,58.4 -100.3,58.4 -100.5,58.4 -100.7,58.4 -100.8,58.4 -101,58.4 -101.2,58.4 -101.3,58.4 -101.5,58.4 
		-101.7,58.4 -101.9,58.4 -102,58.4 -102.2,58.4 -102.4,58.4 -102.6,58.4 -102.7,58.4 -102.9,58.4 -103.1,58.4 -103.3,58.4 
		-103.4,58.4 -103.6,58.4 -103.8,58.4 -104.1,58.4 -104.4,58.4 -104.6,58.4 -104.9,58.4 -105.2,58.4 -105.5,58.4 -105.8,58.4 
		-106.1,58.4 -106.4,58.4 -106.7,58.4 -107,58.4 -107.3,58.4 -107.5,58.4 -107.8,58.4 -108.1,58.4 -108.4,58.4 -108.7,58.4 
		-109,58.4 -109.3,58.4 -109.6,58.4 -109.9,58.4 -110.2,58.4 -110.4,58.4 -110.7,58.4 -111,58.4 -111.3,58.4 -111.6,58.4 
		-111.9,58.4 -112.2,58.4 -112.5,58.4 -112.8,58.4 -113.1,58.4 -113.3,58.4 -113.6,58.4 -113.9,58.4 -114.2,58.4 -114.5,58.4 
		-114.8,58.4 -115.1,58.4 -115.4,58.4 -115.7,58.4 -116,58.4 -116.2,58.4 -116.5,58.4 -116.8,58.4 -117.1,58.4 -117.4,58.4 
		-117.7,58.4 -118,58.4 -118.3,58.4 -118.6,58.4 -118.9,58.4 -119.1,58.4 -119.4,58.4 -119.7,58.4 -120,58.4 -120.3,58.4 
		-120.5,58.4 -120.7,58.4 -120.9,58.4 -121.1,58.4 -121.3,58.4 -121.4,58.4 -121.6,58.4 -121.8,58.4 -122,58.4 -122.2,58.4 
		-122.4,58.4 -122.6,58.4 -122.8,58.4 -123,58.4 -123.2,58.4 -123.4,58.4 -123.5,58.4 -123.7,58.4 -123.9,58.4 -124.1,58.4 
		-124.3,58.4 -124.5,58.4 -124.7,58.4 -124.9,58.4 -125.1,58.4 -125.3,58.4 -125.5,58.4 -125.6,58.4 -125.8,58.4 -126,58.4 
		-126.2,58.4 -126.4,58.4 -126.6,58.4 -126.8,58.4 -127,58.4 -127.2,58.4 -127.4,58.4 -127.6,58.4 -127.7,58.4 -127.9,58.4 
		-128.1,58.4 -128.1,59.7 -127.9,59.7 -127.7,59.7 -127.6,59.7 -127.4,59.7 -127.2,59.7 -127,59.7 -126.8,59.7 -126.6,59.7 
		-126.4,59.7 -126.2,59.7 -126,59.7 -125.8,59.7 -125.6,59.7 -125.5,59.7 -125.3,59.7 -125.1,59.7 -124.9,59.7 -124.7,59.7 
		-124.5,59.7 -124.3,59.7 -124.1,59.7 -123.9,59.7 -123.7,59.7 -123.5,59.7 -123.4,59.7 -123.2,59.7 -123,59.7 -122.8,59.7 
		-122.6,59.7 -122.4,59.7 -122.2,59.7 -122,59.7 -121.8,59.7 -121.6,59.7 -121.4,59.7 -121.3,59.7 -121.1,59.7 -120.9,59.7 
		-120.7,59.7 -120.5,59.7 -120.3,59.7 -120,59.7 -119.7,59.7 -119.4,59.7 -119.1,59.7 -118.9,59.7 -118.6,59.7 -118.3,59.7 
		-118,59.7 -117.7,59.7 -117.4,59.7 -117.1,59.7 -116.8,59.7 -116.5,59.7 -116.2,59.7 -116,59.7 -115.7,59.7 -115.4,59.7 
		-115.1,59.7 -114.8,59.7 -114.5,59.7 -114.2,59.7 -113.9,59.7 -113.6,59.7 -113.3,59.7 -113.1,59.7 -112.8,59.7 -112.5,59.7 
		-112.2,59.7 -111.9,59.7 -111.6,59.7 -111.3,59.7 -111,59.7 -110.7,59.7 -110.4,59.7 -110.2,59.7 -109.9,59.7 -109.6,59.7 
		-109.3,59.7 -109,59.7 -108.7,59.7 -108.4,59.7 -108.1,59.7 -107.8,59.7 -107.5,59.7 -107.3,59.7 -107,59.7 -106.7,59.7 
		-106.4,59.7 -106.1,59.7 -105.8,59.7 -105.5,59.7 -105.2,59.7 -104.9,59.7 -104.6,59.7 -104.4,59.7 -104.1,59.7 -103.8,59.7 
		-103.6,59.7 -103.4,59.7 -103.3,59.7 -103.1,59.7 -102.9,59.7 -102.7,59.7 -102.6,59.7 -102.4,59.7 -102.2,59.7 -102,59.7 
		-101.9,59.7 -101.7,59.7 -101.5,59.7 -101.3,59.7 -101.2,59.7 -101,59.7 -100.8,59.7 -100.7,59.7 -100.5,59.7 -100.3,59.7 
		-100.1,59.7 -100,59.7 -99.8,59.7 -99.6,59.7 -99.4,59.7 -99.3,59.7 -99.1,59.7 -98.9,59.7 -98.8,59.7 -98.6,59.7 -98.4,59.7 
		-98.2,59.7 -98.1,59.7 -97.9,59.7 -97.7,59.7 -97.5,59.7 -97.4,59.7 -97.2,59.7 -97,59.7 -96.8,59.7 -96.7,59.7 -96.5,59.7 
		-96.3,59.7 -96.2,59.7 -96,59.7 -95.8,59.7 -95.6,59.7 -95.5,59.7 -95.3,59.7 -95.1,59.7 -94.9,59.7 -94.8,59.7 -94.6,59.7 
		-94.4,59.7 -94.3,59.7 -94.1,59.7 -93.9,59.7 -93.7,59.7 -93.6,59.7 -93.4,59.7 -93.2,59.7 -93,59.7 -92.9,59.7 -92.7,59.7 
		-92.5,59.7 -92.3,59.7 -92.2,59.7 -92,59.7 -91.8,59.7 -91.7,59.7 -91.5,59.7 -91.3,59.7 -91.1,59.7 -91,59.7 -90.8,59.7 
		-90.6,59.7 -90.4,59.7 -90.3,59.7 -90.1,59.7 -89.9,59.7 -89.8,59.7 -89.6,59.7 -89.4,59.7 -89.2,59.7 -89.1,59.7 -88.9,59.7 
		-88.7,59.7 -88.5,59.7 -88.4,59.7 -88.2,59.7 -88,59.7 -87.8,59.7 -87.7,59.7 -87.5,59.7 -87.3,59.7 -87.2,59.7 -87,59.7 
		-86.8,59.7 -86.8,58.4 	"/>
	<polygon class="st5" points="-87,62.7 -87.2,62.7 -87.3,62.7 -87.5,62.7 -87.7,62.7 -87.8,62.7 -88,62.7 -88.2,62.7 -88.4,62.7 
		-88.5,62.7 -88.7,62.7 -88.9,62.7 -89.1,62.7 -89.2,62.7 -89.4,62.7 -89.6,62.7 -89.8,62.7 -89.9,62.7 -90.1,62.7 -90.3,62.7 
		-90.4,62.7 -90.6,62.7 -90.8,62.7 -91,62.7 -91.1,62.7 -91.3,62.7 -91.5,62.7 -91.7,62.7 -91.8,62.7 -92,62.7 -92.2,62.7 
		-92.3,62.7 -92.5,62.7 -92.7,62.7 -92.9,62.7 -93,62.7 -93.2,62.7 -93.4,62.7 -93.6,62.7 -93.7,62.7 -93.9,62.7 -94.1,62.7 
		-94.3,62.7 -94.4,62.7 -94.6,62.7 -94.8,62.7 -94.9,62.7 -95.1,62.7 -95.3,62.7 -95.5,62.7 -95.6,62.7 -95.8,62.7 -96,62.7 
		-96.2,62.7 -96.3,62.7 -96.5,62.7 -96.7,62.7 -96.8,62.7 -97,62.7 -97.2,62.7 -97.4,62.7 -97.5,62.7 -97.7,62.7 -97.9,62.7 
		-98.1,62.7 -98.2,62.7 -98.4,62.7 -98.6,62.7 -98.8,62.7 -98.9,62.7 -99.1,62.7 -99.3,62.7 -99.4,62.7 -99.6,62.7 -99.8,62.7 
		-100,62.7 -100.1,62.7 -100.3,62.7 -100.5,62.7 -100.7,62.7 -100.8,62.7 -101,62.7 -101.2,62.7 -101.3,62.7 -101.5,62.7 
		-101.7,62.7 -101.9,62.7 -102,62.7 -102.2,62.7 -102.4,62.7 -102.6,62.7 -102.7,62.7 -102.9,62.7 -103.1,62.7 -103.3,62.7 
		-103.4,62.7 -103.6,62.7 -103.8,62.7 -104.1,62.7 -104.4,62.7 -104.6,62.7 -104.9,62.7 -105.2,62.7 -105.5,62.7 -105.8,62.7 
		-106.1,62.7 -106.4,62.7 -106.7,62.7 -107,62.7 -107.3,62.7 -107.5,62.7 -107.8,62.7 -108.1,62.7 -108.4,62.7 -108.7,62.7 
		-109,62.7 -109.3,62.7 -109.6,62.7 -109.9,62.7 -110.2,62.7 -110.4,62.7 -110.7,62.7 -111,62.7 -111.3,62.7 -111.6,62.7 
		-111.9,62.7 -112.2,62.7 -112.5,62.7 -112.8,62.7 -113.1,62.7 -113.3,62.7 -113.6,62.7 -113.9,62.7 -114.2,62.7 -114.5,62.7 
		-114.8,62.7 -115.1,62.7 -115.4,62.7 -115.7,62.7 -116,62.7 -116.2,62.7 -116.5,62.7 -116.8,62.7 -117.1,62.7 -117.4,62.7 
		-117.7,62.7 -118,62.7 -118.3,62.7 -118.6,62.7 -118.9,62.7 -119.1,62.7 -119.4,62.7 -119.7,62.7 -120,62.7 -120.3,62.7 
		-120.5,62.7 -120.7,62.7 -120.9,62.7 -121.1,62.7 -121.3,62.7 -121.4,62.7 -121.6,62.7 -121.8,62.7 -122,62.7 -122.2,62.7 
		-122.4,62.7 -122.6,62.7 -122.8,62.7 -123,62.7 -123.2,62.7 -123.4,62.7 -123.5,62.7 -123.7,62.7 -123.9,62.7 -124.1,62.7 
		-124.3,62.7 -124.5,62.7 -124.7,62.7 -124.9,62.7 -125.1,62.7 -125.3,62.7 -125.5,62.7 -125.6,62.7 -125.8,62.7 -126,62.7 
		-126.2,62.7 -126.4,62.7 -126.6,62.7 -126.8,62.7 -127,62.7 -127.2,62.7 -127.4,62.7 -127.6,62.7 -127.7,62.7 -127.9,62.7 
		-128.1,62.7 -128.1,64 -127.9,64 -127.7,64 -127.6,64 -127.4,64 -127.2,64 -127,64 -126.8,64 -126.6,64 -126.4,64 -126.2,64 
		-126,64 -125.8,64 -125.6,64 -125.5,64 -125.3,64 -125.1,64 -124.9,64 -124.7,64 -124.5,64 -124.3,64 -124.1,64 -123.9,64 
		-123.7,64 -123.5,64 -123.4,64 -123.2,64 -123,64 -122.8,64 -122.6,64 -122.4,64 -122.2,64 -122,64 -121.8,64 -121.6,64 -121.4,64 
		-121.3,64 -121.1,64 -120.9,64 -120.7,64 -120.5,64 -120.3,64 -120,64 -119.7,64 -119.4,64 -119.1,64 -118.9,64 -118.6,64 
		-118.3,64 -118,64 -117.7,64 -117.4,64 -117.1,64 -116.8,64 -116.5,64 -116.2,64 -116,64 -115.7,64 -115.4,64 -115.1,64 -114.8,64 
		-114.5,64 -114.2,64 -113.9,64 -113.6,64 -113.3,64 -113.1,64 -112.8,64 -112.5,64 -112.2,64 -111.9,64 -111.6,64 -111.3,64 
		-111,64 -110.7,64 -110.4,64 -110.2,64 -109.9,64 -109.6,64 -109.3,64 -109,64 -108.7,64 -108.4,64 -108.1,64 -107.8,64 -107.5,64 
		-107.3,64 -107,64 -106.7,64 -106.4,64 -106.1,64 -105.8,64 -105.5,64 -105.2,64 -104.9,64 -104.6,64 -104.4,64 -104.1,64 
		-103.8,64 -103.6,64 -103.4,64 -103.3,64 -103.1,64 -102.9,64 -102.7,64 -102.6,64 -102.4,64 -102.2,64 -102,64 -101.9,64 
		-101.7,64 -101.5,64 -101.3,64 -101.2,64 -101,64 -100.8,64 -100.7,64 -100.5,64 -100.3,64 -100.1,64 -100,64 -99.8,64 -99.6,64 
		-99.4,64 -99.3,64 -99.1,64 -98.9,64 -98.8,64 -98.6,64 -98.4,64 -98.2,64 -98.1,64 -97.9,64 -97.7,64 -97.5,64 -97.4,64 -97.2,64 
		-97,64 -96.8,64 -96.7,64 -96.5,64 -96.3,64 -96.2,64 -96,64 -95.8,64 -95.6,64 -95.5,64 -95.3,64 -95.1,64 -94.9,64 -94.8,64 
		-94.6,64 -94.4,64 -94.3,64 -94.1,64 -93.9,64 -93.7,64 -93.6,64 -93.4,64 -93.2,64 -93,64 -92.9,64 -92.7,64 -92.5,64 -92.3,64 
		-92.2,64 -92,64 -91.8,64 -91.7,64 -91.5,64 -91.3,64 -91.1,64 -91,64 -90.8,64 -90.6,64 -90.4,64 -90.3,64 -90.1,64 -89.9,64 
		-89.8,64 -89.6,64 -89.4,64 -89.2,64 -89.1,64 -88.9,64 -88.7,64 -88.5,64 -88.4,64 -88.2,64 -88,64 -87.8,64 -87.7,64 -87.5,64 
		-87.3,64 -87.2,64 -87,64 -86.8,64 -86.8,62.7 	"/>
	<polygon class="st5" points="-87,66.9 -87.2,66.9 -87.3,66.9 -87.5,66.9 -87.7,66.9 -87.8,66.9 -88,66.9 -88.2,66.9 -88.4,66.9 
		-88.5,66.9 -88.7,66.9 -88.9,66.9 -89.1,66.9 -89.2,66.9 -89.4,66.9 -89.6,66.9 -89.8,66.9 -89.9,66.9 -90.1,66.9 -90.3,66.9 
		-90.4,66.9 -90.6,66.9 -90.8,66.9 -91,66.9 -91.1,66.9 -91.3,66.9 -91.5,66.9 -91.7,66.9 -91.8,66.9 -92,66.9 -92.2,66.9 
		-92.3,66.9 -92.5,66.9 -92.7,66.9 -92.9,66.9 -93,66.9 -93.2,66.9 -93.4,66.9 -93.6,66.9 -93.7,66.9 -93.9,66.9 -94.1,66.9 
		-94.3,66.9 -94.4,66.9 -94.6,66.9 -94.8,66.9 -94.9,66.9 -95.1,66.9 -95.3,66.9 -95.5,66.9 -95.6,66.9 -95.8,66.9 -96,66.9 
		-96.2,66.9 -96.3,66.9 -96.5,66.9 -96.7,66.9 -96.8,66.9 -97,66.9 -97.2,66.9 -97.4,66.9 -97.5,66.9 -97.7,66.9 -97.9,66.9 
		-98.1,66.9 -98.2,66.9 -98.4,66.9 -98.6,66.9 -98.8,66.9 -98.9,66.9 -99.1,66.9 -99.3,66.9 -99.4,66.9 -99.6,66.9 -99.8,66.9 
		-100,66.9 -100.1,66.9 -100.3,66.9 -100.5,66.9 -100.7,66.9 -100.8,66.9 -101,66.9 -101.2,66.9 -101.3,66.9 -101.5,66.9 
		-101.7,66.9 -101.9,66.9 -102,66.9 -102.2,66.9 -102.4,66.9 -102.6,66.9 -102.7,66.9 -102.9,66.9 -103.1,66.9 -103.3,66.9 
		-103.4,66.9 -103.6,66.9 -103.8,66.9 -104.1,66.9 -104.4,66.9 -104.6,66.9 -104.9,66.9 -105.2,66.9 -105.5,66.9 -105.8,66.9 
		-106.1,66.9 -106.4,66.9 -106.7,66.9 -107,66.9 -107.3,66.9 -107.5,66.9 -107.8,66.9 -108.1,66.9 -108.4,66.9 -108.7,66.9 
		-109,66.9 -109.3,66.9 -109.6,66.9 -109.9,66.9 -110.2,66.9 -110.4,66.9 -110.7,66.9 -111,66.9 -111.3,66.9 -111.6,66.9 
		-111.9,66.9 -112.2,66.9 -112.5,66.9 -112.8,66.9 -113.1,66.9 -113.3,66.9 -113.6,66.9 -113.9,66.9 -114.2,66.9 -114.5,66.9 
		-114.8,66.9 -115.1,66.9 -115.4,66.9 -115.7,66.9 -116,66.9 -116.2,66.9 -116.5,66.9 -116.8,66.9 -117.1,66.9 -117.4,66.9 
		-117.7,66.9 -118,66.9 -118.3,66.9 -118.6,66.9 -118.9,66.9 -119.1,66.9 -119.4,66.9 -119.7,66.9 -120,66.9 -120.3,66.9 
		-120.5,66.9 -120.7,66.9 -120.9,66.9 -121.1,66.9 -121.3,66.9 -121.4,66.9 -121.6,66.9 -121.8,66.9 -122,66.9 -122.2,66.9 
		-122.4,66.9 -122.6,66.9 -122.8,66.9 -123,66.9 -123.2,66.9 -123.4,66.9 -123.5,66.9 -123.7,66.9 -123.9,66.9 -124.1,66.9 
		-124.3,66.9 -124.5,66.9 -124.7,66.9 -124.9,66.9 -125.1,66.9 -125.3,66.9 -125.5,66.9 -125.6,66.9 -125.8,66.9 -126,66.9 
		-126.2,66.9 -126.4,66.9 -126.6,66.9 -126.8,66.9 -127,66.9 -127.2,66.9 -127.4,66.9 -127.6,66.9 -127.7,66.9 -127.9,66.9 
		-128.1,66.9 -128.1,68.2 -127.9,68.2 -127.7,68.2 -127.6,68.2 -127.4,68.2 -127.2,68.2 -127,68.2 -126.8,68.2 -126.6,68.2 
		-126.4,68.2 -126.2,68.2 -126,68.2 -125.8,68.2 -125.6,68.2 -125.5,68.2 -125.3,68.2 -125.1,68.2 -124.9,68.2 -124.7,68.2 
		-124.5,68.2 -124.3,68.2 -124.1,68.2 -123.9,68.2 -123.7,68.2 -123.5,68.2 -123.4,68.2 -123.2,68.2 -123,68.2 -122.8,68.2 
		-122.6,68.2 -122.4,68.2 -122.2,68.2 -122,68.2 -121.8,68.2 -121.6,68.2 -121.4,68.2 -121.3,68.2 -121.1,68.2 -120.9,68.2 
		-120.7,68.2 -120.5,68.2 -120.3,68.2 -120,68.2 -119.7,68.2 -119.4,68.2 -119.1,68.2 -118.9,68.2 -118.6,68.2 -118.3,68.2 
		-118,68.2 -117.7,68.2 -117.4,68.2 -117.1,68.2 -116.8,68.2 -116.5,68.2 -116.2,68.2 -116,68.2 -115.7,68.2 -115.4,68.2 
		-115.1,68.2 -114.8,68.2 -114.5,68.2 -114.2,68.2 -113.9,68.2 -113.6,68.2 -113.3,68.2 -113.1,68.2 -112.8,68.2 -112.5,68.2 
		-112.2,68.2 -111.9,68.2 -111.6,68.2 -111.3,68.2 -111,68.2 -110.7,68.2 -110.4,68.2 -110.2,68.2 -109.9,68.2 -109.6,68.2 
		-109.3,68.2 -109,68.2 -108.7,68.2 -108.4,68.2 -108.1,68.2 -107.8,68.2 -107.5,68.2 -107.3,68.2 -107,68.2 -106.7,68.2 
		-106.4,68.2 -106.1,68.2 -105.8,68.2 -105.5,68.2 -105.2,68.2 -104.9,68.2 -104.6,68.2 -104.4,68.2 -104.1,68.2 -103.8,68.2 
		-103.6,68.2 -103.4,68.2 -103.3,68.2 -103.1,68.2 -102.9,68.2 -102.7,68.2 -102.6,68.2 -102.4,68.2 -102.2,68.2 -102,68.2 
		-101.9,68.2 -101.7,68.2 -101.5,68.2 -101.3,68.2 -101.2,68.2 -101,68.2 -100.8,68.2 -100.7,68.2 -100.5,68.2 -100.3,68.2 
		-100.1,68.2 -100,68.2 -99.8,68.2 -99.6,68.2 -99.4,68.2 -99.3,68.2 -99.1,68.2 -98.9,68.2 -98.8,68.2 -98.6,68.2 -98.4,68.2 
		-98.2,68.2 -98.1,68.2 -97.9,68.2 -97.7,68.2 -97.5,68.2 -97.4,68.2 -97.2,68.2 -97,68.2 -96.8,68.2 -96.7,68.2 -96.5,68.2 
		-96.3,68.2 -96.2,68.2 -96,68.2 -95.8,68.2 -95.6,68.2 -95.5,68.2 -95.3,68.2 -95.1,68.2 -94.9,68.2 -94.8,68.2 -94.6,68.2 
		-94.4,68.2 -94.3,68.2 -94.1,68.2 -93.9,68.2 -93.7,68.2 -93.6,68.2 -93.4,68.2 -93.2,68.2 -93,68.2 -92.9,68.2 -92.7,68.2 
		-92.5,68.2 -92.3,68.2 -92.2,68.2 -92,68.2 -91.8,68.2 -91.7,68.2 -91.5,68.2 -91.3,68.2 -91.1,68.2 -91,68.2 -90.8,68.2 
		-90.6,68.2 -90.4,68.2 -90.3,68.2 -90.1,68.2 -89.9,68.2 -89.8,68.2 -89.6,68.2 -89.4,68.2 -89.2,68.2 -89.1,68.2 -88.9,68.2 
		-88.7,68.2 -88.5,68.2 -88.4,68.2 -88.2,68.2 -88,68.2 -87.8,68.2 -87.7,68.2 -87.5,68.2 -87.3,68.2 -87.2,68.2 -87,68.2 
		-86.8,68.2 -86.8,66.9 	"/>
	<polygon class="st5" points="-87,71.1 -87.2,71.1 -87.3,71.1 -87.5,71.1 -87.7,71.1 -87.8,71.1 -88,71.1 -88.2,71.1 -88.4,71.1 
		-88.5,71.1 -88.7,71.1 -88.9,71.1 -89.1,71.1 -89.2,71.1 -89.4,71.1 -89.6,71.1 -89.8,71.1 -89.9,71.1 -90.1,71.1 -90.3,71.1 
		-90.4,71.1 -90.6,71.1 -90.8,71.1 -91,71.1 -91.1,71.1 -91.3,71.1 -91.5,71.1 -91.7,71.1 -91.8,71.1 -92,71.1 -92.2,71.1 
		-92.3,71.1 -92.5,71.1 -92.7,71.1 -92.9,71.1 -93,71.1 -93.2,71.1 -93.4,71.1 -93.6,71.1 -93.7,71.1 -93.9,71.1 -94.1,71.1 
		-94.3,71.1 -94.4,71.1 -94.6,71.1 -94.8,71.1 -94.9,71.1 -95.1,71.1 -95.3,71.1 -95.5,71.1 -95.6,71.1 -95.8,71.1 -96,71.1 
		-96.2,71.1 -96.3,71.1 -96.5,71.1 -96.7,71.1 -96.8,71.1 -97,71.1 -97.2,71.1 -97.4,71.1 -97.5,71.1 -97.7,71.1 -97.9,71.1 
		-98.1,71.1 -98.2,71.1 -98.4,71.1 -98.6,71.1 -98.8,71.1 -98.9,71.1 -99.1,71.1 -99.3,71.1 -99.4,71.1 -99.6,71.1 -99.8,71.1 
		-100,71.1 -100.1,71.1 -100.3,71.1 -100.5,71.1 -100.7,71.1 -100.8,71.1 -101,71.1 -101.2,71.1 -101.3,71.1 -101.5,71.1 
		-101.7,71.1 -101.9,71.1 -102,71.1 -102.2,71.1 -102.4,71.1 -102.6,71.1 -102.7,71.1 -102.9,71.1 -103.1,71.1 -103.3,71.1 
		-103.4,71.1 -103.6,71.1 -103.8,71.1 -104.1,71.1 -104.4,71.1 -104.6,71.1 -104.9,71.1 -105.2,71.1 -105.5,71.1 -105.8,71.1 
		-106.1,71.1 -106.4,71.1 -106.7,71.1 -107,71.1 -107.3,71.1 -107.5,71.1 -107.8,71.1 -108.1,71.1 -108.4,71.1 -108.7,71.1 
		-109,71.1 -109.3,71.1 -109.6,71.1 -109.9,71.1 -110.2,71.1 -110.4,71.1 -110.7,71.1 -111,71.1 -111.3,71.1 -111.6,71.1 
		-111.9,71.1 -112.2,71.1 -112.5,71.1 -112.8,71.1 -113.1,71.1 -113.3,71.1 -113.6,71.1 -113.9,71.1 -114.2,71.1 -114.5,71.1 
		-114.8,71.1 -115.1,71.1 -115.4,71.1 -115.7,71.1 -116,71.1 -116.2,71.1 -116.5,71.1 -116.8,71.1 -117.1,71.1 -117.4,71.1 
		-117.7,71.1 -118,71.1 -118.3,71.1 -118.6,71.1 -118.9,71.1 -119.1,71.1 -119.4,71.1 -119.7,71.1 -120,71.1 -120.3,71.1 
		-120.5,71.1 -120.7,71.1 -120.9,71.1 -121.1,71.1 -121.3,71.1 -121.4,71.1 -121.6,71.1 -121.8,71.1 -122,71.1 -122.2,71.1 
		-122.4,71.1 -122.6,71.1 -122.8,71.1 -123,71.1 -123.2,71.1 -123.4,71.1 -123.5,71.1 -123.7,71.1 -123.9,71.1 -124.1,71.1 
		-124.3,71.1 -124.5,71.1 -124.7,71.1 -124.9,71.1 -125.1,71.1 -125.3,71.1 -125.5,71.1 -125.6,71.1 -125.8,71.1 -126,71.1 
		-126.2,71.1 -126.4,71.1 -126.6,71.1 -126.8,71.1 -127,71.1 -127.2,71.1 -127.4,71.1 -127.6,71.1 -127.7,71.1 -127.9,71.1 
		-128.1,71.1 -128.1,72.4 -127.9,72.4 -127.7,72.4 -127.6,72.4 -127.4,72.4 -127.2,72.4 -127,72.4 -126.8,72.4 -126.6,72.4 
		-126.4,72.4 -126.2,72.4 -126,72.4 -125.8,72.4 -125.6,72.4 -125.5,72.4 -125.3,72.4 -125.1,72.4 -124.9,72.4 -124.7,72.4 
		-124.5,72.4 -124.3,72.4 -124.1,72.4 -123.9,72.4 -123.7,72.4 -123.5,72.4 -123.4,72.4 -123.2,72.4 -123,72.4 -122.8,72.4 
		-122.6,72.4 -122.4,72.4 -122.2,72.4 -122,72.4 -121.8,72.4 -121.6,72.4 -121.4,72.4 -121.3,72.4 -121.1,72.4 -120.9,72.4 
		-120.7,72.4 -120.5,72.4 -120.3,72.4 -120,72.4 -119.7,72.4 -119.4,72.4 -119.1,72.4 -118.9,72.4 -118.6,72.4 -118.3,72.4 
		-118,72.4 -117.7,72.4 -117.4,72.4 -117.1,72.4 -116.8,72.4 -116.5,72.4 -116.2,72.4 -116,72.4 -115.7,72.4 -115.4,72.4 
		-115.1,72.4 -114.8,72.4 -114.5,72.4 -114.2,72.4 -113.9,72.4 -113.6,72.4 -113.3,72.4 -113.1,72.4 -112.8,72.4 -112.5,72.4 
		-112.2,72.4 -111.9,72.4 -111.6,72.4 -111.3,72.4 -111,72.4 -110.7,72.4 -110.4,72.4 -110.2,72.4 -109.9,72.4 -109.6,72.4 
		-109.3,72.4 -109,72.4 -108.7,72.4 -108.4,72.4 -108.1,72.4 -107.8,72.4 -107.5,72.4 -107.3,72.4 -107,72.4 -106.7,72.4 
		-106.4,72.4 -106.1,72.4 -105.8,72.4 -105.5,72.4 -105.2,72.4 -104.9,72.4 -104.6,72.4 -104.4,72.4 -104.1,72.4 -103.8,72.4 
		-103.6,72.4 -103.4,72.4 -103.3,72.4 -103.1,72.4 -102.9,72.4 -102.7,72.4 -102.6,72.4 -102.4,72.4 -102.2,72.4 -102,72.4 
		-101.9,72.4 -101.7,72.4 -101.5,72.4 -101.3,72.4 -101.2,72.4 -101,72.4 -100.8,72.4 -100.7,72.4 -100.5,72.4 -100.3,72.4 
		-100.1,72.4 -100,72.4 -99.8,72.4 -99.6,72.4 -99.4,72.4 -99.3,72.4 -99.1,72.4 -98.9,72.4 -98.8,72.4 -98.6,72.4 -98.4,72.4 
		-98.2,72.4 -98.1,72.4 -97.9,72.4 -97.7,72.4 -97.5,72.4 -97.4,72.4 -97.2,72.4 -97,72.4 -96.8,72.4 -96.7,72.4 -96.5,72.4 
		-96.3,72.4 -96.2,72.4 -96,72.4 -95.8,72.4 -95.6,72.4 -95.5,72.4 -95.3,72.4 -95.1,72.4 -94.9,72.4 -94.8,72.4 -94.6,72.4 
		-94.4,72.4 -94.3,72.4 -94.1,72.4 -93.9,72.4 -93.7,72.4 -93.6,72.4 -93.4,72.4 -93.2,72.4 -93,72.4 -92.9,72.4 -92.7,72.4 
		-92.5,72.4 -92.3,72.4 -92.2,72.4 -92,72.4 -91.8,72.4 -91.7,72.4 -91.5,72.4 -91.3,72.4 -91.1,72.4 -91,72.4 -90.8,72.4 
		-90.6,72.4 -90.4,72.4 -90.3,72.4 -90.1,72.4 -89.9,72.4 -89.8,72.4 -89.6,72.4 -89.4,72.4 -89.2,72.4 -89.1,72.4 -88.9,72.4 
		-88.7,72.4 -88.5,72.4 -88.4,72.4 -88.2,72.4 -88,72.4 -87.8,72.4 -87.7,72.4 -87.5,72.4 -87.3,72.4 -87.2,72.4 -87,72.4 
		-86.8,72.4 -86.8,71.1 	"/>
	<g>
		<g>
			<g id="c1_ray_2_">
				<g>
					<linearGradient id="SVGID_6_" gradientUnits="userSpaceOnUse" x1="-91.2721" y1="33.1812" x2="-82.3277" y2="33.1812">
						<stop  offset="0" style="stop-color:#7895F4"/>
						<stop  offset="0.1895" style="stop-color:#4C91F5"/>
						<stop  offset="0.3323" style="stop-color:#5FAAF8"/>
						<stop  offset="0.4866" style="stop-color:#6FBFFB"/>
						<stop  offset="0.5895" style="stop-color:#75C6FC"/>
						<stop  offset="0.6514" style="stop-color:#76B8FA"/>
						<stop  offset="0.7654" style="stop-color:#77A5F7"/>
						<stop  offset="0.8811" style="stop-color:#7899F5"/>
						<stop  offset="1" style="stop-color:#7895F4"/>
					</linearGradient>
					<path class="st6" d="M-90.8,40.2l2.2-5.9h-2.7l8.2-8.2l-2,5.9h2.8L-90.8,40.2z M-89.5,33.6h2l-1.4,3.8l4.8-4.6h-2l1.3-3.9
						L-89.5,33.6z"/>
				</g>
			</g>
			<g id="Capa_1_2_">
			</g>
		</g>
		<g>
			<linearGradient id="SVGID_7_" gradientUnits="userSpaceOnUse" x1="-96.9037" y1="38.616" x2="-76.7114" y2="26.2043">
				<stop  offset="0" style="stop-color:#7895F4"/>
				<stop  offset="0.1895" style="stop-color:#4C91F5"/>
				<stop  offset="0.3323" style="stop-color:#5FAAF8"/>
				<stop  offset="0.4866" style="stop-color:#6FBFFB"/>
				<stop  offset="0.5895" style="stop-color:#75C6FC"/>
				<stop  offset="0.6514" style="stop-color:#76B8FA"/>
				<stop  offset="0.7654" style="stop-color:#77A5F7"/>
				<stop  offset="0.8811" style="stop-color:#7899F5"/>
				<stop  offset="1" style="stop-color:#7895F4"/>
			</linearGradient>
			<path class="st7" d="M-86.8,44.3c-6.5,0-11.9-5.3-11.9-11.9c0-6.5,5.3-11.9,11.9-11.9c6.5,0,11.9,5.3,11.9,11.9
				C-75,38.9-80.3,44.3-86.8,44.3z M-86.8,21.7c-5.9,0-10.7,4.8-10.7,10.7s4.8,10.7,10.7,10.7s10.7-4.8,10.7-10.7
				S-80.9,21.7-86.8,21.7z"/>
		</g>
	</g>
	<g>
		<linearGradient id="SVGID_8_" gradientUnits="userSpaceOnUse" x1="-133.6169" y1="50.4028" x2="-70.0072" y2="50.4028">
			<stop  offset="0" style="stop-color:#7895F4"/>
			<stop  offset="0.1895" style="stop-color:#4C91F5"/>
			<stop  offset="0.3323" style="stop-color:#5FAAF8"/>
			<stop  offset="0.4866" style="stop-color:#6FBFFB"/>
			<stop  offset="0.5895" style="stop-color:#75C6FC"/>
			<stop  offset="0.6514" style="stop-color:#76B8FA"/>
			<stop  offset="0.7654" style="stop-color:#77A5F7"/>
			<stop  offset="0.8811" style="stop-color:#7899F5"/>
			<stop  offset="1" style="stop-color:#7895F4"/>
		</linearGradient>
		<path class="st8" d="M-75.7,88.3h-52.3c-3.1,0-5.7-3.9-5.7-8.6V21.2c0-4.8,2.5-8.6,5.7-8.6h52.3c3.1,0,5.7,3.9,5.7,8.6v58.4
			C-70,84.4-72.6,88.3-75.7,88.3z M-127.9,14.5c-2.4,0-4.4,3-4.4,6.7v58.4c0,3.7,2,6.7,4.4,6.7h52.3c2.4,0,4.4-3,4.4-6.7V21.2
			c0-3.7-2-6.7-4.4-6.7H-127.9z"/>
	</g>
</g>
<g>
	<g>
		<linearGradient id="SVGID_9_" gradientUnits="userSpaceOnUse" x1="131.4159" y1="34.6891" x2="207.3443" y2="34.6891">
			<stop  offset="0" style="stop-color:#7895F4"/>
			<stop  offset="0.1895" style="stop-color:#4C91F5"/>
			<stop  offset="0.3323" style="stop-color:#5FAAF8"/>
			<stop  offset="0.4866" style="stop-color:#6FBFFB"/>
			<stop  offset="0.5895" style="stop-color:#75C6FC"/>
			<stop  offset="0.6514" style="stop-color:#76B8FA"/>
			<stop  offset="0.7654" style="stop-color:#77A5F7"/>
			<stop  offset="0.8811" style="stop-color:#7899F5"/>
			<stop  offset="1" style="stop-color:#7895F4"/>
		</linearGradient>
		<path class="st9" d="M199.5,42.6h-60.2c-4.3,0-7.9-3.5-7.9-7.9s3.5-7.9,7.9-7.9h60.2c4.3,0,7.9,3.5,7.9,7.9S203.8,42.6,199.5,42.6
			z M139.3,28.6c-3.4,0-6.1,2.7-6.1,6.1s2.7,6.1,6.1,6.1h60.2c3.4,0,6.1-2.7,6.1-6.1s-2.7-6.1-6.1-6.1H139.3z"/>
	</g>
	<g>
		<linearGradient id="SVGID_10_" gradientUnits="userSpaceOnUse" x1="131.9087" y1="19.7003" x2="135.6243" y2="19.7003">
			<stop  offset="0" style="stop-color:#7895F4"/>
			<stop  offset="0.1895" style="stop-color:#4C91F5"/>
			<stop  offset="0.3323" style="stop-color:#5FAAF8"/>
			<stop  offset="0.4866" style="stop-color:#6FBFFB"/>
			<stop  offset="0.5895" style="stop-color:#75C6FC"/>
			<stop  offset="0.6514" style="stop-color:#76B8FA"/>
			<stop  offset="0.7654" style="stop-color:#77A5F7"/>
			<stop  offset="0.8811" style="stop-color:#7899F5"/>
			<stop  offset="1" style="stop-color:#7895F4"/>
		</linearGradient>
		<path class="st10" d="M133.8,21.6c-1,0-1.9-0.8-1.9-1.9s0.8-1.9,1.9-1.9c1,0,1.9,0.8,1.9,1.9S134.8,21.6,133.8,21.6z M133.8,18.7
			c-0.5,0-1,0.4-1,1s0.4,1,1,1c0.5,0,1-0.4,1-1S134.3,18.7,133.8,18.7z"/>
	</g>
	<g>
		<linearGradient id="SVGID_11_" gradientUnits="userSpaceOnUse" x1="136.1579" y1="19.7003" x2="139.8727" y2="19.7003">
			<stop  offset="0" style="stop-color:#7895F4"/>
			<stop  offset="0.1895" style="stop-color:#4C91F5"/>
			<stop  offset="0.3323" style="stop-color:#5FAAF8"/>
			<stop  offset="0.4866" style="stop-color:#6FBFFB"/>
			<stop  offset="0.5895" style="stop-color:#75C6FC"/>
			<stop  offset="0.6514" style="stop-color:#76B8FA"/>
			<stop  offset="0.7654" style="stop-color:#77A5F7"/>
			<stop  offset="0.8811" style="stop-color:#7899F5"/>
			<stop  offset="1" style="stop-color:#7895F4"/>
		</linearGradient>
		<path class="st11" d="M138,21.6c-1,0-1.9-0.8-1.9-1.9s0.8-1.9,1.9-1.9c1,0,1.9,0.8,1.9,1.9S139,21.6,138,21.6z M138,18.7
			c-0.5,0-1,0.4-1,1s0.4,1,1,1c0.5,0,1-0.4,1-1S138.5,18.7,138,18.7z"/>
	</g>
	<g>
		<linearGradient id="SVGID_12_" gradientUnits="userSpaceOnUse" x1="140.4062" y1="19.7003" x2="144.121" y2="19.7003">
			<stop  offset="0" style="stop-color:#7895F4"/>
			<stop  offset="0.1895" style="stop-color:#4C91F5"/>
			<stop  offset="0.3323" style="stop-color:#5FAAF8"/>
			<stop  offset="0.4866" style="stop-color:#6FBFFB"/>
			<stop  offset="0.5895" style="stop-color:#75C6FC"/>
			<stop  offset="0.6514" style="stop-color:#76B8FA"/>
			<stop  offset="0.7654" style="stop-color:#77A5F7"/>
			<stop  offset="0.8811" style="stop-color:#7899F5"/>
			<stop  offset="1" style="stop-color:#7895F4"/>
		</linearGradient>
		<path class="st12" d="M142.3,21.6c-1,0-1.9-0.8-1.9-1.9s0.8-1.9,1.9-1.9c1,0,1.9,0.8,1.9,1.9S143.3,21.6,142.3,21.6z M142.3,18.7
			c-0.5,0-1,0.4-1,1s0.4,1,1,1c0.5,0,1-0.4,1-1S142.8,18.7,142.3,18.7z"/>
	</g>
	<g>
		<linearGradient id="SVGID_13_" gradientUnits="userSpaceOnUse" x1="134.4809" y1="49.9829" x2="184.5247" y2="49.9829">
			<stop  offset="0" style="stop-color:#7895F4"/>
			<stop  offset="0.1895" style="stop-color:#4C91F5"/>
			<stop  offset="0.3323" style="stop-color:#5FAAF8"/>
			<stop  offset="0.4866" style="stop-color:#6FBFFB"/>
			<stop  offset="0.5895" style="stop-color:#75C6FC"/>
			<stop  offset="0.6514" style="stop-color:#76B8FA"/>
			<stop  offset="0.7654" style="stop-color:#77A5F7"/>
			<stop  offset="0.8811" style="stop-color:#7899F5"/>
			<stop  offset="1" style="stop-color:#7895F4"/>
		</linearGradient>
		<rect x="134.5" y="49.1" class="st13" width="50" height="1.8"/>
	</g>
	<g>
		<linearGradient id="SVGID_14_" gradientUnits="userSpaceOnUse" x1="134.4809" y1="56.2014" x2="184.5247" y2="56.2014">
			<stop  offset="0" style="stop-color:#7895F4"/>
			<stop  offset="0.1895" style="stop-color:#4C91F5"/>
			<stop  offset="0.3323" style="stop-color:#5FAAF8"/>
			<stop  offset="0.4866" style="stop-color:#6FBFFB"/>
			<stop  offset="0.5895" style="stop-color:#75C6FC"/>
			<stop  offset="0.6514" style="stop-color:#76B8FA"/>
			<stop  offset="0.7654" style="stop-color:#77A5F7"/>
			<stop  offset="0.8811" style="stop-color:#7899F5"/>
			<stop  offset="1" style="stop-color:#7895F4"/>
		</linearGradient>
		<rect x="134.5" y="55.3" class="st14" width="50" height="1.8"/>
	</g>
	<g>
		<linearGradient id="SVGID_15_" gradientUnits="userSpaceOnUse" x1="134.4809" y1="62.4199" x2="184.5247" y2="62.4199">
			<stop  offset="0" style="stop-color:#7895F4"/>
			<stop  offset="0.1895" style="stop-color:#4C91F5"/>
			<stop  offset="0.3323" style="stop-color:#5FAAF8"/>
			<stop  offset="0.4866" style="stop-color:#6FBFFB"/>
			<stop  offset="0.5895" style="stop-color:#75C6FC"/>
			<stop  offset="0.6514" style="stop-color:#76B8FA"/>
			<stop  offset="0.7654" style="stop-color:#77A5F7"/>
			<stop  offset="0.8811" style="stop-color:#7899F5"/>
			<stop  offset="1" style="stop-color:#7895F4"/>
		</linearGradient>
		<rect x="134.5" y="61.5" class="st15" width="50" height="1.8"/>
	</g>
	<g>
		<linearGradient id="SVGID_16_" gradientUnits="userSpaceOnUse" x1="134.4809" y1="68.6384" x2="184.5247" y2="68.6384">
			<stop  offset="0" style="stop-color:#7895F4"/>
			<stop  offset="0.1895" style="stop-color:#4C91F5"/>
			<stop  offset="0.3323" style="stop-color:#5FAAF8"/>
			<stop  offset="0.4866" style="stop-color:#6FBFFB"/>
			<stop  offset="0.5895" style="stop-color:#75C6FC"/>
			<stop  offset="0.6514" style="stop-color:#76B8FA"/>
			<stop  offset="0.7654" style="stop-color:#77A5F7"/>
			<stop  offset="0.8811" style="stop-color:#7899F5"/>
			<stop  offset="1" style="stop-color:#7895F4"/>
		</linearGradient>
		<rect x="134.5" y="67.8" class="st16" width="50" height="1.8"/>
	</g>
	<g>
		<linearGradient id="SVGID_17_" gradientUnits="userSpaceOnUse" x1="124.6667" y1="47.5612" x2="213" y2="47.5612">
			<stop  offset="0" style="stop-color:#7895F4"/>
			<stop  offset="0.1895" style="stop-color:#4C91F5"/>
			<stop  offset="0.3323" style="stop-color:#5FAAF8"/>
			<stop  offset="0.4866" style="stop-color:#6FBFFB"/>
			<stop  offset="0.5895" style="stop-color:#75C6FC"/>
			<stop  offset="0.6514" style="stop-color:#76B8FA"/>
			<stop  offset="0.7654" style="stop-color:#77A5F7"/>
			<stop  offset="0.8811" style="stop-color:#7899F5"/>
			<stop  offset="1" style="stop-color:#7895F4"/>
		</linearGradient>
		<path class="st17" d="M205.1,83.5h-72.6c-4.3,0-7.9-3.7-7.9-8.2V19.8c0-4.5,3.5-8.2,7.9-8.2h72.6c4.3,0,7.9,3.7,7.9,8.2v55.4
			C213,79.8,209.5,83.5,205.1,83.5z M132.5,13.5c-3.4,0-6.1,2.9-6.1,6.4v55.4c0,3.5,2.7,6.4,6.1,6.4h72.6c3.4,0,6.1-2.9,6.1-6.4
			V19.8c0-3.5-2.7-6.4-6.1-6.4H132.5z"/>
	</g>
</g>
<g>
	<defs>
		<rect id="SVGID_18_" y="17" width="96" height="69.3"/>
	</defs>
	<clipPath id="SVGID_19_">
		<use xlink:href="#SVGID_18_"  style="overflow:visible;"/>
	</clipPath>
	<g class="st18">
		<g>
			<linearGradient id="SVGID_20_" gradientUnits="userSpaceOnUse" x1="4.6087" y1="80.315" x2="4.6087" y2="17.0135">
				<stop  offset="0" style="stop-color:#7895F4"/>
				<stop  offset="0.1895" style="stop-color:#AAD0F5"/>
				<stop  offset="0.3323" style="stop-color:#91CBF8"/>
				<stop  offset="0.4866" style="stop-color:#7CC7FB"/>
				<stop  offset="0.5895" style="stop-color:#75C6FC"/>
			</linearGradient>
			<path class="st19" d="M4.6,80.3c-0.1,0-0.2-0.1-0.2-0.3V17.3c0-0.2,0.1-0.3,0.2-0.3c0.1,0,0.2,0.1,0.2,0.3V80
				C4.8,80.2,4.7,80.3,4.6,80.3z"/>
		</g>
		<g>
			<linearGradient id="SVGID_21_" gradientUnits="userSpaceOnUse" x1="42.6203" y1="80.315" x2="42.6203" y2="17.0135">
				<stop  offset="0" style="stop-color:#7895F4"/>
				<stop  offset="0.1895" style="stop-color:#AAD0F5"/>
				<stop  offset="0.3323" style="stop-color:#91CBF8"/>
				<stop  offset="0.4866" style="stop-color:#7CC7FB"/>
				<stop  offset="0.5895" style="stop-color:#75C6FC"/>
			</linearGradient>
			<path class="st20" d="M42.6,80.3c-0.1,0-0.2-0.1-0.2-0.3V17.3c0-0.2,0.1-0.3,0.2-0.3s0.2,0.1,0.2,0.3V80
				C42.8,80.2,42.7,80.3,42.6,80.3z"/>
		</g>
		<g>
			<linearGradient id="SVGID_22_" gradientUnits="userSpaceOnUse" x1="75.3751" y1="80.315" x2="75.3751" y2="17.0135">
				<stop  offset="0" style="stop-color:#7895F4"/>
				<stop  offset="0.1895" style="stop-color:#AAD0F5"/>
				<stop  offset="0.3323" style="stop-color:#91CBF8"/>
				<stop  offset="0.4866" style="stop-color:#7CC7FB"/>
				<stop  offset="0.5895" style="stop-color:#75C6FC"/>
			</linearGradient>
			<path class="st21" d="M75.4,80.3c-0.1,0-0.2-0.1-0.2-0.3V17.3c0-0.2,0.1-0.3,0.2-0.3s0.2,0.1,0.2,0.3V80
				C75.6,80.2,75.5,80.3,75.4,80.3z"/>
		</g>
		<g>
			<linearGradient id="SVGID_23_" gradientUnits="userSpaceOnUse" x1="108.13" y1="80.315" x2="108.13" y2="17.0135">
				<stop  offset="0" style="stop-color:#7895F4"/>
				<stop  offset="0.1895" style="stop-color:#AAD0F5"/>
				<stop  offset="0.3323" style="stop-color:#91CBF8"/>
				<stop  offset="0.4866" style="stop-color:#7CC7FB"/>
				<stop  offset="0.5895" style="stop-color:#75C6FC"/>
			</linearGradient>
			<path class="st22" d="M108.1,80.3c-0.1,0-0.2-0.1-0.2-0.3V17.3c0-0.2,0.1-0.3,0.2-0.3s0.2,0.1,0.2,0.3V80
				C108.4,80.2,108.3,80.3,108.1,80.3z"/>
		</g>
		<g>
			<linearGradient id="SVGID_24_" gradientUnits="userSpaceOnUse" x1="7.8563" y1="86.294" x2="122.3683" y2="15.9064">
				<stop  offset="0" style="stop-color:#7895F4"/>
				<stop  offset="0.1895" style="stop-color:#4C91F5"/>
				<stop  offset="0.3323" style="stop-color:#5FAAF8"/>
				<stop  offset="0.4866" style="stop-color:#6FBFFB"/>
				<stop  offset="0.5895" style="stop-color:#75C6FC"/>
				<stop  offset="0.6514" style="stop-color:#76B8FA"/>
				<stop  offset="0.7654" style="stop-color:#77A5F7"/>
				<stop  offset="0.8811" style="stop-color:#7899F5"/>
				<stop  offset="1" style="stop-color:#7895F4"/>
			</linearGradient>
			<path class="st23" d="M89.4,69.3c-9.7,0-16.4-8-22.9-15.6c-6.8-8.1-13.9-16.4-24.7-16.4c-12.2,0-21.1,9.6-28.9,18
				c-5.9,6.4-11,11.9-16.3,11.9c-0.5,0-0.9-0.5-0.9-1.2c0-0.7,0.4-1.2,0.9-1.2c4.7,0,9.5-5.2,15.2-11.3c7.7-8.3,17.3-18.6,30.1-18.6
				c11.5,0,18.8,8.7,25.9,17c6.5,7.7,12.7,15,21.7,15c9.8,0,14-14.5,18.1-28.5c3.5-12.1,6.8-23.6,13.8-23.6c0.5,0,0.9,0.5,0.9,1.2
				c0,0.7-0.4,1.2-0.9,1.2c-5.7,0-8.8,10.7-12.1,22C105.1,53.3,100.5,69.3,89.4,69.3z"/>
		</g>
		<g>
			<linearGradient id="SVGID_25_" gradientUnits="userSpaceOnUse" x1="1.7487" y1="63.4338" x2="7.4687" y2="59.9179">
				<stop  offset="0" style="stop-color:#7895F4"/>
				<stop  offset="0.1895" style="stop-color:#4C91F5"/>
				<stop  offset="0.3323" style="stop-color:#5FAAF8"/>
				<stop  offset="0.4866" style="stop-color:#6FBFFB"/>
				<stop  offset="0.5895" style="stop-color:#75C6FC"/>
				<stop  offset="0.6514" style="stop-color:#76B8FA"/>
				<stop  offset="0.7654" style="stop-color:#77A5F7"/>
				<stop  offset="0.8811" style="stop-color:#7899F5"/>
				<stop  offset="1" style="stop-color:#7895F4"/>
			</linearGradient>
			<path class="st24" d="M4.6,65.7c-1.7,0-3.1-1.8-3.1-4s1.4-4,3.1-4s3.1,1.8,3.1,4S6.3,65.7,4.6,65.7z M4.6,59.3
				c-1,0-1.8,1.1-1.8,2.3S3.6,64,4.6,64s1.8-1.1,1.8-2.3S5.6,59.3,4.6,59.3z"/>
		</g>
		<g>
			<linearGradient id="SVGID_26_" gradientUnits="userSpaceOnUse" x1="39.5343" y1="49.1648" x2="45.7065" y2="45.3708">
				<stop  offset="0" style="stop-color:#7895F4"/>
				<stop  offset="0.1895" style="stop-color:#4C91F5"/>
				<stop  offset="0.3323" style="stop-color:#5FAAF8"/>
				<stop  offset="0.4866" style="stop-color:#6FBFFB"/>
				<stop  offset="0.5895" style="stop-color:#75C6FC"/>
				<stop  offset="0.6514" style="stop-color:#76B8FA"/>
				<stop  offset="0.7654" style="stop-color:#77A5F7"/>
				<stop  offset="0.8811" style="stop-color:#7899F5"/>
				<stop  offset="1" style="stop-color:#7895F4"/>
			</linearGradient>
			<path class="st25" d="M42.6,51.6c-1.8,0-3.3-1.9-3.3-4.3s1.5-4.3,3.3-4.3s3.3,1.9,3.3,4.3S44.4,51.6,42.6,51.6z M42.6,45.3
				c-0.8,0-1.5,0.9-1.5,2s0.7,2,1.5,2s1.5-0.9,1.5-2S43.4,45.3,42.6,45.3z"/>
		</g>
		<g>
			
				<linearGradient id="SVGID_27_" gradientUnits="userSpaceOnUse" x1="-36.2226" y1="-479.0116" x2="-30.5729" y2="-482.4843" gradientTransform="matrix(0.866 0.5 -0.5 0.866 -152.9815 466.416)">
				<stop  offset="0" style="stop-color:#7895F4"/>
				<stop  offset="0.1895" style="stop-color:#4C91F5"/>
				<stop  offset="0.3323" style="stop-color:#5FAAF8"/>
				<stop  offset="0.4866" style="stop-color:#6FBFFB"/>
				<stop  offset="0.5895" style="stop-color:#75C6FC"/>
				<stop  offset="0.6514" style="stop-color:#76B8FA"/>
				<stop  offset="0.7654" style="stop-color:#77A5F7"/>
				<stop  offset="0.8811" style="stop-color:#7899F5"/>
				<stop  offset="1" style="stop-color:#7895F4"/>
			</linearGradient>
			<path class="st26" d="M58.5,37.7c-0.6,0-1.1-0.2-1.7-0.6c-0.8-0.6-1.3-1.5-1.5-2.6c-0.2-1.1-0.1-2.3,0.3-3.3c0.4-1,1.2-1.7,2-2
				c0.9-0.3,1.7-0.1,2.5,0.4c1.6,1.2,2.1,3.9,1.2,5.9l0,0C60.7,36.9,59.6,37.7,58.5,37.7z M58.5,31.4c-0.5,0-1,0.4-1.3,1
				c-0.4,0.9-0.2,2.1,0.5,2.7c0.7,0.5,1.6,0.2,2-0.7c0.4-0.9,0.2-2.1-0.5-2.7C59,31.5,58.7,31.4,58.5,31.4z M60.6,35L60.6,35
				L60.6,35z"/>
		</g>
		<g>
			
				<linearGradient id="SVGID_28_" gradientUnits="userSpaceOnUse" x1="-11.3101" y1="-469.6759" x2="-5.6603" y2="-473.1487" gradientTransform="matrix(0.866 0.5 -0.5 0.866 -152.9815 466.416)">
				<stop  offset="0" style="stop-color:#7895F4"/>
				<stop  offset="0.1895" style="stop-color:#4C91F5"/>
				<stop  offset="0.3323" style="stop-color:#5FAAF8"/>
				<stop  offset="0.4866" style="stop-color:#6FBFFB"/>
				<stop  offset="0.5895" style="stop-color:#75C6FC"/>
				<stop  offset="0.6514" style="stop-color:#76B8FA"/>
				<stop  offset="0.7654" style="stop-color:#77A5F7"/>
				<stop  offset="0.8811" style="stop-color:#7899F5"/>
				<stop  offset="1" style="stop-color:#7895F4"/>
			</linearGradient>
			<path class="st27" d="M75.4,58.3c-0.6,0-1.1-0.2-1.7-0.6c-1.6-1.2-2.1-3.9-1.2-5.9c0.9-2.1,2.9-2.8,4.5-1.6
				c0.8,0.6,1.3,1.5,1.5,2.6c0.2,1.1,0.1,2.3-0.3,3.3c-0.4,1-1.2,1.7-2,2C75.9,58.2,75.7,58.3,75.4,58.3z M75.4,52
				c-0.5,0-1,0.4-1.3,1c-0.4,0.9-0.2,2.1,0.5,2.7c0.7,0.5,1.6,0.2,2-0.7c0.4-0.9,0.2-2.1-0.5-2.7C75.9,52,75.6,52,75.4,52z"/>
		</g>
		<g>
			
				<linearGradient id="SVGID_29_" gradientUnits="userSpaceOnUse" x1="43.5233" y1="263.6699" x2="50.1539" y2="259.5942" gradientTransform="matrix(0.9651 -0.2618 0.2618 0.9651 -5.5727 -199.8575)">
				<stop  offset="0" style="stop-color:#7895F4"/>
				<stop  offset="0.1895" style="stop-color:#4C91F5"/>
				<stop  offset="0.3323" style="stop-color:#5FAAF8"/>
				<stop  offset="0.4866" style="stop-color:#6FBFFB"/>
				<stop  offset="0.5895" style="stop-color:#75C6FC"/>
				<stop  offset="0.6514" style="stop-color:#76B8FA"/>
				<stop  offset="0.7654" style="stop-color:#77A5F7"/>
				<stop  offset="0.8811" style="stop-color:#7899F5"/>
				<stop  offset="1" style="stop-color:#7895F4"/>
			</linearGradient>
			<path class="st28" d="M108.1,44.7c-0.6,0-1.1-0.2-1.6-0.6c-0.8-0.6-1.3-1.5-1.6-2.6c-0.2-1.1-0.1-2.3,0.3-3.3c0.4-1,1.2-1.7,2-2
				c0.9-0.3,1.7-0.2,2.5,0.4c0.8,0.6,1.3,1.5,1.6,2.6c0.2,1.1,0.1,2.3-0.3,3.3c-0.4,1-1.2,1.7-2,2C108.7,44.7,108.4,44.7,108.1,44.7
				z M108.1,38.4c-0.1,0-0.3,0-0.4,0.1c-0.4,0.1-0.7,0.5-0.9,0.9s-0.3,1-0.1,1.5c0.1,0.5,0.4,0.9,0.7,1.2c0.3,0.3,0.7,0.3,1.1,0.2
				c0.4-0.1,0.7-0.5,0.9-0.9c0.2-0.5,0.3-1,0.1-1.5c-0.1-0.5-0.4-0.9-0.7-1.2C108.6,38.5,108.4,38.4,108.1,38.4z"/>
		</g>
	</g>
</g>
</svg>
