<?xml version="1.0" encoding="utf-8"?>
<!-- Generator: Adobe Illustrator 22.1.0, SVG Export Plug-In . SVG Version: 6.00 Build 0)  -->
<svg version="1.1" id="Layer_1" xmlns="http://www.w3.org/2000/svg" xmlns:xlink="http://www.w3.org/1999/xlink" x="0px" y="0px"
	 viewBox="0 0 93.3 94.7" style="enable-background:new 0 0 93.3 94.7;" xml:space="preserve">
<style type="text/css">
	.st0{fill:url(#SVGID_1_);}
	.st1{fill:url(#SVGID_2_);}
	.st2{fill:url(#SVGID_3_);}
	.st3{fill:url(#SVGID_4_);}
	.st4{fill:url(#SVGID_5_);}
	.st5{fill:url(#SVGID_6_);}
	.st6{fill:url(#SVGID_7_);}
	.st7{fill:url(#SVGID_8_);}
	.st8{fill:url(#SVGID_9_);}
	.st9{fill:url(#SVGID_10_);}
	.st10{fill:url(#SVGID_11_);}
	.st11{fill:url(#SVGID_12_);}
	.st12{fill:url(#SVGID_13_);}
	.st13{fill:url(#SVGID_14_);}
	.st14{fill:url(#SVGID_15_);}
	.st15{fill:#7895F4;}
	.st16{fill:url(#SVGID_16_);}
	.st17{fill:url(#SVGID_17_);}
	.st18{fill:url(#SVGID_18_);}
	.st19{fill:url(#SVGID_19_);}
	.st20{fill:url(#SVGID_20_);}
	.st21{fill:url(#SVGID_21_);}
	.st22{fill:url(#SVGID_22_);}
	.st23{fill:url(#SVGID_23_);}
	.st24{fill:url(#SVGID_24_);}
	.st25{fill:url(#SVGID_25_);}
	.st26{fill:url(#SVGID_26_);}
	.st27{fill:url(#SVGID_27_);}
</style>
<g>
	<linearGradient id="SVGID_1_" gradientUnits="userSpaceOnUse" x1="2.9167" y1="39.7439" x2="86.953" y2="39.7439">
		<stop  offset="0" style="stop-color:#7895F4"/>
		<stop  offset="0.1895" style="stop-color:#4C91F5"/>
		<stop  offset="0.3323" style="stop-color:#5FAAF8"/>
		<stop  offset="0.4866" style="stop-color:#6FBFFB"/>
		<stop  offset="0.5895" style="stop-color:#75C6FC"/>
		<stop  offset="0.6514" style="stop-color:#76B8FA"/>
		<stop  offset="0.7654" style="stop-color:#77A5F7"/>
		<stop  offset="0.8811" style="stop-color:#7899F5"/>
		<stop  offset="1" style="stop-color:#7895F4"/>
	</linearGradient>
	<path class="st0" d="M65.6,48.4h-54c-3.7,0-6.8-3.9-6.8-8.6s3-8.6,6.8-8.6h66.6c3.7,0,6.8,3.9,6.8,8.6s-3,8.6-6.8,8.6H74l2.5,2.5
		h1.8c4.8,0,8.7-5,8.7-11.1c0-6.1-3.9-11.1-8.7-11.1H11.6c-4.8,0-8.7,5-8.7,11.1c0,6.1,3.9,11.1,8.7,11.1h54.3L65.6,48.4z"/>
	<g>
		
			<linearGradient id="SVGID_2_" gradientUnits="userSpaceOnUse" x1="-26.0772" y1="436.6833" x2="-2.6484" y2="436.6833" gradientTransform="matrix(0.8519 -0.5237 0.5237 0.8519 -144.2079 -320.4937)">
			<stop  offset="0" style="stop-color:#7895F4"/>
			<stop  offset="0.1895" style="stop-color:#4C91F5"/>
			<stop  offset="0.3323" style="stop-color:#5FAAF8"/>
			<stop  offset="0.4866" style="stop-color:#6FBFFB"/>
			<stop  offset="0.5895" style="stop-color:#75C6FC"/>
			<stop  offset="0.6514" style="stop-color:#76B8FA"/>
			<stop  offset="0.7654" style="stop-color:#77A5F7"/>
			<stop  offset="0.8811" style="stop-color:#7899F5"/>
			<stop  offset="1" style="stop-color:#7895F4"/>
		</linearGradient>
		<path class="st1" d="M70.5,77.6c0,0-0.1,0-0.2,0c-1.1-0.1-1.2-1.5-1.3-2l-3.4-30.1c-0.2-1.5,0.4-2.1,0.9-2.3
			c0.5-0.2,1.3-0.3,2.3,0.8h0L89.5,65c0.4,0.4,1.3,1.4,0.7,2.2c-0.6,0.9-1.9,0.4-2.3,0.2l-9-3.6c-0.5-0.2-1-0.2-1.5,0
			c-0.5,0.2-0.9,0.6-1.1,1.1l-4.2,11C72,76.4,71.5,77.6,70.5,77.6z M70.2,75.9L70.2,75.9L70.2,75.9z M67.4,44.9c0,0.1,0,0.2,0,0.3
			l3.3,29.4l3.9-10.3c0.4-0.9,1.1-1.7,2-2.1c0.9-0.4,1.9-0.4,2.9-0.1l7.9,3.2L67.6,45.2C67.5,45.1,67.5,45,67.4,44.9z"/>
	</g>
</g>
</svg>
