<svg width="25" height="24" viewBox="0 0 25 24" fill="none" xmlns="http://www.w3.org/2000/svg">
<path fill-rule="evenodd" clip-rule="evenodd" d="M12.0535 0C5.39648 0 0 5.37256 0 12C0 18.6274 5.39648 24 12.0535 24C18.7107 24 24.1072 18.6274 24.1072 12C24.1072 5.37256 18.7107 0 12.0535 0ZM9.40332 5.63867C10.0891 5.60791 10.3083 5.6001 12.0542 5.6001C13.7986 5.6001 14.0168 5.60791 14.7026 5.63867C15.387 5.66992 15.8545 5.77783 16.2642 5.93604C16.6875 6.09961 17.0452 6.31787 17.4026 6.67432C17.7603 7.02979 17.98 7.38672 18.1445 7.80762C18.3027 8.21484 18.4111 8.67969 18.4434 9.36133C18.4741 10.0439 18.4822 10.2622 18.4822 12C18.4822 12.9478 18.4797 13.4434 18.4727 13.8091C18.4666 14.1138 18.4573 14.3281 18.4434 14.6387C18.4111 15.3198 18.3027 15.7847 18.1445 16.1919C17.98 16.6128 17.7603 16.9697 17.4026 17.3257C17.0454 17.6816 16.6873 17.9009 16.2646 18.0645C15.8557 18.2227 15.3879 18.3306 14.7036 18.3613C14.0178 18.3926 13.7993 18.4004 12.0535 18.4004C11.1711 18.4004 10.6787 18.3984 10.3191 18.3926C9.96704 18.3867 9.74194 18.377 9.40283 18.3613C9.14893 18.3501 8.9248 18.3281 8.72266 18.2969C8.37988 18.2437 8.09961 18.1641 7.84229 18.0645C7.41968 17.9009 7.06104 17.6816 6.70386 17.3257C6.34644 16.9697 6.12695 16.6128 5.9624 16.1919C5.80371 15.7847 5.69531 15.3198 5.66382 14.6387C5.63281 13.9556 5.625 13.7383 5.625 12C5.625 10.2622 5.63306 10.0439 5.66382 9.36084C5.69458 8.68018 5.80298 8.21484 5.9624 7.80762C6.1272 7.38672 6.34668 7.02979 6.70435 6.67432C7.06177 6.31836 7.42041 6.09961 7.84326 5.93604C8.25195 5.77783 8.71899 5.66992 9.40332 5.63867Z" fill="#3D3D3D"/>
<path fill-rule="evenodd" clip-rule="evenodd" d="M4.69336 3.02069e-05H5.27026C6.98657 3.02069e-05 7.18994 0.00637786 7.86792 0.0371396C8.1377 0.0493466 8.35449 0.0757138 8.53198 0.108917C8.7666 0.152374 8.93237 0.20755 9.06152 0.257354C9.13013 0.28421 9.19434 0.312042 9.25488 0.341339C9.31006 0.368194 9.36255 0.397003 9.41309 0.427765C9.4978 0.479034 9.57739 0.536163 9.65576 0.602081C9.7041 0.643097 9.75195 0.68753 9.80029 0.73587C10.0251 0.959991 10.1646 1.17337 10.2812 1.4722C10.3213 1.57474 10.3647 1.70071 10.4031 1.86673C10.449 2.06497 10.4871 2.32034 10.5027 2.66019C10.5132 2.89017 10.5208 3.06546 10.5264 3.26468C10.5371 3.64847 10.54 4.12064 10.54 5.24564C10.54 6.09427 10.5386 6.57132 10.5332 6.91898C10.5276 7.27151 10.5181 7.49124 10.5027 7.8306C10.4739 8.45462 10.3691 8.79349 10.2812 9.01859C10.1648 9.31741 10.0251 9.5303 9.80029 9.75394C9.5752 9.97806 9.36157 10.1167 9.06152 10.2325C8.83521 10.3208 8.49463 10.4248 7.86792 10.4532C7.19019 10.4839 6.98657 10.4908 5.27026 10.4908C3.55347 10.4908 3.3501 10.4839 2.67236 10.4532C2.43628 10.4424 2.24072 10.4209 2.07666 10.3936C1.90332 10.3648 1.76514 10.3291 1.65088 10.293C1.58643 10.2725 1.52979 10.252 1.47876 10.2325C1.36279 10.1875 1.25977 10.1397 1.16382 10.0845C1.01147 9.99661 0.877441 9.89163 0.739502 9.75394C0.639893 9.65482 0.557129 9.55814 0.48584 9.45511C0.395752 9.32474 0.323486 9.1846 0.258301 9.0181C0.17041 8.793 0.0654297 8.45413 0.0368652 7.83011C0.00610352 7.15579 0 6.95267 0 5.24368C0 4.51761 0.0012207 4.06351 0.00488281 3.73001C0.00976562 3.27835 0.0192871 3.04642 0.0368652 2.65823C0.0656738 2.03421 0.17041 1.69583 0.258301 1.47025C0.374756 1.17142 0.514404 0.958038 0.739502 0.734405C0.792725 0.681183 0.845459 0.632843 0.898682 0.588409C1.07056 0.445831 1.24976 0.344269 1.47876 0.255401C1.70532 0.167022 2.04565 0.0630185 2.67236 0.0346982L3.00122 0.020538C3.39941 0.00491302 3.73975 -0.000458074 4.69336 3.02069e-05ZM8.70166 1.06302C8.27563 1.06302 7.93018 1.40628 7.93018 1.8306C7.93018 2.25442 8.27563 2.59866 8.70166 2.59866C9.12744 2.59866 9.47314 2.25442 9.47314 1.8306C9.47314 1.40677 9.12744 1.06253 8.70166 1.06302ZM1.96875 5.24661C1.96875 3.43167 3.44702 1.95999 5.27002 1.95999C7.09326 1.95999 8.57104 3.43167 8.57104 5.24661C8.57104 7.06155 7.09326 8.53275 5.27002 8.53275C3.44702 8.53275 1.96875 7.06155 1.96875 5.24661Z" transform="translate(6.78418 6.75293)" fill="#3D3D3D"/>
<path fill-rule="evenodd" clip-rule="evenodd" d="M2.14288 0C3.32628 0 4.28576 0.955077 4.28576 2.13336C4.28576 3.3115 3.32628 4.26671 2.14288 4.26671C0.95934 4.26671 0 3.3115 0 2.13336C0 0.955077 0.95934 0 2.14288 0V0Z" transform="translate(9.91113 9.86719)" fill="#3D3D3D"/>
</svg>
