<?xml version="1.0" encoding="utf-8"?>
<!-- Generator: Adobe Illustrator 22.1.0, SVG Export Plug-In . SVG Version: 6.00 Build 0)  -->
<svg version="1.1" id="Capa_1" xmlns="http://www.w3.org/2000/svg" xmlns:xlink="http://www.w3.org/1999/xlink" x="0px" y="0px"
	 viewBox="0 0 86.6 110.6" style="enable-background:new 0 0 86.6 110.6;" xml:space="preserve">
<style type="text/css">
	.st0{fill:#25A8E0;}
</style>
<g id="XMLID_63_">
	<g id="XMLID_14_">
		<g id="XMLID_17_">
			<path id="XMLID_2_" class="st0" d="M45.4,71c-7.1,0-13.8-2.8-18.9-7.8c-5.1-5.1-7.8-11.8-7.8-18.9c0-7.2,2.8-13.9,7.8-18.9
				c5.1-5.1,11.8-7.8,18.9-7.8c5.4,0,10.5,1.6,14.9,4.5l1.8-1.8c2-2,5.4-2,7.4,0c2,2.1,2,5.4,0,7.4l-5.1,5.1c-2.1,2-5.4,2-7.4,0
				c-3.1-3.1-7.2-4.8-11.5-4.8s-8.4,1.7-11.5,4.8s-4.8,7.2-4.8,11.5s1.7,8.4,4.8,11.5s7.1,4.7,11.5,4.7c2.9,0,5.3,2.4,5.3,5.3
				C50.7,68.6,48.3,71,45.4,71z"/>
		</g>
		<g id="XMLID_15_">
			<path id="XMLID_1_" class="st0" d="M46.5,93.1c-5.2,0-10.4-1.5-14.9-4.5l-1.8,1.8c-2.1,2-5.4,2-7.4,0c-2.1-2.1-2.1-5.4,0-7.4
				l5.1-5.1c2.1-2,5.4-2,7.4,0c6.3,6.3,16.7,6.3,23,0s6.3-16.7,0-23c-3.1-3.1-7.1-4.7-11.5-4.7c-2.9,0-5.3-2.4-5.3-5.2
				s2.4-5.3,5.3-5.3c7.1,0,13.8,2.8,18.9,7.8c10.4,10.4,10.4,27.4,0,37.9C60.2,90.5,53.3,93.1,46.5,93.1z"/>
		</g>
	</g>
</g>
</svg>
