<svg width="25" height="24" viewBox="0 0 25 24" fill="none" xmlns="http://www.w3.org/2000/svg">
<path fill-rule="evenodd" clip-rule="evenodd" d="M12.0535 0C5.39648 0 0 5.37256 0 12C0 18.6274 5.39648 24 12.0535 24C18.7107 24 24.1072 18.6274 24.1072 12C24.1072 5.37256 18.7107 0 12.0535 0ZM5.78711 9.93896H8.5188V18.1099H5.78711V9.93896ZM8.698 7.41113C8.68042 6.61035 8.10474 6 7.17041 6C6.23584 6 5.625 6.61035 5.625 7.41113C5.625 8.1958 6.21777 8.82373 7.13501 8.82373H7.15234C8.10474 8.82373 8.698 8.1958 8.698 7.41113ZM15.2244 9.74707C17.022 9.74707 18.3694 10.915 18.3694 13.4248V18.1099H15.6379V13.7383C15.6379 12.6401 15.2427 11.8911 14.2537 11.8911C13.9102 11.8911 13.6299 11.9956 13.4077 12.1558C13.1421 12.3477 12.9597 12.6182 12.8521 12.8843C12.78 13.0591 12.7622 13.3027 12.7622 13.5469V18.1099H10.0303C10.0303 18.1099 10.0435 15.4082 10.0459 13.0996C10.0474 11.5864 10.0444 10.2427 10.0303 9.93896H12.7622V11.0967C13.1248 10.54 13.7742 9.74707 15.2244 9.74707Z" fill="#3D3D3D"/>
</svg>
