<?xml version="1.0" encoding="utf-8"?>
<!-- Generator: Adobe Illustrator 22.1.0, SVG Export Plug-In . SVG Version: 6.00 Build 0)  -->
<svg version="1.1" id="Capa_1" xmlns="http://www.w3.org/2000/svg" xmlns:xlink="http://www.w3.org/1999/xlink" x="0px" y="0px"
	 viewBox="0 0 960 560" style="enable-background:new 0 0 960 560;" xml:space="preserve">
<style type="text/css">
	.st0{fill:#FFFFFF;}
</style>
<g id="XMLID_1281_">
	<g id="XMLID_956_">
		<g id="XMLID_136_">
			<path id="XMLID_152_" class="st0" d="M181,331.9c-3.7-2.4-5.7-6.2-5.7-10.1c0-5.8,4.5-10.5,10.7-10.5c2.6,0,5,0.8,7,1.9
				c9.1,5,15.6,7.1,23.7,7.1c11.7,0,18-5.4,18-13c0-6.5-3.9-10.5-17-12.3l-5.8-0.8c-22.6-3.1-34.9-13.6-34.9-33.1
				c0-20.3,15.2-33.8,39.1-33.8c12.2,0,24.3,3.2,30.8,7.3c3.9,2.4,5.7,5.7,5.7,9.6c0,6-4.5,10.4-10.4,10.4c-2.3,0-4.7-0.6-7-1.8
				c-5.4-2.6-12.2-4.5-19-4.5c-9.7,0-14.9,4.9-14.9,11.8c0,6.2,4.4,10.4,17.2,12.2l5.8,0.8c22.9,3.2,34.7,13.5,34.7,33.4
				s-14.6,34.7-43.3,34.7C200.1,341.3,188.3,336.4,181,331.9z"/>
			<path id="XMLID_150_" class="st0" d="M298.3,240.9c0-7.6,5-12.7,12-12.7c6.8,0,11.8,5,11.8,12.7v87c0,7.6-5,12.7-11.8,12.7
				c-7,0-12-5-12-12.7V240.9z"/>
			<path id="XMLID_148_" class="st0" d="M365.9,242.5c0-8.8,5.2-14.3,13.1-14.3c7.1,0,11,3.9,14.8,12.3l23.5,53.2h0.7l23-53.2
				c3.6-8.4,7.5-12.3,14.6-12.3c8,0,13,5.5,13,14.3V329c0,7.3-4.4,11.5-10.9,11.5s-10.9-4.2-10.9-11.5v-53.2H446l-17,39.6
				c-3.4,7.8-6.2,10.1-11.7,10.1s-8.3-2.3-11.7-10.1l-17.2-39.6h-0.8V329c0,7.3-4.5,11.5-10.7,11.5c-6.5,0-11-4.2-11-11.5
				L365.9,242.5L365.9,242.5z"/>
			<path id="XMLID_145_" class="st0" d="M512.5,327.8v-88.1c0-6.3,3.9-10.5,10.4-10.5H557c24.2,0,38.5,14.4,38.5,35.5
				c0,20.8-14.4,35.4-38.5,35.4h-19.6c-0.6,0-1,0.3-1,1v26.8c0,7.6-5,12.7-11.8,12.7C517.5,340.5,512.5,335.5,512.5,327.8z
				 M571.5,264.7c0-8.9-6-14.9-16.1-14.9h-18.2c-0.6,0-1,0.3-1,1v27.7c0,0.6,0.3,1,1,1h18.2C565.5,279.5,571.5,273.6,571.5,264.7z"
				/>
			<path id="XMLID_142_" class="st0" d="M633.3,327.8v-88.1c0-6.3,3.9-10.5,10.4-10.5h34.1c24.2,0,38.5,14.4,38.5,35.5
				c0,20.8-14.4,35.4-38.5,35.4h-19.6c-0.7,0-1,0.3-1,1v26.8c0,7.6-5,12.7-11.8,12.7C638.4,340.5,633.3,335.5,633.3,327.8z
				 M692.4,264.7c0-8.9-6-14.9-16.1-14.9h-18.2c-0.7,0-1,0.3-1,1v27.7c0,0.6,0.3,1,1,1h18.2C686.4,279.5,692.4,273.6,692.4,264.7z"
				/>
			<path id="XMLID_140_" class="st0" d="M754.2,240.9c0-7.6,5-12.7,12-12.7c6.8,0,11.8,5,11.8,12.7v76.4c0,0.6,0.3,1,1,1h39.3
				c7.3,0,12,4.4,12,10.5c0,6.3-4.7,10.7-12,10.7h-52.1c-7.3,0-12-4.9-12-12V240.9z"/>
			<path id="XMLID_137_" class="st0" d="M862.4,314.5c-2.4-7.8-3.1-14-3.1-30.2s0.6-22.4,3.1-30.2c5.8-17.9,20.9-26.8,40.2-26.8
				s34.4,8.9,40.2,26.8c2.4,7.8,3.1,14,3.1,30.2s-0.6,22.4-3.1,30.2c-5.8,17.8-20.9,26.8-40.2,26.8
				C883.4,341.3,868.3,332.4,862.4,314.5z M920,308.2c1.3-4.1,1.8-9.6,1.8-23.9s-0.5-19.8-1.8-23.9c-2.4-7.5-8.3-12-17.4-12
				c-9.1,0-14.9,4.5-17.4,12c-1.3,4.1-1.8,9.6-1.8,23.9s0.5,19.8,1.8,23.9c2.4,7.5,8.3,12,17.4,12
				C911.8,320.2,917.6,315.7,920,308.2z"/>
		</g>
	</g>
	<g id="XMLID_992_">
		<g id="XMLID_39_">
			<g id="XMLID_42_">
				<path id="XMLID_43_" class="st0" d="M62.2,308.2c-12.6,0-24.4-4.9-33.3-13.8S15.1,273.6,15.1,261s4.9-24.5,13.8-33.4
					s20.8-13.8,33.4-13.8c9.5,0,18.5,2.8,26.2,7.9l3.1-3.1c3.6-3.6,9.5-3.6,13.1,0s3.6,9.5,0,13.1l-9,9c-3.6,3.6-9.5,3.6-13.1,0
					c-5.4-5.4-12.6-8.4-20.3-8.4s-14.9,3-20.3,8.4s-8.4,12.6-8.4,20.3c0,7.7,3,14.9,8.4,20.3s12.6,8.4,20.2,8.4
					c5.1,0,9.3,4.1,9.3,9.3C71.5,304.1,67.3,308.2,62.2,308.2z"/>
			</g>
			<g id="XMLID_40_">
				<path id="XMLID_41_" class="st0" d="M64,347.3c-9.1,0-18.3-2.6-26.2-7.9l-3.1,3.1c-3.6,3.6-9.5,3.6-13.1,0s-3.6-9.5,0-13.1l9-9
					c3.6-3.6,9.5-3.6,13.1,0c11.2,11.2,29.4,11.2,40.5,0c11.2-11.2,11.2-29.4,0-40.6c-5.4-5.4-12.6-8.4-20.2-8.4
					c-5.1,0-9.3-4.1-9.3-9.2s4.1-9.3,9.3-9.3c12.6,0,24.4,4.9,33.3,13.8c18.4,18.4,18.4,48.3,0,66.7C88.2,342.7,76.1,347.3,64,347.3
					z"/>
			</g>
		</g>
	</g>
</g>
</svg>
