<?xml version="1.0" encoding="utf-8"?>
<!-- Generator: Adobe Illustrator 22.1.0, SVG Export Plug-In . SVG Version: 6.00 Build 0)  -->
<svg version="1.1" id="Capa_1" xmlns="http://www.w3.org/2000/svg" xmlns:xlink="http://www.w3.org/1999/xlink" x="0px" y="0px"
	 viewBox="0 0 565.6 110.6" style="enable-background:new 0 0 565.6 110.6;" xml:space="preserve">
<style type="text/css">
	.st0{fill:#FFFFFF;}
	.st1{fill:#25A8E0;}
</style>
<g id="XMLID_63_">
	<g id="XMLID_19_">
		<path id="XMLID_35_" class="st0" d="M112.8,84.4c-2.1-1.4-3.2-3.5-3.2-5.7c0-3.3,2.6-6,6.1-6c1.5,0,2.9,0.5,4,1.1
			c5.2,2.9,8.8,4.1,13.4,4.1c6.6,0,10.2-3,10.2-7.4c0-3.7-2.2-6-9.7-7l-3.3-0.5c-12.8-1.8-19.8-7.7-19.8-18.8
			c0-11.5,8.7-19.2,22.2-19.2c6.9,0,13.8,1.8,17.5,4.1c2.2,1.4,3.2,3.2,3.2,5.4c0,3.4-2.6,5.9-5.9,5.9c-1.3,0-2.7-0.4-4-1
			c-3-1.5-6.9-2.6-10.8-2.6c-5.5,0-8.5,2.8-8.5,6.7c0,3.5,2.5,5.9,9.8,6.9l3.3,0.5c13,1.8,19.7,7.6,19.7,19s-8.3,19.7-24.6,19.7
			C123.7,89.7,117,87,112.8,84.4z"/>
		<path id="XMLID_33_" class="st0" d="M179.4,32.8c0-4.3,2.9-7.2,6.8-7.2c3.9,0,6.7,2.9,6.7,7.2v49.4c0,4.3-2.9,7.2-6.7,7.2
			c-4,0-6.8-2.9-6.8-7.2V32.8z"/>
		<path id="XMLID_31_" class="st0" d="M217.8,33.7c0-5,2.9-8.1,7.5-8.1c4.1,0,6.3,2.2,8.4,7L247,62.8h0.4l13.1-30.2
			c2-4.8,4.2-7,8.3-7c4.5,0,7.4,3.1,7.4,8.1v49.1c0,4.1-2.5,6.5-6.2,6.5s-6.2-2.4-6.2-6.5V52.5h-0.5L253.6,75
			c-1.9,4.4-3.5,5.7-6.6,5.7s-4.7-1.3-6.6-5.7l-9.8-22.5h-0.5v30.2c0,4.1-2.6,6.5-6.1,6.5c-3.7,0-6.3-2.4-6.3-6.5v-49
			C217.7,33.7,217.8,33.7,217.8,33.7z"/>
		<path id="XMLID_28_" class="st0" d="M300.9,82.1v-50c0-3.6,2.2-6,5.9-6h19.3c13.7,0,21.8,8.2,21.8,20.2c0,11.8-8.2,20.1-21.8,20.1
			H315c-0.4,0-0.6,0.2-0.6,0.6v15.2c0,4.3-2.9,7.2-6.7,7.2C303.8,89.3,300.9,86.4,300.9,82.1z M334.4,46.3c0-5.1-3.4-8.5-9.1-8.5
			H315c-0.4,0-0.6,0.2-0.6,0.6v15.7c0,0.4,0.2,0.6,0.6,0.6h10.3C331,54.7,334.4,51.3,334.4,46.3z"/>
		<path id="XMLID_25_" class="st0" d="M369.5,82.1v-50c0-3.6,2.2-6,5.9-6h19.3c13.7,0,21.8,8.2,21.8,20.2c0,11.8-8.2,20.1-21.8,20.1
			h-11.1c-0.4,0-0.6,0.2-0.6,0.6v15.2c0,4.3-2.9,7.2-6.7,7.2C372.3,89.3,369.5,86.4,369.5,82.1z M403,46.3c0-5.1-3.4-8.5-9.1-8.5
			h-10.3c-0.4,0-0.6,0.2-0.6,0.6v15.7c0,0.4,0.2,0.6,0.6,0.6h10.3C399.6,54.7,403,51.3,403,46.3z"/>
		<path id="XMLID_23_" class="st0" d="M438.1,32.8c0-4.3,2.9-7.2,6.8-7.2s6.7,2.9,6.7,7.2v43.4c0,0.4,0.2,0.6,0.5,0.6h22.3
			c4.1,0,6.8,2.5,6.8,6c0,3.6-2.7,6.1-6.8,6.1h-29.6c-4.1,0-6.8-2.8-6.8-6.8V32.8H438.1z"/>
		<path id="XMLID_20_" class="st0" d="M499.5,74.6c-1.4-4.4-1.7-7.9-1.7-17.1s0.4-12.7,1.7-17.1c3.3-10.1,11.9-15.2,22.8-15.2
			c11,0,19.5,5.1,22.8,15.2c1.4,4.4,1.7,7.9,1.7,17.1s-0.4,12.7-1.7,17.1c-3.3,10.1-11.9,15.2-22.8,15.2
			C511.4,89.7,502.8,84.7,499.5,74.6z M532.2,71c0.7-2.3,1-5.4,1-13.5s-0.3-11.2-1-13.5c-1.4-4.2-4.7-6.8-9.9-6.8s-8.5,2.6-9.8,6.8
			c-0.7,2.3-1,5.4-1,13.5s0.3,11.2,1,13.5c1.4,4.2,4.7,6.8,9.8,6.8C527.5,77.8,530.8,75.2,532.2,71z"/>
	</g>
	<g id="XMLID_14_">
		<g id="XMLID_17_">
			<path id="XMLID_2_" class="st1" d="M45.4,71c-7.1,0-13.8-2.8-18.9-7.8c-5.1-5.1-7.8-11.8-7.8-18.9c0-7.2,2.8-13.9,7.8-18.9
				c5.1-5.1,11.8-7.8,18.9-7.8c5.4,0,10.5,1.6,14.9,4.5l1.8-1.8c2-2,5.4-2,7.4,0c2,2.1,2,5.4,0,7.4l-5.1,5.1c-2.1,2-5.4,2-7.4,0
				c-3.1-3.1-7.2-4.8-11.5-4.8s-8.4,1.7-11.5,4.8s-4.8,7.2-4.8,11.5s1.7,8.4,4.8,11.5s7.1,4.7,11.5,4.7c2.9,0,5.3,2.4,5.3,5.3
				C50.7,68.6,48.3,71,45.4,71z"/>
		</g>
		<g id="XMLID_15_">
			<path id="XMLID_1_" class="st1" d="M46.5,93.1c-5.2,0-10.4-1.5-14.9-4.5l-1.8,1.8c-2.1,2-5.4,2-7.4,0c-2.1-2.1-2.1-5.4,0-7.4
				l5.1-5.1c2.1-2,5.4-2,7.4,0c6.3,6.3,16.7,6.3,23,0s6.3-16.7,0-23c-3.1-3.1-7.1-4.7-11.5-4.7c-2.9,0-5.3-2.4-5.3-5.2
				s2.4-5.3,5.3-5.3c7.1,0,13.8,2.8,18.9,7.8c10.4,10.4,10.4,27.4,0,37.9C60.2,90.5,53.3,93.1,46.5,93.1z"/>
		</g>
	</g>
</g>
</svg>
