<svg width="427" height="274" viewBox="0 0 427 274" fill="none" xmlns="http://www.w3.org/2000/svg">
<g filter="url(#filter0_d)">
<g filter="url(#filter1_d)">
<path d="M363.983 19.4366L142.221 147.565L113.677 148.336L108.949 145.667L34.827 102.99L5.84462 85.0083L0 77.9499V88.7933C0 89.9953 0.172808 90.5994 0.345616 91.2036C0.604829 91.9803 1.11708 92.9235 1.37629 93.2687C3.0118 95.7653 5.76439 97.3126 5.76439 97.3126L6.79506 97.9167L34.827 114.179L107.055 155.912L111.955 158.754C120.293 163.575 133.883 163.575 142.135 158.84L363.891 30.7176L378.937 22.0257L382.807 19.788C387.022 17.3777 389.084 14.1105 388.997 10.8372V9.72139V0L363.983 19.4366Z" transform="translate(19 98.6196)" fill="url(#paint0_linear)"/>
</g>
<g filter="url(#filter2_d)">
<path d="M347.456 102.611L142.209 221.185C133.957 226.006 120.367 225.919 112.029 221.099L6.26434 160.003C-2.07366 155.182 -2.07366 147.353 6.17793 142.532L168.605 48.6597L168.007 48.3144C167.402 47.9692 167.402 47.3651 168.007 47.0261L183.485 38.0752C184.09 37.73 185.121 37.73 185.719 38.0752L186.324 38.4204L188.818 36.9595L188.386 36.7006C187.694 36.269 187.694 35.5848 188.386 35.1533L203.519 26.375C204.204 25.9435 205.407 25.9435 206.098 26.375L206.531 26.634L218.485 19.7482L218.053 19.4893C217.362 19.0578 217.362 18.3735 218.053 17.942L225.62 13.5529C226.311 13.1214 227.514 13.1214 228.199 13.5529L228.631 13.8118L246.776 3.57261C255.034 -1.24802 268.618 -1.16172 276.956 3.65891L382.721 64.7551C391.059 69.5758 391.059 77.4047 382.807 82.2253L363.885 93.1426L347.456 102.611Z" transform="translate(19.012 25)" fill="white"/>
</g>
<path d="M120.466 195.155L0 125.453L217.115 0L337.667 69.7018L120.466 195.155Z" transform="translate(47.2048 38.3804)" fill="url(#paint1_linear)"/>
<path d="M28.4209 18.2121C27.8778 18.2121 27.3531 18.0949 26.952 17.8545L0.635764 2.62823C0.11734 2.31384 0.00626079 1.95631 8.90663e-05 1.70973C-0.00608265 1.27821 0.308669 0.840532 0.888811 0.470663L0.894989 0.4645C1.88864 -0.0779749 3.41305 -0.158112 4.22772 0.291895L30.5439 15.5243C31.0624 15.8387 31.1734 16.1963 31.1796 16.4429C31.1858 16.8744 30.871 17.312 30.2971 17.6757C29.791 18.0333 29.0936 18.2121 28.4209 18.2121ZM1.04928 0.735739C0.574059 1.0378 0.302503 1.39534 0.308675 1.70973C0.314847 2.01795 0.574047 2.23371 0.790057 2.36933L27.1001 17.6018C27.8962 18.0826 29.3034 18.0025 30.1119 17.4353L30.1181 17.4292C30.5933 17.1271 30.8648 16.7696 30.8648 16.4552C30.8587 16.147 30.5995 15.9312 30.3835 15.7956L4.07342 0.569297C3.36368 0.162441 1.95035 0.24258 1.04928 0.735739Z" transform="translate(319.667 57.9136)" fill="#AAAAAA"/>
<path d="M13.5655 15.6334C13.5223 15.6334 13.4791 15.6334 13.4359 15.6334C9.85015 15.615 6.48039 14.7889 3.94998 13.3156C1.38872 11.8238 -0.0122626 9.85116 8.08733e-05 7.74291C0.0124243 5.64082 1.43809 3.67435 4.0117 2.21336C6.56062 0.76471 9.93655 -0.0181732 13.5223 0.00032029C17.1081 0.0188137 20.4778 0.844846 23.0083 2.31816C25.5695 3.80996 26.9705 5.78261 26.9582 7.89086C26.9458 9.99295 25.5201 11.9594 22.9465 13.4204C20.4346 14.8506 17.1019 15.6334 13.5655 15.6334ZM13.3927 0.320871C9.90569 0.320871 6.63468 1.09143 4.15982 2.49077C1.68496 3.89627 0.314836 5.76411 0.302493 7.74908C0.277806 11.8854 6.1718 15.2821 13.4359 15.3252C16.9661 15.3437 20.2927 14.5732 22.7922 13.1553C25.2671 11.7498 26.6372 9.88198 26.6496 7.89702C26.6743 3.76065 20.7803 0.364022 13.5161 0.320871C13.4791 0.320871 13.4359 0.320871 13.3927 0.320871Z" transform="translate(77.0881 200.642)" fill="#B7B7B7"/>
<path d="M120.466 195.155L0 125.453L217.115 0L337.667 69.7018L120.466 195.155Z" transform="translate(46.8467 38.5347)" fill="url(#paint2_linear)"/>
<path d="M0 11.7372L120.688 81.3342L141.048 69.597L20.3605 0L0 11.7372Z" transform="translate(244.181 38.2266)" fill="url(#paint3_linear)"/>
<path d="M29.8837 34.5951C29.8528 34.5951 29.8219 34.5951 29.7911 34.5951C21.8974 34.5828 14.4605 32.7889 8.85043 29.5525C6.10401 27.9683 3.93774 26.1189 2.4195 24.06C0.827192 21.9024 0.0186995 19.6092 0.000184376 17.2421C-0.0183308 14.166 1.35796 11.1516 3.98094 8.53165C6.54221 5.96722 10.2206 3.82198 14.6272 2.33018C19.1202 0.807551 24.2674 0 29.5195 0C29.5504 0 29.5812 0 29.6121 0C37.5057 0.012329 44.9426 1.8062 50.5527 5.04255C53.2992 6.62683 55.4654 8.47617 56.9837 10.5351C58.576 12.6927 59.3845 14.9859 59.403 17.353C59.4215 20.4291 58.0452 23.4435 55.4222 26.0634C52.861 28.6279 49.1826 30.7731 44.776 32.2649C40.283 33.7937 35.1358 34.5951 29.8837 34.5951ZM29.5195 0.807546C19.2189 0.807546 9.65893 3.98226 4.54874 9.10495C2.08622 11.5769 0.790165 14.3941 0.802508 17.2482C0.851882 26.347 13.8557 33.7691 29.7911 33.7999C29.8219 33.7999 29.8528 33.7999 29.8837 33.7999C40.1843 33.7999 49.7443 30.6252 54.8544 25.5025C57.317 23.0305 58.613 20.2133 58.6007 17.3592C58.5513 8.26041 45.5475 0.838369 29.6121 0.807546C29.5812 0.807546 29.5442 0.807546 29.5195 0.807546Z" transform="translate(229.474 93.6147)" fill="#00FF00"/>
<path d="M18.0895 21.0764C18.0709 21.0764 18.0524 21.0764 18.0339 21.0764C13.2693 21.0703 8.77632 19.9853 5.38805 18.0312C1.93188 16.0339 0.0124767 13.3647 0.00013324 10.5105C-0.0122102 8.62417 0.833325 6.77482 2.4318 5.16589C3.98707 3.61244 6.21506 2.31174 8.88125 1.40556C11.6091 0.480883 14.732 -0.00610668 17.9228 5.78061e-05C22.6874 0.00622229 27.1804 1.09117 30.5687 3.04531C34.0248 5.0426 35.9442 7.71182 35.9566 10.566C35.9689 12.4523 35.1234 14.3017 33.5249 15.9106C31.9696 17.464 29.7417 18.7647 27.0755 19.6709C24.3661 20.5894 21.2555 21.0764 18.0895 21.0764ZM18.0339 20.275C24.1933 20.2874 29.9083 18.3949 32.9571 15.3435C34.4075 13.8886 35.1666 12.2427 35.1542 10.5721C35.1419 8.01389 33.3706 5.58508 30.1675 3.7419C26.8965 1.85556 22.5454 0.81377 17.9228 0.801441C17.9043 0.801441 17.8858 0.801441 17.8673 0.801441C11.7264 0.801441 6.03608 2.68777 2.9996 5.73303C1.54924 7.18785 0.790114 8.83376 0.802457 10.5043C0.8148 13.0626 2.58609 15.4914 5.78921 17.3346C9.06022 19.2209 13.4113 20.2689 18.0339 20.275Z" transform="translate(241.194 100.377)" fill="#00FF00"/>
</g>
<defs>
<filter id="filter0_d" x="15" y="25" width="397" height="244" filterUnits="userSpaceOnUse" color-interpolation-filters="sRGB">
<feFlood flood-opacity="0" result="BackgroundImageFix"/>
<feColorMatrix in="SourceAlpha" type="matrix" values="0 0 0 0 0 0 0 0 0 0 0 0 0 0 0 0 0 0 255 0"/>
<feOffset dy="4"/>
<feGaussianBlur stdDeviation="2"/>
<feColorMatrix type="matrix" values="0 0 0 0 0 0 0 0 0 0 0 0 0 0 0 0 0 0 0.25 0"/>
<feBlend mode="normal" in2="BackgroundImageFix" result="effect1_dropShadow"/>
<feBlend mode="normal" in="SourceGraphic" in2="effect1_dropShadow" result="shape"/>
</filter>
<filter id="filter1_d" x="10" y="93.6196" width="407" height="180.38" filterUnits="userSpaceOnUse" color-interpolation-filters="sRGB">
<feFlood flood-opacity="0" result="BackgroundImageFix"/>
<feColorMatrix in="SourceAlpha" type="matrix" values="0 0 0 0 0 0 0 0 0 0 0 0 0 0 0 0 0 0 255 0"/>
<feOffset dy="4"/>
<feGaussianBlur stdDeviation="4.5"/>
<feColorMatrix type="matrix" values="0 0 0 0 0 0 0 0 0 0 0 0 0 0 0 0 0 0 0.25 0"/>
<feBlend mode="normal" in2="BackgroundImageFix" result="effect1_dropShadow"/>
<feBlend mode="normal" in="SourceGraphic" in2="effect1_dropShadow" result="shape"/>
</filter>
<filter id="filter2_d" x="0.0119629" y="0" width="426.985" height="262.758" filterUnits="userSpaceOnUse" color-interpolation-filters="sRGB">
<feFlood flood-opacity="0" result="BackgroundImageFix"/>
<feColorMatrix in="SourceAlpha" type="matrix" values="0 0 0 0 0 0 0 0 0 0 0 0 0 0 0 0 0 0 255 0"/>
<feOffset dy="-6"/>
<feGaussianBlur stdDeviation="9.5"/>
<feColorMatrix type="matrix" values="0 0 0 0 0 0 0 0 0 0 0 0 0 0 0 0 0 0 0.25 0"/>
<feBlend mode="normal" in2="BackgroundImageFix" result="effect1_dropShadow"/>
<feBlend mode="normal" in="SourceGraphic" in2="effect1_dropShadow" result="shape"/>
</filter>
<linearGradient id="paint0_linear" x2="1" gradientUnits="userSpaceOnUse" gradientTransform="translate(143.38 -141.938) scale(-275.913 276.11) rotate(60)">
<stop offset="0.00742574" stop-color="#C2C2C2"/>
<stop offset="0.177" stop-color="#DBDBDB"/>
<stop offset="0.3644" stop-color="#F0F0F0"/>
<stop offset="0.4876" stop-color="#F7F7F7"/>
<stop offset="0.5853" stop-color="#F3F3F3"/>
<stop offset="0.6807" stop-color="#E8E8E8"/>
<stop offset="0.7752" stop-color="#D4D4D4"/>
<stop offset="0.8691" stop-color="#B9B9B9"/>
<stop offset="0.9618" stop-color="#959595"/>
<stop offset="1" stop-color="#858585"/>
</linearGradient>
<linearGradient id="paint1_linear" x2="1" gradientUnits="userSpaceOnUse" gradientTransform="matrix(217.2 -125.501 -188.096 -108.678 154.259 214.675)">
<stop stop-color="#4CC0E5"/>
<stop offset="0.1534" stop-color="#43A1C5"/>
<stop offset="0.5656" stop-color="#2B5172"/>
<stop offset="0.8576" stop-color="#1D1F3E"/>
<stop offset="1" stop-color="#170C2A"/>
</linearGradient>
<linearGradient id="paint2_linear" x2="1" gradientUnits="userSpaceOnUse" gradientTransform="matrix(217.2 -125.501 -188.096 -108.678 154.261 214.678)">
<stop stop-color="#226F75"/>
<stop offset="1" stop-color="#A7BF97"/>
</linearGradient>
<linearGradient id="paint3_linear" x2="1" gradientUnits="userSpaceOnUse" gradientTransform="matrix(120.684 69.5972 -139.358 80.3708 79.8481 -34.3105)">
<stop stop-color="#2A486E"/>
<stop offset="0.2579" stop-color="#4372AD"/>
<stop offset="0.5158" stop-color="#4352B1"/>
<stop offset="0.9316" stop-color="#2E4E78"/>
</linearGradient>
</defs>
</svg>
